<mxfile host="app.diagrams.net" modified="2024-01-28T10:31:41.536Z" agent="Mozilla/5.0 (Windows NT 10.0; Win64; x64) AppleWebKit/537.36 (KHTML, like Gecko) Chrome/120.0.0.0 Safari/537.36 Edg/120.0.0.0" etag="sCDYzqikAbeitedrRbuB" version="22.1.21" type="github" pages="4">
  <diagram name="Page-1" id="e3a06f82-3646-2815-327d-82caf3d4e204">
    <mxGraphModel dx="1426" dy="785" grid="1" gridSize="10" guides="1" tooltips="1" connect="1" arrows="1" fold="1" page="1" pageScale="1.5" pageWidth="1169" pageHeight="826" background="none" math="0" shadow="0">
      <root>
        <mxCell id="0" style=";html=1;" />
        <mxCell id="1" style=";html=1;" parent="0" />
        <mxCell id="6a7d8f32e03d9370-61" value="External Medical Centers Outside Networks" style="whiteSpace=wrap;html=1;fillColor=#f8cecc;fontSize=14;strokeColor=none;verticalAlign=top;" parent="1" vertex="1">
          <mxGeometry x="1084" y="296" width="493" height="360" as="geometry" />
        </mxCell>
        <mxCell id="6a7d8f32e03d9370-60" value="Enterprise cloud" style="whiteSpace=wrap;html=1;fillColor=#d5e8d4;fontSize=14;strokeColor=none;verticalAlign=top;" parent="1" vertex="1">
          <mxGeometry x="937" y="764" width="703" height="374" as="geometry" />
        </mxCell>
        <mxCell id="6a7d8f32e03d9370-59" value="&amp;nbsp;Server Farm&lt;div&gt;with firewalls&lt;/div&gt;" style="whiteSpace=wrap;html=1;fillColor=#EDEDED;fontSize=14;strokeColor=none;verticalAlign=top;" parent="1" vertex="1">
          <mxGeometry x="599" y="98" width="280" height="1010" as="geometry" />
        </mxCell>
        <mxCell id="6a7d8f32e03d9370-58" value="Private users" style="whiteSpace=wrap;html=1;fillColor=#dae8fc;fontSize=14;strokeColor=none;verticalAlign=top;" parent="1" vertex="1">
          <mxGeometry x="177" y="863" width="310" height="318" as="geometry" />
        </mxCell>
        <mxCell id="6a7d8f32e03d9370-57" value="Medical Centers Medical Image Scan Enterprise Networks" style="whiteSpace=wrap;html=1;fillColor=#FFD470;gradientColor=none;fontSize=14;strokeColor=none;verticalAlign=top;" parent="1" vertex="1">
          <mxGeometry x="179" y="98" width="308" height="680" as="geometry" />
        </mxCell>
        <mxCell id="6a7d8f32e03d9370-36" style="edgeStyle=none;rounded=0;html=1;startSize=10;endSize=10;jettySize=auto;orthogonalLoop=1;fontSize=14;endArrow=none;endFill=0;strokeWidth=2;" parent="1" source="6a7d8f32e03d9370-1" target="6a7d8f32e03d9370-14" edge="1">
          <mxGeometry relative="1" as="geometry" />
        </mxCell>
        <mxCell id="6a7d8f32e03d9370-1" value="Client" style="verticalLabelPosition=bottom;aspect=fixed;html=1;verticalAlign=top;strokeColor=none;shape=mxgraph.citrix.laptop_2;fillColor=#66B2FF;gradientColor=#0066CC;fontSize=14;" parent="1" vertex="1">
          <mxGeometry x="350.4999999999999" y="927" width="116" height="86.5" as="geometry" />
        </mxCell>
        <mxCell id="6a7d8f32e03d9370-35" style="edgeStyle=none;rounded=0;html=1;startSize=10;endSize=10;jettySize=auto;orthogonalLoop=1;fontSize=14;endArrow=none;endFill=0;strokeWidth=2;" parent="1" source="6a7d8f32e03d9370-2" target="6a7d8f32e03d9370-9" edge="1">
          <mxGeometry relative="1" as="geometry" />
        </mxCell>
        <mxCell id="6a7d8f32e03d9370-2" value="Client" style="verticalLabelPosition=bottom;aspect=fixed;html=1;verticalAlign=top;strokeColor=none;shape=mxgraph.citrix.laptop_2;fillColor=#66B2FF;gradientColor=#0066CC;fontSize=14;" parent="1" vertex="1">
          <mxGeometry x="352.4999999999999" y="649" width="116" height="86.5" as="geometry" />
        </mxCell>
        <mxCell id="6a7d8f32e03d9370-34" style="edgeStyle=none;rounded=0;html=1;startSize=10;endSize=10;jettySize=auto;orthogonalLoop=1;fontSize=14;endArrow=none;endFill=0;strokeWidth=2;" parent="1" source="6a7d8f32e03d9370-3" target="6a7d8f32e03d9370-10" edge="1">
          <mxGeometry relative="1" as="geometry" />
        </mxCell>
        <mxCell id="6a7d8f32e03d9370-3" value="client" style="verticalLabelPosition=bottom;aspect=fixed;html=1;verticalAlign=top;strokeColor=none;shape=mxgraph.citrix.desktop;fillColor=#66B2FF;gradientColor=#0066CC;fontSize=14;" parent="1" vertex="1">
          <mxGeometry x="365.99999999999994" y="483.99999999999994" width="89" height="98" as="geometry" />
        </mxCell>
        <mxCell id="6a7d8f32e03d9370-33" style="edgeStyle=none;rounded=0;html=1;startSize=10;endSize=10;jettySize=auto;orthogonalLoop=1;fontSize=14;endArrow=none;endFill=0;strokeWidth=2;" parent="1" source="6a7d8f32e03d9370-4" target="6a7d8f32e03d9370-11" edge="1">
          <mxGeometry relative="1" as="geometry" />
        </mxCell>
        <mxCell id="6a7d8f32e03d9370-4" value="Client" style="verticalLabelPosition=bottom;aspect=fixed;html=1;verticalAlign=top;strokeColor=none;shape=mxgraph.citrix.desktop;fillColor=#66B2FF;gradientColor=#0066CC;fontSize=14;" parent="1" vertex="1">
          <mxGeometry x="365.99999999999994" y="320.00000000000006" width="89" height="98" as="geometry" />
        </mxCell>
        <mxCell id="6a7d8f32e03d9370-32" style="edgeStyle=none;rounded=0;html=1;startSize=10;endSize=10;jettySize=auto;orthogonalLoop=1;fontSize=14;endArrow=none;endFill=0;strokeWidth=2;" parent="1" source="6a7d8f32e03d9370-5" target="6a7d8f32e03d9370-12" edge="1">
          <mxGeometry relative="1" as="geometry" />
        </mxCell>
        <mxCell id="6a7d8f32e03d9370-5" value="Client" style="verticalLabelPosition=bottom;aspect=fixed;html=1;verticalAlign=top;strokeColor=none;shape=mxgraph.citrix.desktop;fillColor=#66B2FF;gradientColor=#0066CC;fontSize=14;" parent="1" vertex="1">
          <mxGeometry x="362.00000000000006" y="156.00000000000006" width="89" height="98" as="geometry" />
        </mxCell>
        <mxCell id="6a7d8f32e03d9370-37" style="edgeStyle=none;rounded=0;html=1;startSize=10;endSize=10;jettySize=auto;orthogonalLoop=1;fontSize=14;endArrow=none;endFill=0;strokeWidth=2;" parent="1" source="6a7d8f32e03d9370-6" target="6a7d8f32e03d9370-14" edge="1">
          <mxGeometry relative="1" as="geometry" />
        </mxCell>
        <mxCell id="6a7d8f32e03d9370-6" value="Client" style="verticalLabelPosition=bottom;aspect=fixed;html=1;verticalAlign=top;strokeColor=none;shape=mxgraph.citrix.pda;fillColor=#66B2FF;gradientColor=#0066CC;fontSize=14;" parent="1" vertex="1">
          <mxGeometry x="393.50000000000006" y="1065" width="30" height="61" as="geometry" />
        </mxCell>
        <mxCell id="6a7d8f32e03d9370-39" style="edgeStyle=none;rounded=0;html=1;startSize=10;endSize=10;jettySize=auto;orthogonalLoop=1;fontSize=14;endArrow=none;endFill=0;strokeWidth=2;" parent="1" source="6a7d8f32e03d9370-8" target="6a7d8f32e03d9370-21" edge="1">
          <mxGeometry relative="1" as="geometry">
            <mxPoint x="737" y="846" as="targetPoint" />
          </mxGeometry>
        </mxCell>
        <mxCell id="6a7d8f32e03d9370-8" value="" style="verticalLabelPosition=bottom;aspect=fixed;html=1;verticalAlign=top;strokeColor=none;shape=mxgraph.citrix.xenapp_server;fillColor=#66B2FF;gradientColor=#0066CC;fontSize=14;" parent="1" vertex="1">
          <mxGeometry x="636.9999999999999" y="813" width="76" height="89" as="geometry" />
        </mxCell>
        <mxCell id="6a7d8f32e03d9370-40" style="edgeStyle=none;rounded=0;html=1;startSize=10;endSize=10;jettySize=auto;orthogonalLoop=1;fontSize=14;endArrow=none;endFill=0;strokeWidth=2;" parent="1" source="6a7d8f32e03d9370-9" target="6a7d8f32e03d9370-20" edge="1">
          <mxGeometry relative="1" as="geometry" />
        </mxCell>
        <mxCell id="6a7d8f32e03d9370-9" value="" style="verticalLabelPosition=bottom;aspect=fixed;html=1;verticalAlign=top;strokeColor=none;shape=mxgraph.citrix.xenapp_server;fillColor=#66B2FF;gradientColor=#0066CC;fontSize=14;" parent="1" vertex="1">
          <mxGeometry x="637.0000000000001" y="649" width="76" height="89" as="geometry" />
        </mxCell>
        <mxCell id="6a7d8f32e03d9370-41" style="edgeStyle=none;rounded=0;html=1;startSize=10;endSize=10;jettySize=auto;orthogonalLoop=1;fontSize=14;endArrow=none;endFill=0;strokeWidth=2;" parent="1" source="6a7d8f32e03d9370-10" target="6a7d8f32e03d9370-19" edge="1">
          <mxGeometry relative="1" as="geometry" />
        </mxCell>
        <mxCell id="6a7d8f32e03d9370-10" value="" style="verticalLabelPosition=bottom;aspect=fixed;html=1;verticalAlign=top;strokeColor=none;shape=mxgraph.citrix.xenapp_server;fillColor=#66B2FF;gradientColor=#0066CC;fontSize=14;" parent="1" vertex="1">
          <mxGeometry x="636.9999999999999" y="484" width="76" height="89" as="geometry" />
        </mxCell>
        <mxCell id="6a7d8f32e03d9370-42" style="edgeStyle=none;rounded=0;html=1;startSize=10;endSize=10;jettySize=auto;orthogonalLoop=1;fontSize=14;endArrow=none;endFill=0;strokeWidth=2;" parent="1" source="6a7d8f32e03d9370-11" target="6a7d8f32e03d9370-18" edge="1">
          <mxGeometry relative="1" as="geometry" />
        </mxCell>
        <mxCell id="6a7d8f32e03d9370-11" value="" style="verticalLabelPosition=bottom;aspect=fixed;html=1;verticalAlign=top;strokeColor=none;shape=mxgraph.citrix.xenapp_server;fillColor=#66B2FF;gradientColor=#0066CC;fontSize=14;" parent="1" vertex="1">
          <mxGeometry x="636.9999999999999" y="320" width="76" height="89" as="geometry" />
        </mxCell>
        <mxCell id="6a7d8f32e03d9370-43" style="edgeStyle=none;rounded=0;html=1;startSize=10;endSize=10;jettySize=auto;orthogonalLoop=1;fontSize=14;endArrow=none;endFill=0;strokeWidth=2;" parent="1" source="6a7d8f32e03d9370-12" target="6a7d8f32e03d9370-17" edge="1">
          <mxGeometry relative="1" as="geometry" />
        </mxCell>
        <mxCell id="6a7d8f32e03d9370-12" value="" style="verticalLabelPosition=bottom;aspect=fixed;html=1;verticalAlign=top;strokeColor=none;shape=mxgraph.citrix.xenapp_server;fillColor=#66B2FF;gradientColor=#0066CC;fontSize=14;" parent="1" vertex="1">
          <mxGeometry x="637.0000000000001" y="156" width="76" height="89" as="geometry" />
        </mxCell>
        <mxCell id="6a7d8f32e03d9370-50" style="edgeStyle=none;rounded=0;html=1;startSize=10;endSize=10;jettySize=auto;orthogonalLoop=1;fontSize=14;endArrow=none;endFill=0;strokeWidth=2;" parent="1" source="6a7d8f32e03d9370-13" target="6a7d8f32e03d9370-16" edge="1">
          <mxGeometry relative="1" as="geometry" />
        </mxCell>
        <mxCell id="6a7d8f32e03d9370-51" style="edgeStyle=none;rounded=0;html=1;startSize=10;endSize=10;jettySize=auto;orthogonalLoop=1;fontSize=14;endArrow=none;endFill=0;strokeWidth=2;" parent="1" source="6a7d8f32e03d9370-13" target="6a7d8f32e03d9370-15" edge="1">
          <mxGeometry relative="1" as="geometry" />
        </mxCell>
        <mxCell id="6a7d8f32e03d9370-52" style="edgeStyle=none;rounded=0;html=1;startSize=10;endSize=10;jettySize=auto;orthogonalLoop=1;fontSize=14;endArrow=none;endFill=0;strokeWidth=2;" parent="1" source="6a7d8f32e03d9370-13" target="6a7d8f32e03d9370-26" edge="1">
          <mxGeometry relative="1" as="geometry" />
        </mxCell>
        <mxCell id="6a7d8f32e03d9370-56" style="edgeStyle=none;rounded=0;html=1;startSize=10;endSize=10;jettySize=auto;orthogonalLoop=1;fontSize=14;endArrow=none;endFill=0;strokeWidth=2;" parent="1" source="6a7d8f32e03d9370-13" target="6a7d8f32e03d9370-25" edge="1">
          <mxGeometry relative="1" as="geometry" />
        </mxCell>
        <mxCell id="6a7d8f32e03d9370-13" value="" style="verticalLabelPosition=bottom;aspect=fixed;html=1;verticalAlign=top;strokeColor=none;shape=mxgraph.citrix.router;fillColor=#66B2FF;gradientColor=#0066CC;fontSize=14;" parent="1" vertex="1">
          <mxGeometry x="973" y="587" width="55" height="36.5" as="geometry" />
        </mxCell>
        <mxCell id="6a7d8f32e03d9370-38" style="edgeStyle=none;rounded=0;html=1;startSize=10;endSize=10;jettySize=auto;orthogonalLoop=1;fontSize=14;endArrow=none;endFill=0;strokeWidth=2;" parent="1" source="6a7d8f32e03d9370-14" target="6a7d8f32e03d9370-8" edge="1">
          <mxGeometry relative="1" as="geometry" />
        </mxCell>
        <mxCell id="6a7d8f32e03d9370-14" value="" style="verticalLabelPosition=bottom;aspect=fixed;html=1;verticalAlign=top;strokeColor=none;shape=mxgraph.citrix.xenclient_synchronizer;fillColor=#CCCCCC;gradientColor=#000000;gradientDirection=south;fontSize=14;" parent="1" vertex="1">
          <mxGeometry x="636.9999999999999" y="976" width="76" height="91" as="geometry" />
        </mxCell>
        <mxCell id="6a7d8f32e03d9370-15" value="Web Server" style="verticalLabelPosition=top;aspect=fixed;html=1;verticalAlign=bottom;strokeColor=none;shape=mxgraph.citrix.cache_server;fillColor=#66B2FF;gradientColor=#0066CC;fontSize=14;labelPosition=center;align=center;" parent="1" vertex="1">
          <mxGeometry x="965" y="272" width="71" height="97.5" as="geometry" />
        </mxCell>
        <mxCell id="6a7d8f32e03d9370-16" value="DNS" style="verticalLabelPosition=bottom;aspect=fixed;html=1;verticalAlign=top;strokeColor=none;shape=mxgraph.citrix.chassis;fillColor=#66B2FF;gradientColor=#0066CC;fontSize=14;" parent="1" vertex="1">
          <mxGeometry x="1129" y="858" width="137.5" height="177.5" as="geometry" />
        </mxCell>
        <mxCell id="6a7d8f32e03d9370-44" style="edgeStyle=none;rounded=0;html=1;startSize=10;endSize=10;jettySize=auto;orthogonalLoop=1;fontSize=14;endArrow=none;endFill=0;strokeWidth=2;" parent="1" source="6a7d8f32e03d9370-17" target="6a7d8f32e03d9370-13" edge="1">
          <mxGeometry relative="1" as="geometry" />
        </mxCell>
        <mxCell id="6a7d8f32e03d9370-17" value="" style="verticalLabelPosition=bottom;aspect=fixed;html=1;verticalAlign=top;strokeColor=none;shape=mxgraph.citrix.firewall;fillColor=#66B2FF;gradientColor=#0066CC;fontSize=14;" parent="1" vertex="1">
          <mxGeometry x="759" y="156" width="75" height="93" as="geometry" />
        </mxCell>
        <mxCell id="6a7d8f32e03d9370-45" style="edgeStyle=none;rounded=0;html=1;startSize=10;endSize=10;jettySize=auto;orthogonalLoop=1;fontSize=14;endArrow=none;endFill=0;strokeWidth=2;" parent="1" source="6a7d8f32e03d9370-18" target="6a7d8f32e03d9370-13" edge="1">
          <mxGeometry relative="1" as="geometry" />
        </mxCell>
        <mxCell id="6a7d8f32e03d9370-18" value="" style="verticalLabelPosition=bottom;aspect=fixed;html=1;verticalAlign=top;strokeColor=none;shape=mxgraph.citrix.firewall;fillColor=#66B2FF;gradientColor=#0066CC;fontSize=14;" parent="1" vertex="1">
          <mxGeometry x="759" y="320" width="75" height="93" as="geometry" />
        </mxCell>
        <mxCell id="6a7d8f32e03d9370-46" style="edgeStyle=none;rounded=0;html=1;startSize=10;endSize=10;jettySize=auto;orthogonalLoop=1;fontSize=14;endArrow=none;endFill=0;strokeWidth=2;" parent="1" source="6a7d8f32e03d9370-19" target="6a7d8f32e03d9370-13" edge="1">
          <mxGeometry relative="1" as="geometry" />
        </mxCell>
        <mxCell id="6a7d8f32e03d9370-19" value="" style="verticalLabelPosition=bottom;aspect=fixed;html=1;verticalAlign=top;strokeColor=none;shape=mxgraph.citrix.firewall;fillColor=#66B2FF;gradientColor=#0066CC;fontSize=14;" parent="1" vertex="1">
          <mxGeometry x="759" y="484" width="75" height="93" as="geometry" />
        </mxCell>
        <mxCell id="6a7d8f32e03d9370-47" style="edgeStyle=none;rounded=0;html=1;startSize=10;endSize=10;jettySize=auto;orthogonalLoop=1;fontSize=14;endArrow=none;endFill=0;strokeWidth=2;" parent="1" source="6a7d8f32e03d9370-20" target="6a7d8f32e03d9370-13" edge="1">
          <mxGeometry relative="1" as="geometry" />
        </mxCell>
        <mxCell id="6a7d8f32e03d9370-20" value="" style="verticalLabelPosition=bottom;aspect=fixed;html=1;verticalAlign=top;strokeColor=none;shape=mxgraph.citrix.firewall;fillColor=#66B2FF;gradientColor=#0066CC;fontSize=14;" parent="1" vertex="1">
          <mxGeometry x="759" y="649" width="75" height="93" as="geometry" />
        </mxCell>
        <mxCell id="6a7d8f32e03d9370-48" style="edgeStyle=none;rounded=0;html=1;startSize=10;endSize=10;jettySize=auto;orthogonalLoop=1;fontSize=14;endArrow=none;endFill=0;strokeWidth=2;" parent="1" source="6a7d8f32e03d9370-21" target="6a7d8f32e03d9370-13" edge="1">
          <mxGeometry relative="1" as="geometry" />
        </mxCell>
        <mxCell id="6a7d8f32e03d9370-21" value="" style="verticalLabelPosition=bottom;aspect=fixed;html=1;verticalAlign=top;strokeColor=none;shape=mxgraph.citrix.firewall;fillColor=#66B2FF;gradientColor=#0066CC;fontSize=14;" parent="1" vertex="1">
          <mxGeometry x="759" y="813" width="75" height="93" as="geometry" />
        </mxCell>
        <mxCell id="6a7d8f32e03d9370-23" value="" style="verticalLabelPosition=bottom;aspect=fixed;html=1;verticalAlign=top;strokeColor=none;shape=mxgraph.citrix.home_office;fillColor=#66B2FF;gradientColor=#0066CC;fontSize=14;" parent="1" vertex="1">
          <mxGeometry x="207" y="955" width="80" height="55.5" as="geometry" />
        </mxCell>
        <mxCell id="6a7d8f32e03d9370-24" value="" style="verticalLabelPosition=bottom;aspect=fixed;html=1;verticalAlign=top;strokeColor=none;shape=mxgraph.citrix.hq_enterprise;fillColor=#66B2FF;gradientColor=#0066CC;fontSize=14;" parent="1" vertex="1">
          <mxGeometry x="227" y="252" width="92" height="88" as="geometry" />
        </mxCell>
        <mxCell id="UXf9KYadFuIa2SEW5hK5-1" value="" style="edgeStyle=orthogonalEdgeStyle;rounded=0;orthogonalLoop=1;jettySize=auto;html=1;" parent="1" source="6a7d8f32e03d9370-25" target="6a7d8f32e03d9370-31" edge="1">
          <mxGeometry relative="1" as="geometry" />
        </mxCell>
        <mxCell id="6a7d8f32e03d9370-25" value="Secure Server" style="verticalLabelPosition=bottom;aspect=fixed;html=1;verticalAlign=top;strokeColor=none;shape=mxgraph.citrix.proxy_server;fillColor=#66B2FF;gradientColor=#0066CC;fontSize=14;" parent="1" vertex="1">
          <mxGeometry x="1409" y="800" width="76.5" height="90" as="geometry" />
        </mxCell>
        <mxCell id="6a7d8f32e03d9370-53" style="edgeStyle=none;rounded=0;html=1;startSize=10;endSize=10;jettySize=auto;orthogonalLoop=1;fontSize=14;endArrow=none;endFill=0;strokeWidth=2;" parent="1" source="6a7d8f32e03d9370-26" target="6a7d8f32e03d9370-29" edge="1">
          <mxGeometry relative="1" as="geometry" />
        </mxCell>
        <mxCell id="6a7d8f32e03d9370-54" style="edgeStyle=none;rounded=0;html=1;startSize=10;endSize=10;jettySize=auto;orthogonalLoop=1;fontSize=14;endArrow=none;endFill=0;strokeWidth=2;" parent="1" source="6a7d8f32e03d9370-26" target="6a7d8f32e03d9370-28" edge="1">
          <mxGeometry relative="1" as="geometry" />
        </mxCell>
        <mxCell id="6a7d8f32e03d9370-55" style="edgeStyle=none;rounded=0;html=1;startSize=10;endSize=10;jettySize=auto;orthogonalLoop=1;fontSize=14;endArrow=none;endFill=0;strokeWidth=2;" parent="1" source="6a7d8f32e03d9370-26" target="6a7d8f32e03d9370-27" edge="1">
          <mxGeometry relative="1" as="geometry" />
        </mxCell>
        <mxCell id="6a7d8f32e03d9370-26" value="" style="verticalLabelPosition=bottom;aspect=fixed;html=1;verticalAlign=top;strokeColor=none;shape=mxgraph.citrix.switch;fillColor=#66B2FF;gradientColor=#0066CC;fontSize=14;" parent="1" vertex="1">
          <mxGeometry x="1175" y="508" width="92" height="41.5" as="geometry" />
        </mxCell>
        <mxCell id="6a7d8f32e03d9370-27" value="Client" style="verticalLabelPosition=top;aspect=fixed;html=1;verticalAlign=bottom;strokeColor=none;shape=mxgraph.citrix.thin_client;fillColor=#66B2FF;gradientColor=#0066CC;fontSize=14;labelPosition=center;align=center;" parent="1" vertex="1">
          <mxGeometry x="1437" y="498" width="71" height="71" as="geometry" />
        </mxCell>
        <mxCell id="6a7d8f32e03d9370-28" value="Client" style="verticalLabelPosition=top;aspect=fixed;html=1;verticalAlign=bottom;strokeColor=none;shape=mxgraph.citrix.thin_client;fillColor=#66B2FF;gradientColor=#0066CC;fontSize=14;labelPosition=center;align=center;" parent="1" vertex="1">
          <mxGeometry x="1359" y="374" width="71" height="71" as="geometry" />
        </mxCell>
        <mxCell id="6a7d8f32e03d9370-29" value="Client" style="verticalLabelPosition=top;aspect=fixed;html=1;verticalAlign=bottom;strokeColor=none;shape=mxgraph.citrix.thin_client;fillColor=#66B2FF;gradientColor=#0066CC;fontSize=14;labelPosition=center;align=center;" parent="1" vertex="1">
          <mxGeometry x="1203" y="338" width="71" height="71" as="geometry" />
        </mxCell>
        <mxCell id="6a7d8f32e03d9370-49" style="edgeStyle=none;rounded=0;html=1;startSize=10;endSize=10;jettySize=auto;orthogonalLoop=1;fontSize=14;endArrow=none;endFill=0;strokeWidth=2;" parent="1" source="6a7d8f32e03d9370-30" target="6a7d8f32e03d9370-13" edge="1">
          <mxGeometry relative="1" as="geometry" />
        </mxCell>
        <mxCell id="6a7d8f32e03d9370-30" value="Web App to extract Text From Images" style="verticalLabelPosition=bottom;aspect=fixed;html=1;verticalAlign=top;strokeColor=none;shape=mxgraph.citrix.web_service;fillColor=#66B2FF;gradientColor=#0066CC;fontSize=14;" parent="1" vertex="1">
          <mxGeometry x="1036" y="1013.5" width="63" height="60" as="geometry" />
        </mxCell>
        <mxCell id="6a7d8f32e03d9370-31" value="" style="verticalLabelPosition=bottom;aspect=fixed;html=1;verticalAlign=top;strokeColor=none;shape=mxgraph.citrix.site;fillColor=#66B2FF;gradientColor=#0066CC;fontSize=14;" parent="1" vertex="1">
          <mxGeometry x="1409" y="995" width="107" height="101" as="geometry" />
        </mxCell>
        <mxCell id="6a7d8f32e03d9370-62" value="&amp;nbsp;Architecture" style="text;strokeColor=none;fillColor=none;html=1;fontSize=24;fontStyle=1;verticalAlign=middle;align=center;" parent="1" vertex="1">
          <mxGeometry x="490" y="30" width="861" height="40" as="geometry" />
        </mxCell>
        <mxCell id="UXf9KYadFuIa2SEW5hK5-3" value="" style="image;html=1;image=img/lib/clip_art/people/Doctor_Man_128x128.png" parent="1" vertex="1">
          <mxGeometry x="227" y="577" width="80" height="80" as="geometry" />
        </mxCell>
        <mxCell id="UXf9KYadFuIa2SEW5hK5-4" value="" style="image;html=1;image=img/lib/clip_art/people/Doctor_Woman_Black_128x128.png" parent="1" vertex="1">
          <mxGeometry x="1291" y="565" width="80" height="80" as="geometry" />
        </mxCell>
        <mxCell id="UXf9KYadFuIa2SEW5hK5-6" value="" style="image;html=1;image=img/lib/clip_art/people/Doctor_Man_Black_128x128.png" parent="1" vertex="1">
          <mxGeometry x="233" y="1056" width="80" height="80" as="geometry" />
        </mxCell>
      </root>
    </mxGraphModel>
  </diagram>
  <diagram id="25SoI6Co_LOljs2H9s2y" name="Page-2">
    <mxGraphModel dx="1426" dy="785" grid="1" gridSize="10" guides="1" tooltips="1" connect="1" arrows="1" fold="1" page="1" pageScale="1" pageWidth="850" pageHeight="1100" math="0" shadow="0">
      <root>
        <mxCell id="0" />
        <mxCell id="1" parent="0" />
        <mxCell id="0Ux9GVn-ov_4Ar4HHDsC-1" value="" style="html=1;shadow=0;dashed=0;shape=mxgraph.bootstrap.rect;fillColor=#222222;strokeColor=none;whiteSpace=wrap;rounded=0;fontSize=12;fontColor=#000000;align=center;" parent="1" vertex="1">
          <mxGeometry x="40" y="70" width="1150" height="40" as="geometry" />
        </mxCell>
        <mxCell id="0Ux9GVn-ov_4Ar4HHDsC-2" value="Company" style="html=1;shadow=0;dashed=0;fillColor=none;strokeColor=none;shape=mxgraph.bootstrap.rect;fontColor=#999999;fontSize=14;whiteSpace=wrap;" parent="0Ux9GVn-ov_4Ar4HHDsC-1" vertex="1">
          <mxGeometry width="115" height="40" as="geometry" />
        </mxCell>
        <mxCell id="0Ux9GVn-ov_4Ar4HHDsC-7" value="Statistics" style="html=1;shadow=0;dashed=0;fillColor=none;strokeColor=none;shape=mxgraph.bootstrap.rect;fontColor=#999999;whiteSpace=wrap;" parent="0Ux9GVn-ov_4Ar4HHDsC-1" vertex="1">
          <mxGeometry x="402.5" width="115" height="40" as="geometry" />
        </mxCell>
        <mxCell id="0Ux9GVn-ov_4Ar4HHDsC-8" value="Settings" style="html=1;shadow=0;dashed=0;fillColor=none;strokeColor=none;shape=mxgraph.bootstrap.rect;fontColor=#999999;whiteSpace=wrap;" parent="0Ux9GVn-ov_4Ar4HHDsC-1" vertex="1">
          <mxGeometry x="517.5" width="100.625" height="40" as="geometry" />
        </mxCell>
        <mxCell id="0Ux9GVn-ov_4Ar4HHDsC-9" value="Profile" style="html=1;shadow=0;dashed=0;fillColor=none;strokeColor=none;shape=mxgraph.bootstrap.rect;fontColor=#999999;whiteSpace=wrap;" parent="0Ux9GVn-ov_4Ar4HHDsC-1" vertex="1">
          <mxGeometry x="948.75" width="100.625" height="40" as="geometry" />
        </mxCell>
        <mxCell id="0Ux9GVn-ov_4Ar4HHDsC-10" value="Log Out" style="html=1;shadow=0;dashed=0;fillColor=none;strokeColor=none;shape=mxgraph.bootstrap.rect;fontColor=#999999;whiteSpace=wrap;" parent="0Ux9GVn-ov_4Ar4HHDsC-1" vertex="1">
          <mxGeometry x="1049.375" width="100.625" height="40" as="geometry" />
        </mxCell>
        <mxCell id="0Ux9GVn-ov_4Ar4HHDsC-11" value="" style="html=1;shadow=0;dashed=0;shape=mxgraph.bootstrap.rrect;rSize=5;strokeColor=#dddddd;rounded=0;fontSize=12;align=center;" parent="1" vertex="1">
          <mxGeometry x="860" y="150" width="330" height="400" as="geometry" />
        </mxCell>
        <mxCell id="0Ux9GVn-ov_4Ar4HHDsC-12" value="320x200" style="shape=rect;fontSize=24;fillColor=#f0f0f0;strokeColor=none;fontColor=#999999;whiteSpace=wrap;" parent="0Ux9GVn-ov_4Ar4HHDsC-11" vertex="1">
          <mxGeometry x="5" y="5" width="320" height="200" as="geometry" />
        </mxCell>
        <mxCell id="0Ux9GVn-ov_4Ar4HHDsC-13" value="Thumbnail label" style="html=1;shadow=0;dashed=0;shape=mxgraph.bootstrap.anchor;fontSize=26;align=left;whiteSpace=wrap;" parent="0Ux9GVn-ov_4Ar4HHDsC-11" vertex="1">
          <mxGeometry x="15" y="220" width="300" height="40" as="geometry" />
        </mxCell>
        <mxCell id="0Ux9GVn-ov_4Ar4HHDsC-14" value="" style="html=1;shadow=0;dashed=0;shape=mxgraph.bootstrap.anchor;strokeColor=#dddddd;whiteSpace=wrap;align=left;verticalAlign=top;fontSize=14;whiteSpace=wrap;" parent="0Ux9GVn-ov_4Ar4HHDsC-11" vertex="1">
          <mxGeometry x="15" y="260" width="300" height="80" as="geometry" />
        </mxCell>
        <mxCell id="0Ux9GVn-ov_4Ar4HHDsC-15" value="Load Image" style="html=1;shadow=0;dashed=0;shape=mxgraph.bootstrap.rrect;rSize=5;fontSize=16;fillColor=#3D8BCD;strokeColor=none;fontColor=#ffffff;whiteSpace=wrap;" parent="0Ux9GVn-ov_4Ar4HHDsC-11" vertex="1">
          <mxGeometry y="1" width="80" height="40" relative="1" as="geometry">
            <mxPoint x="15" y="-60" as="offset" />
          </mxGeometry>
        </mxCell>
        <mxCell id="0Ux9GVn-ov_4Ar4HHDsC-16" value="Cancel" style="html=1;shadow=0;dashed=0;shape=mxgraph.bootstrap.rrect;rSize=5;fontSize=16;strokeColor=#dddddd;whiteSpace=wrap;" parent="0Ux9GVn-ov_4Ar4HHDsC-11" vertex="1">
          <mxGeometry y="1" width="80" height="40" relative="1" as="geometry">
            <mxPoint x="100" y="-60" as="offset" />
          </mxGeometry>
        </mxCell>
        <mxCell id="0Ux9GVn-ov_4Ar4HHDsC-17" value="Summarize" style="html=1;shadow=0;dashed=0;shape=mxgraph.bootstrap.rect;strokeColor=none;fillColor=none;fontColor=#999999;align=left;spacingLeft=5;whiteSpace=wrap;rounded=0;" parent="1" vertex="1">
          <mxGeometry x="40" y="130" width="200" height="20" as="geometry" />
        </mxCell>
        <mxCell id="0Ux9GVn-ov_4Ar4HHDsC-18" value="" style="html=1;shadow=0;dashed=0;shape=mxgraph.bootstrap.rrect;rSize=5;strokeColor=#dddddd;;align=left;spacingLeft=10;fontSize=16;whiteSpace=wrap;rounded=0;" parent="1" vertex="1">
          <mxGeometry x="40" y="150" width="800" height="80" as="geometry" />
        </mxCell>
        <mxCell id="0Ux9GVn-ov_4Ar4HHDsC-19" value="URL" style="html=1;shadow=0;dashed=0;shape=mxgraph.bootstrap.rect;strokeColor=none;fillColor=none;fontColor=#999999;align=left;spacingLeft=5;whiteSpace=wrap;rounded=0;" parent="1" vertex="1">
          <mxGeometry x="40" y="250" width="200" height="20" as="geometry" />
        </mxCell>
        <mxCell id="0Ux9GVn-ov_4Ar4HHDsC-20" value="" style="html=1;shadow=0;dashed=0;shape=mxgraph.bootstrap.rrect;rSize=5;strokeColor=#dddddd;align=left;spacingLeft=10;fontSize=16;whiteSpace=wrap;rounded=0;" parent="1" vertex="1">
          <mxGeometry x="40" y="290" width="800" height="40" as="geometry" />
        </mxCell>
        <mxCell id="0Ux9GVn-ov_4Ar4HHDsC-23" value="OCR" style="html=1;shadow=0;dashed=0;shape=mxgraph.bootstrap.rect;strokeColor=none;fillColor=none;fontColor=#999999;align=left;spacingLeft=5;whiteSpace=wrap;rounded=0;" parent="1" vertex="1">
          <mxGeometry x="40" y="340" width="200" height="20" as="geometry" />
        </mxCell>
        <mxCell id="0Ux9GVn-ov_4Ar4HHDsC-24" value="" style="html=1;shadow=0;dashed=0;shape=mxgraph.bootstrap.rrect;rSize=5;fontSize=12;strokeColor=#dddddd;align=left;spacing=10;verticalAlign=top;whiteSpace=wrap;rounded=0;" parent="1" vertex="1">
          <mxGeometry x="40" y="390" width="800" height="160" as="geometry" />
        </mxCell>
        <mxCell id="N2OwBPOsCDiweiWGYv_e-1" value="Translation" style="html=1;shadow=0;dashed=0;shape=mxgraph.bootstrap.rect;strokeColor=none;fillColor=none;fontColor=#999999;align=left;spacingLeft=5;whiteSpace=wrap;rounded=0;" parent="1" vertex="1">
          <mxGeometry x="50" y="560" width="200" height="20" as="geometry" />
        </mxCell>
        <mxCell id="N2OwBPOsCDiweiWGYv_e-2" value="" style="html=1;shadow=0;dashed=0;shape=mxgraph.bootstrap.rrect;rSize=5;fontSize=12;strokeColor=#dddddd;align=left;spacing=10;verticalAlign=top;whiteSpace=wrap;rounded=0;" parent="1" vertex="1">
          <mxGeometry x="40" y="580" width="800" height="240" as="geometry" />
        </mxCell>
      </root>
    </mxGraphModel>
  </diagram>
  <diagram id="dnpfEThPBJZ_2Tay5kbc" name="Page-3">
    <mxGraphModel dx="1426" dy="785" grid="1" gridSize="10" guides="1" tooltips="1" connect="1" arrows="1" fold="1" page="1" pageScale="1" pageWidth="850" pageHeight="1100" math="0" shadow="0">
      <root>
        <mxCell id="0" />
        <mxCell id="1" parent="0" />
        <mxCell id="dTmVIMEWUVpuAIGnwf4b-1" value="" style="html=1;shadow=0;dashed=0;shape=mxgraph.bootstrap.rect;fillColor=#222222;strokeColor=none;whiteSpace=wrap;rounded=0;fontSize=12;fontColor=#000000;align=center;" parent="1" vertex="1">
          <mxGeometry x="40" y="70" width="1150" height="40" as="geometry" />
        </mxCell>
        <mxCell id="dTmVIMEWUVpuAIGnwf4b-2" value="Company" style="html=1;shadow=0;dashed=0;fillColor=none;strokeColor=none;shape=mxgraph.bootstrap.rect;fontColor=#999999;fontSize=14;whiteSpace=wrap;" parent="dTmVIMEWUVpuAIGnwf4b-1" vertex="1">
          <mxGeometry width="115" height="40" as="geometry" />
        </mxCell>
        <mxCell id="dTmVIMEWUVpuAIGnwf4b-3" value="Statistics" style="html=1;shadow=0;dashed=0;fillColor=none;strokeColor=none;shape=mxgraph.bootstrap.rect;fontColor=#999999;whiteSpace=wrap;" parent="dTmVIMEWUVpuAIGnwf4b-1" vertex="1">
          <mxGeometry x="402.5" width="115" height="40" as="geometry" />
        </mxCell>
        <mxCell id="dTmVIMEWUVpuAIGnwf4b-4" value="Settings" style="html=1;shadow=0;dashed=0;fillColor=none;strokeColor=none;shape=mxgraph.bootstrap.rect;fontColor=#999999;whiteSpace=wrap;" parent="dTmVIMEWUVpuAIGnwf4b-1" vertex="1">
          <mxGeometry x="517.5" width="100.625" height="40" as="geometry" />
        </mxCell>
        <mxCell id="dTmVIMEWUVpuAIGnwf4b-5" value="Profile" style="html=1;shadow=0;dashed=0;fillColor=none;strokeColor=none;shape=mxgraph.bootstrap.rect;fontColor=#999999;whiteSpace=wrap;" parent="dTmVIMEWUVpuAIGnwf4b-1" vertex="1">
          <mxGeometry x="948.75" width="100.625" height="40" as="geometry" />
        </mxCell>
        <mxCell id="dTmVIMEWUVpuAIGnwf4b-6" value="Log Out" style="html=1;shadow=0;dashed=0;fillColor=none;strokeColor=none;shape=mxgraph.bootstrap.rect;fontColor=#999999;whiteSpace=wrap;" parent="dTmVIMEWUVpuAIGnwf4b-1" vertex="1">
          <mxGeometry x="1049.375" width="100.625" height="40" as="geometry" />
        </mxCell>
        <mxCell id="dTmVIMEWUVpuAIGnwf4b-13" value="Login" style="html=1;shadow=0;dashed=0;shape=mxgraph.bootstrap.rect;strokeColor=none;fillColor=none;fontColor=#999999;align=left;spacingLeft=5;whiteSpace=wrap;rounded=0;" parent="1" vertex="1">
          <mxGeometry x="422.5" y="200" width="200" height="20" as="geometry" />
        </mxCell>
        <mxCell id="dTmVIMEWUVpuAIGnwf4b-14" value="" style="html=1;shadow=0;dashed=0;shape=mxgraph.bootstrap.rrect;rSize=5;strokeColor=#dddddd;;align=left;spacingLeft=10;fontSize=16;whiteSpace=wrap;rounded=0;" parent="1" vertex="1">
          <mxGeometry x="422.5" y="220" width="385" height="40" as="geometry" />
        </mxCell>
        <mxCell id="dTmVIMEWUVpuAIGnwf4b-15" value="Password" style="html=1;shadow=0;dashed=0;shape=mxgraph.bootstrap.rect;strokeColor=none;fillColor=none;fontColor=#999999;align=left;spacingLeft=5;whiteSpace=wrap;rounded=0;" parent="1" vertex="1">
          <mxGeometry x="425" y="290" width="200" height="20" as="geometry" />
        </mxCell>
        <mxCell id="dTmVIMEWUVpuAIGnwf4b-16" value="" style="html=1;shadow=0;dashed=0;shape=mxgraph.bootstrap.rrect;rSize=5;strokeColor=#dddddd;align=left;spacingLeft=10;fontSize=16;whiteSpace=wrap;rounded=0;" parent="1" vertex="1">
          <mxGeometry x="425" y="330" width="385" height="40" as="geometry" />
        </mxCell>
        <mxCell id="dTmVIMEWUVpuAIGnwf4b-21" value="Login" style="html=1;shadow=0;dashed=0;shape=mxgraph.bootstrap.rrect;rSize=5;fontSize=16;fillColor=#3D8BCD;strokeColor=none;fontColor=#ffffff;whiteSpace=wrap;" parent="1" vertex="1">
          <mxGeometry x="500" y="450" width="80" height="30" as="geometry" />
        </mxCell>
        <mxCell id="dTmVIMEWUVpuAIGnwf4b-22" value="Cancel" style="html=1;shadow=0;dashed=0;shape=mxgraph.bootstrap.rrect;rSize=5;fontSize=16;strokeColor=#dddddd;whiteSpace=wrap;" parent="1" vertex="1">
          <mxGeometry x="685" y="450" width="80" height="30" as="geometry" />
        </mxCell>
      </root>
    </mxGraphModel>
  </diagram>
  <diagram id="CvaMWUQjYdIqvDYYK-Mh" name="Page-4">
    <mxGraphModel dx="1426" dy="785" grid="1" gridSize="10" guides="1" tooltips="1" connect="1" arrows="1" fold="1" page="1" pageScale="1" pageWidth="850" pageHeight="1100" math="0" shadow="0">
      <root>
        <mxCell id="0" />
        <mxCell id="1" parent="0" />
        <mxCell id="3BpDXmZf01toWzJNrWnX-1" value="" style="html=1;shadow=0;dashed=0;shape=mxgraph.bootstrap.rect;fillColor=#222222;strokeColor=none;whiteSpace=wrap;rounded=0;fontSize=12;fontColor=#000000;align=center;" vertex="1" parent="1">
          <mxGeometry x="40" y="70" width="1150" height="40" as="geometry" />
        </mxCell>
        <mxCell id="3BpDXmZf01toWzJNrWnX-2" value="Company" style="html=1;shadow=0;dashed=0;fillColor=none;strokeColor=none;shape=mxgraph.bootstrap.rect;fontColor=#999999;fontSize=14;whiteSpace=wrap;" vertex="1" parent="3BpDXmZf01toWzJNrWnX-1">
          <mxGeometry width="115" height="40" as="geometry" />
        </mxCell>
        <mxCell id="3BpDXmZf01toWzJNrWnX-3" value="Statistics" style="html=1;shadow=0;dashed=0;fillColor=none;strokeColor=none;shape=mxgraph.bootstrap.rect;fontColor=#999999;whiteSpace=wrap;" vertex="1" parent="3BpDXmZf01toWzJNrWnX-1">
          <mxGeometry x="402.5" width="115" height="40" as="geometry" />
        </mxCell>
        <mxCell id="3BpDXmZf01toWzJNrWnX-4" value="Settings" style="html=1;shadow=0;dashed=0;fillColor=none;strokeColor=none;shape=mxgraph.bootstrap.rect;fontColor=#999999;whiteSpace=wrap;" vertex="1" parent="3BpDXmZf01toWzJNrWnX-1">
          <mxGeometry x="517.5" width="100.625" height="40" as="geometry" />
        </mxCell>
        <mxCell id="3BpDXmZf01toWzJNrWnX-5" value="Profile" style="html=1;shadow=0;dashed=0;fillColor=none;strokeColor=none;shape=mxgraph.bootstrap.rect;fontColor=#999999;whiteSpace=wrap;" vertex="1" parent="3BpDXmZf01toWzJNrWnX-1">
          <mxGeometry x="948.75" width="100.625" height="40" as="geometry" />
        </mxCell>
        <mxCell id="3BpDXmZf01toWzJNrWnX-6" value="Log Out" style="html=1;shadow=0;dashed=0;fillColor=none;strokeColor=none;shape=mxgraph.bootstrap.rect;fontColor=#999999;whiteSpace=wrap;" vertex="1" parent="3BpDXmZf01toWzJNrWnX-1">
          <mxGeometry x="1049.375" width="100.625" height="40" as="geometry" />
        </mxCell>
        <mxCell id="taRy0MQ2hrJPOKnWIBZ9-13" value="Initial Date:" style="strokeColor=none;fillColor=none;fontColor=#777777;whiteSpace=wrap;align=left;verticalAlign=middle;fontStyle=0;fontSize=14;" vertex="1" parent="1">
          <mxGeometry x="710" y="130" width="80" height="40" as="geometry" />
        </mxCell>
        <mxCell id="taRy0MQ2hrJPOKnWIBZ9-27" value="End Date:" style="strokeColor=none;fillColor=none;fontColor=#777777;whiteSpace=wrap;align=left;verticalAlign=middle;fontStyle=0;fontSize=14;" vertex="1" parent="1">
          <mxGeometry x="910" y="130" width="80" height="40" as="geometry" />
        </mxCell>
        <mxCell id="GRdJn9pDozvjfMk0XIZr-1" value="" style="shape=image;verticalLabelPosition=bottom;labelBackgroundColor=default;verticalAlign=top;aspect=fixed;imageAspect=0;image=data:image/png,iVBORw0KGgoAAAANSUhEUgAAAKUAAACFCAYAAAA6hzjsAAAAAXNSR0IArs4c6QAAAARnQU1BAACxjwv8YQUAAAAJcEhZcwAADsMAAA7DAcdvqGQAAABhaVRYdFNuaXBNZXRhZGF0YQAAAAAAeyJjbGlwUG9pbnRzIjpbeyJ4IjowLCJ5IjowfSx7IngiOjE2NSwieSI6MH0seyJ4IjoxNjUsInkiOjEzM30seyJ4IjowLCJ5IjoxMzN9XX2GuYHZAAAtK0lEQVR4Xu2daZBlR3Xnz733vVdrd1WvUmttCSSh3YAkEItxQLDYgA0BtgEbG+OxGY8JcEzYHxzzwRPhiLFjmJhw2B9sR2AHZrGNzWbGmFUMBo0EEmhBm4UQSKBWa+vu2ustd5n/7+S7Va+qXi3dkujXXfdfffremzdvZp6T/zyZeZd8UZ7nhVWoMECIu9sKFQYGFSkrDBwqUlYYOFSkrDBwqCY6myLqbk8UlXmPFxUpN4Jb5mmSMqrMe7youu8KA4fKU/agKAqLomXPKNt42Fr0856ErY1LcnEce1psV+dRYS0qUvagl4CBQKmlWacbcmIocohZs1qt5mSEnBUpN0ZFylWAmGmadsmT29DQ0yNQUST6v+7pkmaScFxhI1Sk7AFkxEMiIMub2m/7fn9sRNhg1iyLFWvEyUj6eMwKG2NbkzIoLo/oB1HovqOOzbefsm/f9VXr2KxI5JF6sB4RCV9rylq+w6698tXWqO1UVz5kcSSSxsTLJHjNp+eJT0dsW1K60uKDOlWLNfCLCiYjOo6bNtN6yL70zY9ZkUxbJ0s9/kr0I1J/Uo4U++yNr3i3JdFu8XBCHlOBkQiJFDAer7wtq2BdVLeE+qDgT16zEFnjpOgjhK+WrE+YyB6L6RWOCxUp+4BenElJnmeiZ2uVtFdJZ5WsPk83XeF4UJGyL0J3CqG4e7NSuM/YK2GWviyrz3tSFY4DFSn7gPuIvbPwCj9ZVFbfEOuZB/e3Woi7OqzCiaAi5aZgurxaMNtWRHGLipzHCyx3GuMZmPnyRGZLIlP2C9/MYz5jd4PQtVdOXQwuKfEw/eS40K+SetPrBm0ETV6elmwlk179emXLUB7lvU/Ps5QSx5PWyceAkhIjp6ukE8S4mb1VwVOhIkLFdCtn0OpoiVAq8wnpqmuXPDW6lnqXeMbc8U8EvSUfIEDKtqS1XEFeaYT3Stcb9RWSoaK04xKSXYJf390/mfByoGtT0qsrOnCulNX6lXEQnV8aLlClvYrpvIvinCIYUFICDIuR2UKurhfg0ZxLtxLWlT4vPnhdUTmDVkFUQ0mmUtcePVYcrxNeEnGp20fHLhkh7ikELDGAoGKGXbK0bkXeUFhdQkVwrqw4jteTsnIEdv2wsCyTh9G2yOn2BgAqZ5HXLU8blmcN6StdKb/rio5b0VXne72qyNhuN/3GfV5kS49MTxUMKCll5zxSJalqksT5FB77SYq0K+xvJIpji0EKpCVCtv0pi1KXDI7qeRapXLHrzAsbeffdy2VdM8lq/XqlI1nokbY1GomIGAjJm0ndVnlKYGBJGatyEpyABvLtdF4OBZmR45iWTEmO6Vj7S6KwXokVN5qV6DprSlr+Gloch7e/4wF62RbiwRsaTprRkOa6ZUdfdFmlm+vXe0xcrkEWXdc0Z8tj0rKbOHVIOaCvruXWSRetVo9tbk5Gt7bV6cGXJgIqcu84qi90zrtw1XYRusQir9nI8IRfG0XyJEqn36tr060f2pdu/pjlyVEdP71ufjjbb294+W9v+OpaITIy7mu1521ufsrGxjVUcT2Vt8fDd2zkP6hC9EXXMMyZn2vbnt1nWKddWKOuoZCPz08NDCgpIV1mreIJ+/otn7VjC4/IpryxQ1ckr+Jv3lABG5FSlS3RiE2EEwmzcbv++a+3/bsvUtiwzug89XiySal86Q1yefSjcw/bN275nOXxrIovolL2nPNcs3E1RYxNywlNPmojjbPt1S99qzWiCR8WQMpT5dugjZrfSQTGU9HizDo2Ze34iLUTSe2o9qetJWmr+2onG4niujxpnfgp66iby9W1hZnoYLXDWJ7NOSfvmGrY0VZ52/FRL3NHuqbo21fHZUk1nEkTXSd929p2jCFN3m100aBWdF+cSmWtsE1QkbLCwGEbkFJDAUYDp8ZwqoJwWpMyvKir8VSkrd+rq3AqoKqpCgOHipQVBg7bhJSDdQtoLcryhdfQwn1Y9sN9R+7PcmtnPSFGpqrMu6+scc9VQUqHc9znTCSnzqD69CYlT0So3KXn3QCVEVXSQHE1dxIl1tE2VQk5Bjx50pF0WCHx8n6miGlc01UNJTNkcZFYreh009L13Dzf8EHDYGGbeMo+cEIOSEVBmnxUbWdcBNqh/XF/AhXlw9o2LM5EtGxkpaQ9+3ldE7lFl4h3UI3Hlm1pxz5h7jZPGWxfUg4SWEUjbsrjdeTQ1FWLQFmcaZuKUG2dCyRzYcGtXnHydVSRCF2/sPQ4kWGAvKU/mh2obmFDVKQ82eCxZzyj7nhKpGxaO8kkUVdy69TaliYdyxTuIrKuEA8T/fJJy7LdluZ7JLstKyY1ABhVBjxfP4XcpFCR8qRD05qcF0cmrF3stqPze2w+u9BmOxfaTOegTbXOtZnW+TbTvkBy0Ka1P9U836ZL0fG0wmeaitc8T3HPsdnWWTa1uNvaJpKq689TxpXd7E4BDO6qa7JiKzpkN3zzY3a0+bAaPN2ZWhEL/Xg3Revf2ANEmoxGhSYNRcOizi57ydVvtjN3X6UwjcN4O0eXF5HmrSf5LSFehm8r/IGn5uwj/+fz1lIk+UfL2k3LO22d74hcma9vmaYdyzMVVF00b5PzbqgvxMU6R9IHx1vTGPWMnZP2J7//X21Ex0lL82/e3jtFXFDlKU8yvInpP2bQTc2aZzr7bcYO2mx0qS2OvMCynddZuvNaS8dfaPnEtRbtut7iPS+xbMc11hl7obVGnm/Nkau1vcJaw5dKLpacZwvRpM0r7VRj1LjB2PLUcZVbJGW4U1b+BVM+U3KyEcqxpiTdgGWt+/+V168RPLp79V50j7tRHMyM63MiT27tem7NoUVrD2vOPBTbnMaVUyLrfCI/OFyzzkjD0rEhy8aHrbZnwup7J62xb5cN7dtn0eT5ZjsvkJxryY4DVp/Y6/3IQsaEqCkv2gn5PesoleuV48MaUnKTNSRDX+YB6jrUhfBuX/SINaOHpeBTm8jjkie78pTl2ubREclRa2aPazurhNUNdT/eottcBgfI8StzvKCri0ScNoSQJbgBHecNa2Q1G1KXmZi6T3Wza0XdZleo7EIz4FI0PXGJu2JFxxpxpO47s4QhiPLj5ePCP4TTIERdb11bvkSqayTViIZNPbR/nxS+r1GpYm3jWlcSF6qO41pd5ZWMjjZseHTUasMTFg/tsOFkSCmajarfTuWBi4j8SmDb0s6lPBMgHbwy0r1H7PvHl/6KMWXgIKM1zIZVIut0tE3adt9Dt9hT8w/IuIXlbdRdB36KglDhcD6QnH2MyLjo8ouvt/27LhQZY0vihrZ8OMWFpbG01b9W9OizOqaElIVmtk2IJWrUsrqI0bH51oP25Zs/aO3GEeXEJwurEfKlJJSpF6wc3XtbcEhjyje98re1NyYdx0U2De66t2yCZdA3tfl4yO59ct7+5nN32LF4zDo6DuNdbvWQ10admogda6YeyYtqHDCSLdqZxbT9t3e9ysZ1NpFTSWJR3wed5AnKLeiWVg1kE5NuAdR9Tz5uIMouWZH/+thIU0+b72RYpfbosUft8ScftsNH7rfHpu5dksM94mHHynP3LZ87cq8dOnq3PXrsbnti9j9soXXMe7bl1/PL7U8Yni1vZeOn+FOlxPKEYlYqz5IVQ/KcOt+VZElU0RImFIUInyseYpKCfQvbsF93UWzJsrm7WauewiDg6SJMeORS8MqxNKqhk9LnZNngnRDse8YSiNIli8T/2D4NWf4UWlv/BslndhIIH5zVZtiYlFKEL+2KvK0kNWxWt8vnCXljdkmKHlkKr7Od6R7PmI3M+X5an7JM59Ji0Q1IYXHUS9w8GcBjynAYgsd73LBOo9ia8bi14lHLkmJJ0lXSETNTNViE+4WpCF0ed7rbVCRJIxFXefjz5/DPEQjju88IfGgge0LQJKl50m5mIXjl7sF6GUOqdWWZvOsKVlwRxnGwbICI6bIxuGJDpJ2Or9sdcWskaVlcU8XpeH1RN8uW8Zbvq3XUZAVJXFfFcKyKgoiBmCcRXc/Bh2X4lZhxov40CrT5YpctJOfYTHKWTccHNOE40+WYnRGkOMOmizNtLt9l8/mEZNIWCs142WYStkg6ZqnGqam8RxgadbOFGdhoC5W0Jcig3vN069/ty5YD7XiWoGtzNmEsj6dWPTH+U734hX1FUfuG90pIjRyo26WRoW/03xa6brA+KbtsbzTomlRhCV/DoQXhcskbStldhf0s1cA+wxvV/MN7H6zz0q0bSOmdNPDSQ2GJ9Es0vo1lWOw4r7HloSN1e/DxvXb/YxfZ3T8+aLc9eLbd+r0zJGfat/5jv/2/e3bb17+702757qjdeuew3XLHkN18e8Nuuq1mN3+nZjch2r/jvqa1ZIcwNtU2pQtDb9lS+m+tmjaHe0nsWSZY7rp52StPBHvDoTDTS0WeeenNHYB5efanIdGCdVL1pikf6FEez6qLrddzH1IqJWc0pyAVxmSMwH75WlRJvn5CXMXJReKcr/S4RvtLwvmTScQS6BkmT6gbMT7sMCZjjDhhc+09dnT+XHt87jI71v4pW4xfZJ36y6yVvFhd+4vUtb9Y+y+yBbtOHvIam82ebzPtq22mdbXiX2XHmlfa0cUr7cjcXsuYgMieWLWc3LBdGk9u0YM8k4DAPBNn4YOF9uN26Mm77dDUnXZo+o4TlsPH7rKpmUNWr8vrKu3lpWK8BYTdLWDt7FutB4PFIhU1BtvTaMZuuvOTdnj6O+LbgmL14XIvfEDbLQRpkKKyaTSGrd1u20suf4ddsP/FPlOMNN5iyZJuZAmKaKt/z+7sm7zbykZencd8nq3Gk43Yvj/dtv/9iRtturZHnRpefxlLObqr0aWMt+kHM40reTQjPdHVPZfC99qT9r/e9xYbVk5D2EDXRYXiiYgZr58pjUSVtxANP63Zd6ySpiI/P7s3qtn3eY2m/f7bX6Y5P6Zj9h3Gzm5EgZyjqGmd4oj94OHv2h333GzFTm63Y98ePTdAiLmMJBu2s8evtuuveaXKMaoIw+p9uvZzryy9fYy5MX/6nCWr1dmBbjHLxLuC4ZDesIBuOpB8qcWUaZfHJxfeWMp9d5e+ozB59GTMhy5RY8HF6qowSdRQ1yQpauryEh2PiBCjoozqoDauAcrOxOoTkp2xRNvxIWspadFBQ5iO5W1+9kR5qCGSt/9fFuJZRNCVjJaFhuMNKVHDbbTUSI5KjrikW5Ay7rJMqWksiuh03/qnBuiqlT2BbzYmJOgTo4fJVJJLuYSIXLL+aJel0IKR3rCcsaOqAZ8L/XiLRb1jN4yZKEOCkw0UoxyRyietVDFFjUkOGspDSedWa0FEarjw8iySa7xZSEyTl0geuOiIbinDlIY0H5LgHSRiaZyMWFLfof1QH8PywjELT4mQqWwRayjj9zUpzrMMtCqdB/lxG6zd5ub7hOWagGZ1hefcyzxxIdVWNqeOh7vc4kAk+zohcVRqFj4U3Bx9SLmJiTi9mZQ7dHF+DJZ2BgjdMrHplRVYfXKllH/LYSBsGZZw33AjbHz2ZKDU40Sk6wxLhKAerAnoiz6krPBMgK6LT3yXHxBU2CoqUj5LgIylVDg+VKR8lsAkwh/9dW9uVNTcOipSVhg4VKSsMHDoQ0p1N+FfdyYV/l9CeWIjWXnQxcr95aPV8UDV2W1nrCAltzrjovwcM9xszXhpNe5YlrasSLknxx2ucDfSn0zwou4qyYumpKUxVWpZwcsZCva0Otp2rOC+oHIIi3rqGu5jKZ7fl/enKxSrIuZ2RR9PqSCeYQMnU1uUESHrHf/4iDev01Rkk+RZ5o/SNKrvkdwSsYsXtcpt5PFSK3zb8Xi9T1MCyiPIWBFyO2MVKSEKhBQpxBE+FcCT8dfm+axcXicetag2KZnQ1TtdilWSZeOW5WPajom4Y0poXB54h0URb19LeCHWsy6ll4QrqVph+2EVKUEgSEmTJIZAk+p0D9hicZ7NZufZVHqu5DybKQ72lYXogiVZtAtsXtfM5+doe44tSjoFL+n3ErK7Zdczroi5nbGClPhFumfevvY3cXx8NyoSTdqhx/bYAw/tt/sPHbA7H9ll33loh938vYbdeF/NvnFPZF/7bmE33J7aV25L7Yu3duyLt7Tti99s2Re+uWBfktxwS9Pl/367bY8f9c5dGZakBOVW6NmtsP2wgpQgV1fNlIQ9d1hs8sTmW2fZdOtim8kvt5n4MltoXGXp2DWW77zOsvFrLdtxreUSvkdujrzAFoZ/yhaGrrL5+pU2V79C2ytsLn6ezSeXaiiwSwnDvFjDy34MJOPKW25X9CFleIulPIIyvOHTVje+GI/bgk2oC56wZj5prWK3uvU9mpDvs7y236xxwKKhs6w2cb7Vdh60ZMd5VttxrtW1TcbPsmTsgBVDihfzu4ukX3rKkpgVGSusIiUz4vCWOSJy8Mqaf3ejzrw2b+3GrE63rB6HmTWrfVnRDt80M9PWlu9cIs4riVojsfpQYo2h2IbYNiIbGebTii4JnX8lIUtUpNzuWEHKJZ/Fi6588M79RI0vPSxeVFjLVwbL86bitJyU/AJYHLM4Z1uR2ppZtyyBqDpXS3Kr1yKr1c3qIuSwk5Pvv5W+Eu3erdS/QMSwDF4IrbB9sYaUdSiBZ/TfLuRbZr70U3hWtyjjds6oRdywjBUzCi/zppoQhW5f7lHhNblWXmDlJ5EzG9ZEaVjbUcvptiOFkb7ShJjchCLfcNcykDKXd/bACtsSK0hZocIgoCJlhYFDRcoKA4eKlBUGDhUpKwwcKlJWGDgMMCnDLSJQfsu+HNYVf1VuHdF5/+veD+37NHNbIRigaxXfJyx8HvzMIKQa/veUu9mE/CTdzWYYSFL663LRrOVRyxVLJPyCVq1oSltWzOWD+pXLHwRhxZ4g3AnN47akI0l1DSvvBpvwLGq7kdQX8JLS/j4s9pAhhqxhUcpSEqxOjK1ltyxdkiLtrJDw0vb6kiKJ7CxD1/MGizV7fpkvj5Nj+C1hQEnJKmXccEdYeNRfFZaC3GKvyaAjCm/4Df6VUlsS4kX+i1wsfMoKDiyuReqBvOFm/RatdLpAKi95LRqoNnEiYkqyQs3ae5iA5b1lRDkvbK8V1k9y0fXUQz0e9rQLX2HOr1yx2QwD2n2LhMWoqDMWSBaLkDzlEVjJjXXJWcgpj2TIdYQ06iJkTZJkLB3NZxyE4icxFkvRbDNSOiuwQqh2lpNJ5Sk7+ZgO9sjOO60T73BJJe1ofIUU0U6L4ok1EkdBLJ60hcW6LbTkebPcakM4AvI8PpoNKCmD6fCXvqA9vztoTUnLj1mljF+aCWErJSrFn82H+P4Tcepawu/lIErcB5tbbLqnBVAaUOWs/6RBkmwS1RoaKk3aTLrXZqMLbS56rs3ac307H1+0QmYLXtg+3+bWkcX0bIvq+2xoaJfIKtvmOAD+lhvCVjCQpKR7rYtQjWLB6hFL4eHR8G7aoiitUMyiU4/9WN2xhGUCQ8etcI1l2tGcKMlinqwollmBx1U3VbAYUxHWztw28PYXlgOMvNpFUnGFV2em5hL7waN1u/vQHrvzR5N22w/H7Zbvjdg37k7s69+N7Gu3F/bV7+T25W+37cu3Ii2XL93S9Je4P9+VL918zO67/4g11Sv5GFL2Dp4yuBhVEIXYFANaK7SwRYkG5ep62+lOa+X7rVnst060V93LpHWK7u8Q8j6npGO7rc07ntmEyyJLPtu4WvyYLWgo0LRRaxWMQ3nJpPSSXlPbBIEQThLt+phaDdXXdy92ygMesKnsOTZVXGKz8aU2X7/c8h28xH2tFZPXmu261uJd11kxcY2l4y+w5vBVLu3Rn7KWtotDV1izfol/peAv6qhH0uCgmyc0U75yFFsZMg0kKTV81sC7IWPttqnWATvSutiebF1hjy5eZj+eO2gPzZxpj8yca4dmzrND0+fbozPn2+GZg5IL7NHpCxR20MMPz1xkh7V/ePpMe2J63OY7O0R3VtWVgfy1vG6G2wLLZKBD5ZjfAcIWHdM4stgrrzkpku6yPNlrhbrhDsfxLsuSPepY9mm6fobZyBkWSeKxAxaPnqnj/VYM77e8sU+y12qNM9ylBNuqJmkAypom4d5zCxhIUjJibMajNp1O2I+O7rP7Dx+w+x+/QHLQ7nniLLv7yX12+8MTdvsP1NU8uNNufWDcvnX/qN1835DddG/DbrqnbjffNWLfun3cbr1tyG69PZVM20J7XG2XX2voWsqHBNsJ0hvVYUiXNG4Fn1SOKihQNNzLCT+G7yshe3h4bzap5dYYimx0JLHR0ZqNDLNNbHysZmNjo1Yf2i2ykz55LZOQLEPGm2MgSRnsVWgcGNuCuuvF+rk2nZ1hc8UBayfnW6fxHLOdl5lNXG6FtsUO7btc7lKMs73UotHLLBu73NIxxRm70Nq+sCdOEmNhoK0Z6XTB8ogFwuDFgs8MDVT+rRARJZa3XWqxxu4SlnhFuDdshcbmIir3LNnya2iJxo61WmKNemJxPcwANNPpkrDHxuV6AptgIElJyxxRa5WO1opSeU21YSnNeo+xxoR8O55Go5YmI1Y0xi0emVBXMmnJ2KTVxndZfcduq+2YtGgnv2O42zrqarLRPeqWakpbLZ0BuP9IwNZWlj0dwD1e92CCc1Nc4VfXwhSEOxzzIg10YCIkibgtp27YmUy4akX2YgrqqzHz20CqC6RgfXZE9i00eneKswSi/oWfrQkpcK847G2MzWOcIiiX3mM9yCRJrF6v29DQkA2PDNvIyIi6GHVPOoeJve32NOAKg4XThpQQrlw5t9wuiY6TmNYPJbvgkUOFgcRpQ0pQkg6P6V5T+/yIFD/XESfcoytREXKQcVp5ytWy9CxXbPTftdFu5mGMlSpiDipOK09Z4fRARcoKA4dtQEpGkqWA5ZFlhcHE6U3K8plr3+Fj1UkMKrZJzUDMylueKqjcRYWBQ0XKCgOHipQVBg4VKSsMHCpSVhg4VKSsMHCoSFlh4FCRssLAoSJlhYFDRcoKA4eKlBUGDhUpKwwcKlJWGDhUpKwwcFhLysL8m+Dy5S4+vwqf7kcK52N0vnVhJZr1xZftkIDyVcYyDf8eWOB/Yq1BN4hP4B3Kj+WSCAn/hyhBVubbT0B5BJb/D9/sgFJX9sLnZugarulN60QklLIXZZlAKEOwl44UWJaKbdhbtudGUqbhV6oC+cYbWwUQYznPMhf/FrwbxtXhzMp0j0dAqKveHMPZELY1rCFl1slYtFA7YXGijgreUWqJYu6q55akTSld20D45bFE5eHjLTII1cyCR6nVLE1GrZDFanxtmGeWKOFU28LJGlYEY1W06bzmhq1nbRvOm7qSj9pl7CS1otZSfIyo/Hqlpxw523pd5c5tqGhbg2XvlGeLdqV0o1q5PqVIzzmRsJ3FttDmZGxJu2VDrALRk+aS9ORJeaXpun/+e5U0ZOl3dLppOSvnyhYJq0zoHPZtK51WVthwUsjsTV0TlkrBgKwS4rqs0m+l1K2TJJbHmYre1nWpzXZaSlfa0bjyRc+TciSsgqEzrCPUjuvWVJxWa8bqUQujhPR69NtUesqBvgvHHrOOTNsWB5op61Rm4hTLM4pLLG6g7WZQPbEE6zJyGSdWCh0phW9K60M2W8T28S99077/2JQ1RZhUBVgPvvJCTxt1yBh8WVirqfDavvNll9j1B/f6Pt9o8zks2xIUqKU8Z7LIPvzpG+zwfG7zMmAK2X1dG9IvV1voryaetqP8WJZ6JFu00XTB3va6l9vzztpjw4WIIrIbP+fnjSaQs638WsmQHZ5p2oc/9VWbka6LNX6Efx24rsueoB8m4hl7/9tfYyMi+rBsOyKisXZj8GZBEumKXR+enrcPfeZGm+WnA1lxwlPgfwi6fh4g+DmVR5u6dN7biOy9b3+17RH5650Zy+tyBiIRawKxGhpap7Vhr9sb73rAvnbr3TYXs2Laaj8FnVajf1kaecsuGc/tnW95rWycW13OhIbQGBpWuqysUdprY/Ql5dTUMfuff/I/DA4U9WFrqWIen2vbjLxIlikzT359rK0kjlkkQGdUyLNGY9szFJTnU9jVn7tif9HJPcihqQWb6kAwfguSs4GUKAuh1gPLHC+qQSUiYF0er5G37czJcdtRl/HUC+A1c74H97TwTKrWpGbzHfUM8uaPHJ11kvKLvBshGHj9OI2kYwf2jtloXLPO7LyNyAZ15eMrnsmLo1PSkkdOhq2ZjNuPnpq3Zl73FYzRkUWn+DVhfrh1Bch4KVtsqQARjF6KNTuHpNNzD+y2EXnBWjpvLZE8Uz3yQ64Qk56riQ1HJ+2JmUU7orKZ4qyPFRn2Bf3csHrZc/ZPSk81fJFybKRh/+m3/7NN7NknnVkm5gRImaa5HTt6xP7Le94jz6aAWGpI0aIxaovqT+tiTA0vswH61SPkW4K6axZ9Z3mVkpC9xITUeJSWurpCLXxOZbKavJoqktV9fXWwnvj9wHipo+4bgpMeZSo6bRttDFm7qe5Eakc1Ol9IyYrB8h0iaVuNsqNWHdVHrK1+aGgTUm5y2jI17HbeUddct2FsIF0KujQVzIcgEhpNJtu2o4bVRyas1aZMahDSkeWwISRd/UZw/YhNLyZy8seQJW4v2s7Rurpz6UWoN8CwMFVH5E2GRmxe+UWNhkXr1msvjTZQuEhsx8ikNednpeeC1VRfOyfG7AN/9mc2smNC+clrso5TN/p6WENKxjFpO7XWglrs4qyTpVxHHO9D6/XxzjrwDGWU1RlzXGbk/m3DkjHm4hcL2MOriFZUqIzJ0tKEQqdNV/HyigwZFSqTqm5JSDukAwEkXQ+MdoR6N+Z6rO+NPYmursjq6uJYztZ/MSHOw2JS3kgknPMisR9rnE6eHgNPIO2ws8qFvpwrJ4j9QBlLe7EAVRjrQUDOBv1EfQlhNMDgFCg09ep5d+27HjjryW0AXzBMUnLEhwqaM+zYtVvkb6hx5tZQPutrErCGlErPJyh+IQRQQiVQmuxWXNCbg5/oErInUojC/92Rj08wNgLeAUPqip70Q86ijDYY3n8sfwkrMyQOg/oyANpRdiYxIWYoD2Xxuwqk6+HL6VCxgShdLJ0qCxUMTF5lestXB/hPpcTyTGS11DAApIds8lgJ67OD8L/HUpHInZLTP6zQtcweeIbSLILYQcdAsrBfgkYRqwIDt4M1vLLZAp1Iw0kOutteENaNu4SeY51GP8odrg47hXofktU0VQch/3B+fawhJWYOATKwCs1xbyKQJFsqfH94BXT318eKbNcgkJH8e9G9Ridp2SWN+sGrpA/3g0fowtmkSEtF4ZxXqR8RV4MM318Pm+tK5cgruUJISRTtk402dOVgmUIrCx5KtHx2NcJZGsSSIo5e+4Ry6s/L0S30yuga44a8ThSoEfqZ0oKaMGu4wrg8li1jDQVDQ9gYa0mpiygYoQhjj7BOdihumDX2Gq28vFSGImHA9ZVbLvIG6MmiW2fLUHnyGuUsI61NjzUWWVtxuVSgNx5kCXuh0sM2oKRAbx799NmCruomI5Ey5Ey8ZQ9Wrj/u8G33gGBFIWdCuMonPCtQngEhTbTAVqU2pRE95pIRyZv45bU65xGIvTqP5ThrUaa3jNAsuol184GMicR5pbG0JhJE3RDBOj1gVoaH5A5NTde3Wpr5KTwTQzuatTZbmuYrE+4/kXWn3bGpY1MqkWJJ0k6qsLa2GjQrrU6brqmwhfk5y9KOLWqs6vl0hwWZ0in3l6CkMrUw8uG+aUcTjrbyidQlpShGqZVXSxOWQtdSDuhBmZDm4mLoMnSu1b021b6bi7Iz0epeVRqeY/LxxbH0R/4LC4uuHzEyzSrZtpstz8PLlgYboBc6llt0RzjuaOujA4ggpoVFSAFbidIpMkVw+8ku2i802WrL7j7ZIY7CF+YX/Ar0DRJotTA/72Vh4pYziVJSqcrqgyjyw1wlw91wgbIgpC49lDf1gD3RjbTJA52xJeljB7YIcSgv+nPcbrVcOi0WXyXnYGMvjIBOXsfc7N4C1k50VoHCNlXYb3zjG3bnnXeKpC274oor7Bd+4Rfse9/7nn3+85+3eRnm6quvtp/92Z/1Sv3+979v//Zv/2bPfe5z7Y1vfKP98Ic/9HiHDh2y8847z37u537Ozj77bBF/uZArZucC+ZIu13E9xy9/+cvt+uuvtxtvvNG+9rWv+ez9Va96lb3oRS/y8w888IB96lOfsre//e124YUX2le+8hW77bbbRMq25/dLv/RL1tAsk8VUV+dXYmFhweVf/uVf7Ec/+pFsX9g73/lOO/fccz3PW2+91fP6xV/8Rbv00ks9Lra55ZZb7H3ve59NTk76NYCyHDlyxN7xjnfYjh07PE+Iz/3aXlBhlPHJJ5+0v//7v/f9nTt32pve9CY766yz7JOf/KT94Ac/8Osoy969e/26f/qnf7InnnjC3vWud9nw8LB97nOfs3vvvdftMjExYe9973u9LOSJ3quBHsjDDz/sZaWe9+3bZ29729s8r3/8x3+0Rx55xPP7zd/8TU9jenra7frUU0/Z7/7u79rc3JyHcT3lx+6//uu/7g2DNHrreKvY9AoMxkq4FB7SvfrVr/aKobA33HCDZwoJvv71r3vY/fffbx//+Me9sBiX6zDSJZdcYu95z3vs0UcfdaJwHQUnzkagMqmcF77whW4MygNhXvGKV9jrX/96+8xnPmMzMzN2880326c//WmbnZ21o0ePejwaAI3iN37jN+zBBx+0u+66yyuPMvUD4WNjY34tpKAiSIPKX5TH+Pd//3d75Stfaddee60TgLJjg29961t27Ngxvx6daLjY6Nvf/rZfNz4+3s0h2HM1IA42phFC9He/+92uA/ndfffdds8999hb3vIWJwwEJY0///M/dzLRYAHXE+8FL3iB24V6gozELR9a9IJw6oUtBHvZy15mv/qrv+qO44477nCdDh8+7GGU5ctf/rLr9bd/+7duR9JG0PdDH/qQ2+n3fu/33D40vjLtE8GmpGSZZgz7hje8wQ2G8oSRKQR7yUteYgcOHLD9+/e759y9e7f9yq/8ilcExoCcnP+Zn/kZ91a0xrKSytbbz2uhEMTAuBdffLHnCWGIy7lrrrnGnvOc53gajz32mKf9y7/8y244yAHpabWkgQfdtWuXx8eIlL0fuA5DowOeEBLgVUmLiqNiL7vsMi8PxzQA0nz/+9/velE2dKaR0IB++qd/2m0HSBf081iki8d93vOe53bGy5EnS2JjY44PHjxoV155pZOG8tMwfv7nf973iQtoJMSHTDRmyoJOpL+aIKUdKdd1111nL33pS90rkyfX4YHPPPNMu+iii9yh0MgoO/WBgyBd4mF70iE/HAT1xHFJzBPBpqREUQqK0eiK6JZf/OIXeyGoYAoKWWhNVHxZ+VxHRREPo1DIz372s3bGGWcsKVWGk85qYGiuR8n77rvPKxlPzTXkyfVsIQ1GoKVCfs6XeXIOQ+FF6VYxIlISdzU4x3UYk8rCS9100032O7/zO964KFMpnGcLSckfG3CM3nhyGiHhlJ+8SJO0kdUodSE+3pKehPivec1r3DZlJePlEexCT8E56qZMg8aC7rfffrt94AMfsKmpKU+H6ylbLygH1xCfc9QvQweOGSKhL3HQs9SDLQ2HspI319MAifvQQw952J/+6Z/6NZzrp+tWsCVPiUHwDH/xF3/hrep1r3udVyDKQFQyL1sF4cRHSnCOsSHdAhVMBVJoCg9x+hUe4lABEJLuEy+IpyjPYUQqB6OU5CRP8uJ8SbDf+q3f8rEPjYaxH+eIX5a3F2U5SIdxK2VmXEZaeI2yoVHZxCE+NkAXwgkjDt3ov/7rv3r3zZDmE5/4hMej0jjfD6SFfOELX7AvfvGL9gd/8AeuP16bMgNsTR6Qg7jozHgOkPav/dqv2Zvf/GZ761vfutSrUDbAfi9KXUv83d/9nTcIhlicw7mQL3nhDcv6pqckDCFPyoAnZ8iB5+aYsWXZGE8Em5ISYPCPfOQjblC6D/Z//OMf+4SHisPotBa60JIUKIAAvNw///M/2wUXXGAf/ehH3ZNQaIS02a4GyjNe+uAHP+gGZgD/13/91542HoE8P/zhDztZ6HYIx0ikRTkxyF/91V/ZV7/6VR/3UW4G7JzH6P0MRtk5j6fCq1MxjJXJC49Ed07ZGevRG+zZs8fz5Rxpkj/l/uM//mP7wz/8Qx+nYRNIQv5ULJW2GpAP0GiwJ93lX/7lX3q+l19+uQ8T/uEf/sHLwuSRNNARopEfYJiA00Bfegf0gyzkiUCiXqArccq6LYcF2JTe4aqrrnLvR8/4+OOPu+enMRMfh0DdUg4mgNiAuqEhYmPsspr0x4Pkj/7oj/57d78vSuXxapAKA6Is3SHjSY4xGoNrKqosDNfQnSJ4C86hCEpgyPPPP9/jgX5eiwouKxxSYgC6aCoFg+H5CKOLgywl2agcKhXDsE/ZKMtrX/tae/7zn+/plg2nX2NAX4QKYDxKeYlHQzjnnHP8HGRlAoXupEU+5EEjpQzlmJm4DFewFx6PvEHZWEtgW/JgPIid0JmGRprlmA7vw1CBbhu9yy4UwlE2ykKvgefkGuqjJA7pU07SK1Fei+CB0YkGTllJm7zQnXyxG3c+0I34pIM+2IOyMnbHzpzHztQHWJ3nVrHpLSEyopVheMhEJgiVSksjrOyGqQTilt0jxyhBGoBfqcJQZElQkoSBOL9WRZrLBaF7oLLaSndYLXPelV9UKx0d5kUJkaaucaUikU7BfUddj6HJizKRLm8lcY+yxhtG+uMmrulfc7FlkfIeGlpJylCuMH6jnIuLTePXtNANvdCZyi9Ji8egHKQdxxqrthdtSOGZyjc8Mup581hTJXR9koQbyapUgnrqirIGO9TcE5VE4rgkcr1e2pEhCsQIdVPaOE3bCmeoFQjfVlnQm/R4ksJP1FGOXszPL8hWw1528kFndES33joNdRZm8YB96pct57AXYJ/rAHHZ79fwN8OmpDwRhIcHItmS4bnRS/dBl8kWA/OiE5YNpiJuHlO9oRL82fYGIEWSR/wVr25eTlKF+itShQbpxnuYHIsUuQxWaADefTezvB70GqEsN3qQzrrQKfTiRZWOrqFZqYOTUaVDrvL7L3LFnp4/5iOpbnKEeT7d6zaCvzyB7UirkO3CRd1z3et5tY08yxMxDQJ9pXkR3hsNL6iUhehmXoriebrAN8ShrkDZigh79vETIGWZvAi39PKDCMVTBpTtMiBUEHF52wVyegCn+iI8wy1jhNjdbAW1XjyehNfQeFMn0cm6k7LjpMwU7qZ277MMjrpJe1K8YbMZIF7q1/D6Bk9iVPkF3lkzVoWLSl5ez6vMTg3F31SSrhA72Gwd+GNd9Qo0rZI8/OMaP9e9OO8ZBnESYkJKwrvlC/ALw+7StoTOLQWRdvC8PzmY/X+pyXqf/LTp4AAAAABJRU5ErkJggg==;" vertex="1" parent="1">
          <mxGeometry x="140" y="270" width="165" height="133" as="geometry" />
        </mxCell>
        <mxCell id="GRdJn9pDozvjfMk0XIZr-2" value="" style="shape=image;verticalLabelPosition=bottom;labelBackgroundColor=default;verticalAlign=top;aspect=fixed;imageAspect=0;image=data:image/png,iVBORw0KGgoAAAANSUhEUgAAAKUAAACFCAYAAAA6hzjsAAAAAXNSR0IArs4c6QAAAARnQU1BAACxjwv8YQUAAAAJcEhZcwAADsMAAA7DAcdvqGQAAABhaVRYdFNuaXBNZXRhZGF0YQAAAAAAeyJjbGlwUG9pbnRzIjpbeyJ4IjowLCJ5IjowfSx7IngiOjE2NSwieSI6MH0seyJ4IjoxNjUsInkiOjEzM30seyJ4IjowLCJ5IjoxMzN9XX2GuYHZAAAtK0lEQVR4Xu2daZBlR3Xnz733vVdrd1WvUmttCSSh3YAkEItxQLDYgA0BtgEbG+OxGY8JcEzYHxzzwRPhiLFjmJhw2B9sR2AHZrGNzWbGmFUMBo0EEmhBm4UQSKBWa+vu2ustd5n/7+S7Va+qXi3dkujXXfdfffremzdvZp6T/zyZeZd8UZ7nhVWoMECIu9sKFQYGFSkrDBwqUlYYOFSkrDBwqCY6myLqbk8UlXmPFxUpN4Jb5mmSMqrMe7youu8KA4fKU/agKAqLomXPKNt42Fr0856ErY1LcnEce1psV+dRYS0qUvagl4CBQKmlWacbcmIocohZs1qt5mSEnBUpN0ZFylWAmGmadsmT29DQ0yNQUST6v+7pkmaScFxhI1Sk7AFkxEMiIMub2m/7fn9sRNhg1iyLFWvEyUj6eMwKG2NbkzIoLo/oB1HovqOOzbefsm/f9VXr2KxI5JF6sB4RCV9rylq+w6698tXWqO1UVz5kcSSSxsTLJHjNp+eJT0dsW1K60uKDOlWLNfCLCiYjOo6bNtN6yL70zY9ZkUxbJ0s9/kr0I1J/Uo4U++yNr3i3JdFu8XBCHlOBkQiJFDAer7wtq2BdVLeE+qDgT16zEFnjpOgjhK+WrE+YyB6L6RWOCxUp+4BenElJnmeiZ2uVtFdJZ5WsPk83XeF4UJGyL0J3CqG4e7NSuM/YK2GWviyrz3tSFY4DFSn7gPuIvbPwCj9ZVFbfEOuZB/e3Woi7OqzCiaAi5aZgurxaMNtWRHGLipzHCyx3GuMZmPnyRGZLIlP2C9/MYz5jd4PQtVdOXQwuKfEw/eS40K+SetPrBm0ETV6elmwlk179emXLUB7lvU/Ps5QSx5PWyceAkhIjp6ukE8S4mb1VwVOhIkLFdCtn0OpoiVAq8wnpqmuXPDW6lnqXeMbc8U8EvSUfIEDKtqS1XEFeaYT3Stcb9RWSoaK04xKSXYJf390/mfByoGtT0qsrOnCulNX6lXEQnV8aLlClvYrpvIvinCIYUFICDIuR2UKurhfg0ZxLtxLWlT4vPnhdUTmDVkFUQ0mmUtcePVYcrxNeEnGp20fHLhkh7ikELDGAoGKGXbK0bkXeUFhdQkVwrqw4jteTsnIEdv2wsCyTh9G2yOn2BgAqZ5HXLU8blmcN6StdKb/rio5b0VXne72qyNhuN/3GfV5kS49MTxUMKCll5zxSJalqksT5FB77SYq0K+xvJIpji0EKpCVCtv0pi1KXDI7qeRapXLHrzAsbeffdy2VdM8lq/XqlI1nokbY1GomIGAjJm0ndVnlKYGBJGatyEpyABvLtdF4OBZmR45iWTEmO6Vj7S6KwXokVN5qV6DprSlr+Gloch7e/4wF62RbiwRsaTprRkOa6ZUdfdFmlm+vXe0xcrkEWXdc0Z8tj0rKbOHVIOaCvruXWSRetVo9tbk5Gt7bV6cGXJgIqcu84qi90zrtw1XYRusQir9nI8IRfG0XyJEqn36tr060f2pdu/pjlyVEdP71ufjjbb294+W9v+OpaITIy7mu1521ufsrGxjVUcT2Vt8fDd2zkP6hC9EXXMMyZn2vbnt1nWKddWKOuoZCPz08NDCgpIV1mreIJ+/otn7VjC4/IpryxQ1ckr+Jv3lABG5FSlS3RiE2EEwmzcbv++a+3/bsvUtiwzug89XiySal86Q1yefSjcw/bN275nOXxrIovolL2nPNcs3E1RYxNywlNPmojjbPt1S99qzWiCR8WQMpT5dugjZrfSQTGU9HizDo2Ze34iLUTSe2o9qetJWmr+2onG4niujxpnfgp66iby9W1hZnoYLXDWJ7NOSfvmGrY0VZ52/FRL3NHuqbo21fHZUk1nEkTXSd929p2jCFN3m100aBWdF+cSmWtsE1QkbLCwGEbkFJDAUYDp8ZwqoJwWpMyvKir8VSkrd+rq3AqoKqpCgOHipQVBg7bhJSDdQtoLcryhdfQwn1Y9sN9R+7PcmtnPSFGpqrMu6+scc9VQUqHc9znTCSnzqD69CYlT0So3KXn3QCVEVXSQHE1dxIl1tE2VQk5Bjx50pF0WCHx8n6miGlc01UNJTNkcZFYreh009L13Dzf8EHDYGGbeMo+cEIOSEVBmnxUbWdcBNqh/XF/AhXlw9o2LM5EtGxkpaQ9+3ldE7lFl4h3UI3Hlm1pxz5h7jZPGWxfUg4SWEUjbsrjdeTQ1FWLQFmcaZuKUG2dCyRzYcGtXnHydVSRCF2/sPQ4kWGAvKU/mh2obmFDVKQ82eCxZzyj7nhKpGxaO8kkUVdy69TaliYdyxTuIrKuEA8T/fJJy7LdluZ7JLstKyY1ABhVBjxfP4XcpFCR8qRD05qcF0cmrF3stqPze2w+u9BmOxfaTOegTbXOtZnW+TbTvkBy0Ka1P9U836ZL0fG0wmeaitc8T3HPsdnWWTa1uNvaJpKq689TxpXd7E4BDO6qa7JiKzpkN3zzY3a0+bAaPN2ZWhEL/Xg3Revf2ANEmoxGhSYNRcOizi57ydVvtjN3X6UwjcN4O0eXF5HmrSf5LSFehm8r/IGn5uwj/+fz1lIk+UfL2k3LO22d74hcma9vmaYdyzMVVF00b5PzbqgvxMU6R9IHx1vTGPWMnZP2J7//X21Ex0lL82/e3jtFXFDlKU8yvInpP2bQTc2aZzr7bcYO2mx0qS2OvMCynddZuvNaS8dfaPnEtRbtut7iPS+xbMc11hl7obVGnm/Nkau1vcJaw5dKLpacZwvRpM0r7VRj1LjB2PLUcZVbJGW4U1b+BVM+U3KyEcqxpiTdgGWt+/+V168RPLp79V50j7tRHMyM63MiT27tem7NoUVrD2vOPBTbnMaVUyLrfCI/OFyzzkjD0rEhy8aHrbZnwup7J62xb5cN7dtn0eT5ZjsvkJxryY4DVp/Y6/3IQsaEqCkv2gn5PesoleuV48MaUnKTNSRDX+YB6jrUhfBuX/SINaOHpeBTm8jjkie78pTl2ubREclRa2aPazurhNUNdT/eottcBgfI8StzvKCri0ScNoSQJbgBHecNa2Q1G1KXmZi6T3Wza0XdZleo7EIz4FI0PXGJu2JFxxpxpO47s4QhiPLj5ePCP4TTIERdb11bvkSqayTViIZNPbR/nxS+r1GpYm3jWlcSF6qO41pd5ZWMjjZseHTUasMTFg/tsOFkSCmajarfTuWBi4j8SmDb0s6lPBMgHbwy0r1H7PvHl/6KMWXgIKM1zIZVIut0tE3adt9Dt9hT8w/IuIXlbdRdB36KglDhcD6QnH2MyLjo8ouvt/27LhQZY0vihrZ8OMWFpbG01b9W9OizOqaElIVmtk2IJWrUsrqI0bH51oP25Zs/aO3GEeXEJwurEfKlJJSpF6wc3XtbcEhjyje98re1NyYdx0U2De66t2yCZdA3tfl4yO59ct7+5nN32LF4zDo6DuNdbvWQ10admogda6YeyYtqHDCSLdqZxbT9t3e9ysZ1NpFTSWJR3wed5AnKLeiWVg1kE5NuAdR9Tz5uIMouWZH/+thIU0+b72RYpfbosUft8ScftsNH7rfHpu5dksM94mHHynP3LZ87cq8dOnq3PXrsbnti9j9soXXMe7bl1/PL7U8Yni1vZeOn+FOlxPKEYlYqz5IVQ/KcOt+VZElU0RImFIUInyseYpKCfQvbsF93UWzJsrm7WauewiDg6SJMeORS8MqxNKqhk9LnZNngnRDse8YSiNIli8T/2D4NWf4UWlv/BslndhIIH5zVZtiYlFKEL+2KvK0kNWxWt8vnCXljdkmKHlkKr7Od6R7PmI3M+X5an7JM59Ji0Q1IYXHUS9w8GcBjynAYgsd73LBOo9ia8bi14lHLkmJJ0lXSETNTNViE+4WpCF0ed7rbVCRJIxFXefjz5/DPEQjju88IfGgge0LQJKl50m5mIXjl7sF6GUOqdWWZvOsKVlwRxnGwbICI6bIxuGJDpJ2Or9sdcWskaVlcU8XpeH1RN8uW8Zbvq3XUZAVJXFfFcKyKgoiBmCcRXc/Bh2X4lZhxov40CrT5YpctJOfYTHKWTccHNOE40+WYnRGkOMOmizNtLt9l8/mEZNIWCs142WYStkg6ZqnGqam8RxgadbOFGdhoC5W0Jcig3vN069/ty5YD7XiWoGtzNmEsj6dWPTH+U734hX1FUfuG90pIjRyo26WRoW/03xa6brA+KbtsbzTomlRhCV/DoQXhcskbStldhf0s1cA+wxvV/MN7H6zz0q0bSOmdNPDSQ2GJ9Es0vo1lWOw4r7HloSN1e/DxvXb/YxfZ3T8+aLc9eLbd+r0zJGfat/5jv/2/e3bb17+702757qjdeuew3XLHkN18e8Nuuq1mN3+nZjch2r/jvqa1ZIcwNtU2pQtDb9lS+m+tmjaHe0nsWSZY7rp52StPBHvDoTDTS0WeeenNHYB5efanIdGCdVL1pikf6FEez6qLrddzH1IqJWc0pyAVxmSMwH75WlRJvn5CXMXJReKcr/S4RvtLwvmTScQS6BkmT6gbMT7sMCZjjDhhc+09dnT+XHt87jI71v4pW4xfZJ36y6yVvFhd+4vUtb9Y+y+yBbtOHvIam82ebzPtq22mdbXiX2XHmlfa0cUr7cjcXsuYgMieWLWc3LBdGk9u0YM8k4DAPBNn4YOF9uN26Mm77dDUnXZo+o4TlsPH7rKpmUNWr8vrKu3lpWK8BYTdLWDt7FutB4PFIhU1BtvTaMZuuvOTdnj6O+LbgmL14XIvfEDbLQRpkKKyaTSGrd1u20suf4ddsP/FPlOMNN5iyZJuZAmKaKt/z+7sm7zbykZencd8nq3Gk43Yvj/dtv/9iRtturZHnRpefxlLObqr0aWMt+kHM40reTQjPdHVPZfC99qT9r/e9xYbVk5D2EDXRYXiiYgZr58pjUSVtxANP63Zd6ySpiI/P7s3qtn3eY2m/f7bX6Y5P6Zj9h3Gzm5EgZyjqGmd4oj94OHv2h333GzFTm63Y98ePTdAiLmMJBu2s8evtuuveaXKMaoIw+p9uvZzryy9fYy5MX/6nCWr1dmBbjHLxLuC4ZDesIBuOpB8qcWUaZfHJxfeWMp9d5e+ozB59GTMhy5RY8HF6qowSdRQ1yQpauryEh2PiBCjoozqoDauAcrOxOoTkp2xRNvxIWspadFBQ5iO5W1+9kR5qCGSt/9fFuJZRNCVjJaFhuMNKVHDbbTUSI5KjrikW5Ay7rJMqWksiuh03/qnBuiqlT2BbzYmJOgTo4fJVJJLuYSIXLL+aJel0IKR3rCcsaOqAZ8L/XiLRb1jN4yZKEOCkw0UoxyRyietVDFFjUkOGspDSedWa0FEarjw8iySa7xZSEyTl0geuOiIbinDlIY0H5LgHSRiaZyMWFLfof1QH8PywjELT4mQqWwRayjj9zUpzrMMtCqdB/lxG6zd5ub7hOWagGZ1hefcyzxxIdVWNqeOh7vc4kAk+zohcVRqFj4U3Bx9SLmJiTi9mZQ7dHF+DJZ2BgjdMrHplRVYfXKllH/LYSBsGZZw33AjbHz2ZKDU40Sk6wxLhKAerAnoiz6krPBMgK6LT3yXHxBU2CoqUj5LgIylVDg+VKR8lsAkwh/9dW9uVNTcOipSVhg4VKSsMHDoQ0p1N+FfdyYV/l9CeWIjWXnQxcr95aPV8UDV2W1nrCAltzrjovwcM9xszXhpNe5YlrasSLknxx2ucDfSn0zwou4qyYumpKUxVWpZwcsZCva0Otp2rOC+oHIIi3rqGu5jKZ7fl/enKxSrIuZ2RR9PqSCeYQMnU1uUESHrHf/4iDev01Rkk+RZ5o/SNKrvkdwSsYsXtcpt5PFSK3zb8Xi9T1MCyiPIWBFyO2MVKSEKhBQpxBE+FcCT8dfm+axcXicetag2KZnQ1TtdilWSZeOW5WPajom4Y0poXB54h0URb19LeCHWsy6ll4QrqVph+2EVKUEgSEmTJIZAk+p0D9hicZ7NZufZVHqu5DybKQ72lYXogiVZtAtsXtfM5+doe44tSjoFL+n3ErK7Zdczroi5nbGClPhFumfevvY3cXx8NyoSTdqhx/bYAw/tt/sPHbA7H9ll33loh938vYbdeF/NvnFPZF/7bmE33J7aV25L7Yu3duyLt7Tti99s2Re+uWBfktxwS9Pl/367bY8f9c5dGZakBOVW6NmtsP2wgpQgV1fNlIQ9d1hs8sTmW2fZdOtim8kvt5n4MltoXGXp2DWW77zOsvFrLdtxreUSvkdujrzAFoZ/yhaGrrL5+pU2V79C2ytsLn6ezSeXaiiwSwnDvFjDy34MJOPKW25X9CFleIulPIIyvOHTVje+GI/bgk2oC56wZj5prWK3uvU9mpDvs7y236xxwKKhs6w2cb7Vdh60ZMd5VttxrtW1TcbPsmTsgBVDihfzu4ukX3rKkpgVGSusIiUz4vCWOSJy8Mqaf3ejzrw2b+3GrE63rB6HmTWrfVnRDt80M9PWlu9cIs4riVojsfpQYo2h2IbYNiIbGebTii4JnX8lIUtUpNzuWEHKJZ/Fi6588M79RI0vPSxeVFjLVwbL86bitJyU/AJYHLM4Z1uR2ppZtyyBqDpXS3Kr1yKr1c3qIuSwk5Pvv5W+Eu3erdS/QMSwDF4IrbB9sYaUdSiBZ/TfLuRbZr70U3hWtyjjds6oRdywjBUzCi/zppoQhW5f7lHhNblWXmDlJ5EzG9ZEaVjbUcvptiOFkb7ShJjchCLfcNcykDKXd/bACtsSK0hZocIgoCJlhYFDRcoKA4eKlBUGDhUpKwwcKlJWGDgMMCnDLSJQfsu+HNYVf1VuHdF5/+veD+37NHNbIRigaxXfJyx8HvzMIKQa/veUu9mE/CTdzWYYSFL663LRrOVRyxVLJPyCVq1oSltWzOWD+pXLHwRhxZ4g3AnN47akI0l1DSvvBpvwLGq7kdQX8JLS/j4s9pAhhqxhUcpSEqxOjK1ltyxdkiLtrJDw0vb6kiKJ7CxD1/MGizV7fpkvj5Nj+C1hQEnJKmXccEdYeNRfFZaC3GKvyaAjCm/4Df6VUlsS4kX+i1wsfMoKDiyuReqBvOFm/RatdLpAKi95LRqoNnEiYkqyQs3ae5iA5b1lRDkvbK8V1k9y0fXUQz0e9rQLX2HOr1yx2QwD2n2LhMWoqDMWSBaLkDzlEVjJjXXJWcgpj2TIdYQ06iJkTZJkLB3NZxyE4icxFkvRbDNSOiuwQqh2lpNJ5Sk7+ZgO9sjOO60T73BJJe1ofIUU0U6L4ok1EkdBLJ60hcW6LbTkebPcakM4AvI8PpoNKCmD6fCXvqA9vztoTUnLj1mljF+aCWErJSrFn82H+P4Tcepawu/lIErcB5tbbLqnBVAaUOWs/6RBkmwS1RoaKk3aTLrXZqMLbS56rs3ac307H1+0QmYLXtg+3+bWkcX0bIvq+2xoaJfIKtvmOAD+lhvCVjCQpKR7rYtQjWLB6hFL4eHR8G7aoiitUMyiU4/9WN2xhGUCQ8etcI1l2tGcKMlinqwollmBx1U3VbAYUxHWztw28PYXlgOMvNpFUnGFV2em5hL7waN1u/vQHrvzR5N22w/H7Zbvjdg37k7s69+N7Gu3F/bV7+T25W+37cu3Ii2XL93S9Je4P9+VL918zO67/4g11Sv5GFL2Dp4yuBhVEIXYFANaK7SwRYkG5ep62+lOa+X7rVnst060V93LpHWK7u8Q8j6npGO7rc07ntmEyyJLPtu4WvyYLWgo0LRRaxWMQ3nJpPSSXlPbBIEQThLt+phaDdXXdy92ygMesKnsOTZVXGKz8aU2X7/c8h28xH2tFZPXmu261uJd11kxcY2l4y+w5vBVLu3Rn7KWtotDV1izfol/peAv6qhH0uCgmyc0U75yFFsZMg0kKTV81sC7IWPttqnWATvSutiebF1hjy5eZj+eO2gPzZxpj8yca4dmzrND0+fbozPn2+GZg5IL7NHpCxR20MMPz1xkh7V/ePpMe2J63OY7O0R3VtWVgfy1vG6G2wLLZKBD5ZjfAcIWHdM4stgrrzkpku6yPNlrhbrhDsfxLsuSPepY9mm6fobZyBkWSeKxAxaPnqnj/VYM77e8sU+y12qNM9ylBNuqJmkAypom4d5zCxhIUjJibMajNp1O2I+O7rP7Dx+w+x+/QHLQ7nniLLv7yX12+8MTdvsP1NU8uNNufWDcvnX/qN1835DddG/DbrqnbjffNWLfun3cbr1tyG69PZVM20J7XG2XX2voWsqHBNsJ0hvVYUiXNG4Fn1SOKihQNNzLCT+G7yshe3h4bzap5dYYimx0JLHR0ZqNDLNNbHysZmNjo1Yf2i2ykz55LZOQLEPGm2MgSRnsVWgcGNuCuuvF+rk2nZ1hc8UBayfnW6fxHLOdl5lNXG6FtsUO7btc7lKMs73UotHLLBu73NIxxRm70Nq+sCdOEmNhoK0Z6XTB8ogFwuDFgs8MDVT+rRARJZa3XWqxxu4SlnhFuDdshcbmIir3LNnya2iJxo61WmKNemJxPcwANNPpkrDHxuV6AptgIElJyxxRa5WO1opSeU21YSnNeo+xxoR8O55Go5YmI1Y0xi0emVBXMmnJ2KTVxndZfcduq+2YtGgnv2O42zrqarLRPeqWakpbLZ0BuP9IwNZWlj0dwD1e92CCc1Nc4VfXwhSEOxzzIg10YCIkibgtp27YmUy4akX2YgrqqzHz20CqC6RgfXZE9i00eneKswSi/oWfrQkpcK847G2MzWOcIiiX3mM9yCRJrF6v29DQkA2PDNvIyIi6GHVPOoeJve32NOAKg4XThpQQrlw5t9wuiY6TmNYPJbvgkUOFgcRpQ0pQkg6P6V5T+/yIFD/XESfcoytREXKQcVp5ytWy9CxXbPTftdFu5mGMlSpiDipOK09Z4fRARcoKA4dtQEpGkqWA5ZFlhcHE6U3K8plr3+Fj1UkMKrZJzUDMylueKqjcRYWBQ0XKCgOHipQVBg4VKSsMHCpSVhg4VKSsMHCoSFlh4FCRssLAoSJlhYFDRcoKA4eKlBUGDhUpKwwcKlJWGDhUpKwwcFhLysL8m+Dy5S4+vwqf7kcK52N0vnVhJZr1xZftkIDyVcYyDf8eWOB/Yq1BN4hP4B3Kj+WSCAn/hyhBVubbT0B5BJb/D9/sgFJX9sLnZugarulN60QklLIXZZlAKEOwl44UWJaKbdhbtudGUqbhV6oC+cYbWwUQYznPMhf/FrwbxtXhzMp0j0dAqKveHMPZELY1rCFl1slYtFA7YXGijgreUWqJYu6q55akTSld20D45bFE5eHjLTII1cyCR6nVLE1GrZDFanxtmGeWKOFU28LJGlYEY1W06bzmhq1nbRvOm7qSj9pl7CS1otZSfIyo/Hqlpxw523pd5c5tqGhbg2XvlGeLdqV0o1q5PqVIzzmRsJ3FttDmZGxJu2VDrALRk+aS9ORJeaXpun/+e5U0ZOl3dLppOSvnyhYJq0zoHPZtK51WVthwUsjsTV0TlkrBgKwS4rqs0m+l1K2TJJbHmYre1nWpzXZaSlfa0bjyRc+TciSsgqEzrCPUjuvWVJxWa8bqUQujhPR69NtUesqBvgvHHrOOTNsWB5op61Rm4hTLM4pLLG6g7WZQPbEE6zJyGSdWCh0phW9K60M2W8T28S99077/2JQ1RZhUBVgPvvJCTxt1yBh8WVirqfDavvNll9j1B/f6Pt9o8zks2xIUqKU8Z7LIPvzpG+zwfG7zMmAK2X1dG9IvV1voryaetqP8WJZ6JFu00XTB3va6l9vzztpjw4WIIrIbP+fnjSaQs638WsmQHZ5p2oc/9VWbka6LNX6Efx24rsueoB8m4hl7/9tfYyMi+rBsOyKisXZj8GZBEumKXR+enrcPfeZGm+WnA1lxwlPgfwi6fh4g+DmVR5u6dN7biOy9b3+17RH5650Zy+tyBiIRawKxGhpap7Vhr9sb73rAvnbr3TYXs2Laaj8FnVajf1kaecsuGc/tnW95rWycW13OhIbQGBpWuqysUdprY/Ql5dTUMfuff/I/DA4U9WFrqWIen2vbjLxIlikzT359rK0kjlkkQGdUyLNGY9szFJTnU9jVn7tif9HJPcihqQWb6kAwfguSs4GUKAuh1gPLHC+qQSUiYF0er5G37czJcdtRl/HUC+A1c74H97TwTKrWpGbzHfUM8uaPHJ11kvKLvBshGHj9OI2kYwf2jtloXLPO7LyNyAZ15eMrnsmLo1PSkkdOhq2ZjNuPnpq3Zl73FYzRkUWn+DVhfrh1Bch4KVtsqQARjF6KNTuHpNNzD+y2EXnBWjpvLZE8Uz3yQ64Qk56riQ1HJ+2JmUU7orKZ4qyPFRn2Bf3csHrZc/ZPSk81fJFybKRh/+m3/7NN7NknnVkm5gRImaa5HTt6xP7Le94jz6aAWGpI0aIxaovqT+tiTA0vswH61SPkW4K6axZ9Z3mVkpC9xITUeJSWurpCLXxOZbKavJoqktV9fXWwnvj9wHipo+4bgpMeZSo6bRttDFm7qe5Eakc1Ol9IyYrB8h0iaVuNsqNWHdVHrK1+aGgTUm5y2jI17HbeUddct2FsIF0KujQVzIcgEhpNJtu2o4bVRyas1aZMahDSkeWwISRd/UZw/YhNLyZy8seQJW4v2s7Rurpz6UWoN8CwMFVH5E2GRmxe+UWNhkXr1msvjTZQuEhsx8ikNednpeeC1VRfOyfG7AN/9mc2smNC+clrso5TN/p6WENKxjFpO7XWglrs4qyTpVxHHO9D6/XxzjrwDGWU1RlzXGbk/m3DkjHm4hcL2MOriFZUqIzJ0tKEQqdNV/HyigwZFSqTqm5JSDukAwEkXQ+MdoR6N+Z6rO+NPYmursjq6uJYztZ/MSHOw2JS3kgknPMisR9rnE6eHgNPIO2ws8qFvpwrJ4j9QBlLe7EAVRjrQUDOBv1EfQlhNMDgFCg09ep5d+27HjjryW0AXzBMUnLEhwqaM+zYtVvkb6hx5tZQPutrErCGlErPJyh+IQRQQiVQmuxWXNCbg5/oErInUojC/92Rj08wNgLeAUPqip70Q86ijDYY3n8sfwkrMyQOg/oyANpRdiYxIWYoD2Xxuwqk6+HL6VCxgShdLJ0qCxUMTF5lestXB/hPpcTyTGS11DAApIds8lgJ67OD8L/HUpHInZLTP6zQtcweeIbSLILYQcdAsrBfgkYRqwIDt4M1vLLZAp1Iw0kOutteENaNu4SeY51GP8odrg47hXofktU0VQch/3B+fawhJWYOATKwCs1xbyKQJFsqfH94BXT318eKbNcgkJH8e9G9Ridp2SWN+sGrpA/3g0fowtmkSEtF4ZxXqR8RV4MM318Pm+tK5cgruUJISRTtk402dOVgmUIrCx5KtHx2NcJZGsSSIo5e+4Ry6s/L0S30yuga44a8ThSoEfqZ0oKaMGu4wrg8li1jDQVDQ9gYa0mpiygYoQhjj7BOdihumDX2Gq28vFSGImHA9ZVbLvIG6MmiW2fLUHnyGuUsI61NjzUWWVtxuVSgNx5kCXuh0sM2oKRAbx799NmCruomI5Ey5Ey8ZQ9Wrj/u8G33gGBFIWdCuMonPCtQngEhTbTAVqU2pRE95pIRyZv45bU65xGIvTqP5ThrUaa3jNAsuol184GMicR5pbG0JhJE3RDBOj1gVoaH5A5NTde3Wpr5KTwTQzuatTZbmuYrE+4/kXWn3bGpY1MqkWJJ0k6qsLa2GjQrrU6brqmwhfk5y9KOLWqs6vl0hwWZ0in3l6CkMrUw8uG+aUcTjrbyidQlpShGqZVXSxOWQtdSDuhBmZDm4mLoMnSu1b021b6bi7Iz0epeVRqeY/LxxbH0R/4LC4uuHzEyzSrZtpstz8PLlgYboBc6llt0RzjuaOujA4ggpoVFSAFbidIpMkVw+8ku2i802WrL7j7ZIY7CF+YX/Ar0DRJotTA/72Vh4pYziVJSqcrqgyjyw1wlw91wgbIgpC49lDf1gD3RjbTJA52xJeljB7YIcSgv+nPcbrVcOi0WXyXnYGMvjIBOXsfc7N4C1k50VoHCNlXYb3zjG3bnnXeKpC274oor7Bd+4Rfse9/7nn3+85+3eRnm6quvtp/92Z/1Sv3+979v//Zv/2bPfe5z7Y1vfKP98Ic/9HiHDh2y8847z37u537Ozj77bBF/uZArZucC+ZIu13E9xy9/+cvt+uuvtxtvvNG+9rWv+ez9Va96lb3oRS/y8w888IB96lOfsre//e124YUX2le+8hW77bbbRMq25/dLv/RL1tAsk8VUV+dXYmFhweVf/uVf7Ec/+pFsX9g73/lOO/fccz3PW2+91fP6xV/8Rbv00ks9Lra55ZZb7H3ve59NTk76NYCyHDlyxN7xjnfYjh07PE+Iz/3aXlBhlPHJJ5+0v//7v/f9nTt32pve9CY766yz7JOf/KT94Ac/8Osoy969e/26f/qnf7InnnjC3vWud9nw8LB97nOfs3vvvdftMjExYe9973u9LOSJ3quBHsjDDz/sZaWe9+3bZ29729s8r3/8x3+0Rx55xPP7zd/8TU9jenra7frUU0/Z7/7u79rc3JyHcT3lx+6//uu/7g2DNHrreKvY9AoMxkq4FB7SvfrVr/aKobA33HCDZwoJvv71r3vY/fffbx//+Me9sBiX6zDSJZdcYu95z3vs0UcfdaJwHQUnzkagMqmcF77whW4MygNhXvGKV9jrX/96+8xnPmMzMzN2880326c//WmbnZ21o0ePejwaAI3iN37jN+zBBx+0u+66yyuPMvUD4WNjY34tpKAiSIPKX5TH+Pd//3d75Stfaddee60TgLJjg29961t27Ngxvx6daLjY6Nvf/rZfNz4+3s0h2HM1IA42phFC9He/+92uA/ndfffdds8999hb3vIWJwwEJY0///M/dzLRYAHXE+8FL3iB24V6gozELR9a9IJw6oUtBHvZy15mv/qrv+qO44477nCdDh8+7GGU5ctf/rLr9bd/+7duR9JG0PdDH/qQ2+n3fu/33D40vjLtE8GmpGSZZgz7hje8wQ2G8oSRKQR7yUteYgcOHLD9+/e759y9e7f9yq/8ilcExoCcnP+Zn/kZ91a0xrKSytbbz2uhEMTAuBdffLHnCWGIy7lrrrnGnvOc53gajz32mKf9y7/8y244yAHpabWkgQfdtWuXx8eIlL0fuA5DowOeEBLgVUmLiqNiL7vsMi8PxzQA0nz/+9/velE2dKaR0IB++qd/2m0HSBf081iki8d93vOe53bGy5EnS2JjY44PHjxoV155pZOG8tMwfv7nf973iQtoJMSHTDRmyoJOpL+aIKUdKdd1111nL33pS90rkyfX4YHPPPNMu+iii9yh0MgoO/WBgyBd4mF70iE/HAT1xHFJzBPBpqREUQqK0eiK6JZf/OIXeyGoYAoKWWhNVHxZ+VxHRREPo1DIz372s3bGGWcsKVWGk85qYGiuR8n77rvPKxlPzTXkyfVsIQ1GoKVCfs6XeXIOQ+FF6VYxIlISdzU4x3UYk8rCS9100032O7/zO964KFMpnGcLSckfG3CM3nhyGiHhlJ+8SJO0kdUodSE+3pKehPivec1r3DZlJePlEexCT8E56qZMg8aC7rfffrt94AMfsKmpKU+H6ylbLygH1xCfc9QvQweOGSKhL3HQs9SDLQ2HspI319MAifvQQw952J/+6Z/6NZzrp+tWsCVPiUHwDH/xF3/hrep1r3udVyDKQFQyL1sF4cRHSnCOsSHdAhVMBVJoCg9x+hUe4lABEJLuEy+IpyjPYUQqB6OU5CRP8uJ8SbDf+q3f8rEPjYaxH+eIX5a3F2U5SIdxK2VmXEZaeI2yoVHZxCE+NkAXwgkjDt3ov/7rv3r3zZDmE5/4hMej0jjfD6SFfOELX7AvfvGL9gd/8AeuP16bMgNsTR6Qg7jozHgOkPav/dqv2Zvf/GZ761vfutSrUDbAfi9KXUv83d/9nTcIhlicw7mQL3nhDcv6pqckDCFPyoAnZ8iB5+aYsWXZGE8Em5ISYPCPfOQjblC6D/Z//OMf+4SHisPotBa60JIUKIAAvNw///M/2wUXXGAf/ehH3ZNQaIS02a4GyjNe+uAHP+gGZgD/13/91542HoE8P/zhDztZ6HYIx0ikRTkxyF/91V/ZV7/6VR/3UW4G7JzH6P0MRtk5j6fCq1MxjJXJC49Ed07ZGevRG+zZs8fz5Rxpkj/l/uM//mP7wz/8Qx+nYRNIQv5ULJW2GpAP0GiwJ93lX/7lX3q+l19+uQ8T/uEf/sHLwuSRNNARopEfYJiA00Bfegf0gyzkiUCiXqArccq6LYcF2JTe4aqrrnLvR8/4+OOPu+enMRMfh0DdUg4mgNiAuqEhYmPsspr0x4Pkj/7oj/57d78vSuXxapAKA6Is3SHjSY4xGoNrKqosDNfQnSJ4C86hCEpgyPPPP9/jgX5eiwouKxxSYgC6aCoFg+H5CKOLgywl2agcKhXDsE/ZKMtrX/tae/7zn+/plg2nX2NAX4QKYDxKeYlHQzjnnHP8HGRlAoXupEU+5EEjpQzlmJm4DFewFx6PvEHZWEtgW/JgPIid0JmGRprlmA7vw1CBbhu9yy4UwlE2ykKvgefkGuqjJA7pU07SK1Fei+CB0YkGTllJm7zQnXyxG3c+0I34pIM+2IOyMnbHzpzHztQHWJ3nVrHpLSEyopVheMhEJgiVSksjrOyGqQTilt0jxyhBGoBfqcJQZElQkoSBOL9WRZrLBaF7oLLaSndYLXPelV9UKx0d5kUJkaaucaUikU7BfUddj6HJizKRLm8lcY+yxhtG+uMmrulfc7FlkfIeGlpJylCuMH6jnIuLTePXtNANvdCZyi9Ji8egHKQdxxqrthdtSOGZyjc8Mup581hTJXR9koQbyapUgnrqirIGO9TcE5VE4rgkcr1e2pEhCsQIdVPaOE3bCmeoFQjfVlnQm/R4ksJP1FGOXszPL8hWw1528kFndES33joNdRZm8YB96pct57AXYJ/rAHHZ79fwN8OmpDwRhIcHItmS4bnRS/dBl8kWA/OiE5YNpiJuHlO9oRL82fYGIEWSR/wVr25eTlKF+itShQbpxnuYHIsUuQxWaADefTezvB70GqEsN3qQzrrQKfTiRZWOrqFZqYOTUaVDrvL7L3LFnp4/5iOpbnKEeT7d6zaCvzyB7UirkO3CRd1z3et5tY08yxMxDQJ9pXkR3hsNL6iUhehmXoriebrAN8ShrkDZigh79vETIGWZvAi39PKDCMVTBpTtMiBUEHF52wVyegCn+iI8wy1jhNjdbAW1XjyehNfQeFMn0cm6k7LjpMwU7qZ277MMjrpJe1K8YbMZIF7q1/D6Bk9iVPkF3lkzVoWLSl5ez6vMTg3F31SSrhA72Gwd+GNd9Qo0rZI8/OMaP9e9OO8ZBnESYkJKwrvlC/ALw+7StoTOLQWRdvC8PzmY/X+pyXqf/LTp4AAAAABJRU5ErkJggg==;" vertex="1" parent="1">
          <mxGeometry x="420" y="270" width="165" height="133" as="geometry" />
        </mxCell>
        <mxCell id="GRdJn9pDozvjfMk0XIZr-3" value="" style="shape=image;verticalLabelPosition=bottom;labelBackgroundColor=default;verticalAlign=top;aspect=fixed;imageAspect=0;image=data:image/png,iVBORw0KGgoAAAANSUhEUgAAAKUAAACFCAYAAAA6hzjsAAAAAXNSR0IArs4c6QAAAARnQU1BAACxjwv8YQUAAAAJcEhZcwAADsMAAA7DAcdvqGQAAABhaVRYdFNuaXBNZXRhZGF0YQAAAAAAeyJjbGlwUG9pbnRzIjpbeyJ4IjowLCJ5IjowfSx7IngiOjE2NSwieSI6MH0seyJ4IjoxNjUsInkiOjEzM30seyJ4IjowLCJ5IjoxMzN9XX2GuYHZAAAtK0lEQVR4Xu2daZBlR3Xnz733vVdrd1WvUmttCSSh3YAkEItxQLDYgA0BtgEbG+OxGY8JcEzYHxzzwRPhiLFjmJhw2B9sR2AHZrGNzWbGmFUMBo0EEmhBm4UQSKBWa+vu2ustd5n/7+S7Va+qXi3dkujXXfdfffremzdvZp6T/zyZeZd8UZ7nhVWoMECIu9sKFQYGFSkrDBwqUlYYOFSkrDBwqCY6myLqbk8UlXmPFxUpN4Jb5mmSMqrMe7youu8KA4fKU/agKAqLomXPKNt42Fr0856ErY1LcnEce1psV+dRYS0qUvagl4CBQKmlWacbcmIocohZs1qt5mSEnBUpN0ZFylWAmGmadsmT29DQ0yNQUST6v+7pkmaScFxhI1Sk7AFkxEMiIMub2m/7fn9sRNhg1iyLFWvEyUj6eMwKG2NbkzIoLo/oB1HovqOOzbefsm/f9VXr2KxI5JF6sB4RCV9rylq+w6698tXWqO1UVz5kcSSSxsTLJHjNp+eJT0dsW1K60uKDOlWLNfCLCiYjOo6bNtN6yL70zY9ZkUxbJ0s9/kr0I1J/Uo4U++yNr3i3JdFu8XBCHlOBkQiJFDAer7wtq2BdVLeE+qDgT16zEFnjpOgjhK+WrE+YyB6L6RWOCxUp+4BenElJnmeiZ2uVtFdJZ5WsPk83XeF4UJGyL0J3CqG4e7NSuM/YK2GWviyrz3tSFY4DFSn7gPuIvbPwCj9ZVFbfEOuZB/e3Woi7OqzCiaAi5aZgurxaMNtWRHGLipzHCyx3GuMZmPnyRGZLIlP2C9/MYz5jd4PQtVdOXQwuKfEw/eS40K+SetPrBm0ETV6elmwlk179emXLUB7lvU/Ps5QSx5PWyceAkhIjp6ukE8S4mb1VwVOhIkLFdCtn0OpoiVAq8wnpqmuXPDW6lnqXeMbc8U8EvSUfIEDKtqS1XEFeaYT3Stcb9RWSoaK04xKSXYJf390/mfByoGtT0qsrOnCulNX6lXEQnV8aLlClvYrpvIvinCIYUFICDIuR2UKurhfg0ZxLtxLWlT4vPnhdUTmDVkFUQ0mmUtcePVYcrxNeEnGp20fHLhkh7ikELDGAoGKGXbK0bkXeUFhdQkVwrqw4jteTsnIEdv2wsCyTh9G2yOn2BgAqZ5HXLU8blmcN6StdKb/rio5b0VXne72qyNhuN/3GfV5kS49MTxUMKCll5zxSJalqksT5FB77SYq0K+xvJIpji0EKpCVCtv0pi1KXDI7qeRapXLHrzAsbeffdy2VdM8lq/XqlI1nokbY1GomIGAjJm0ndVnlKYGBJGatyEpyABvLtdF4OBZmR45iWTEmO6Vj7S6KwXokVN5qV6DprSlr+Gloch7e/4wF62RbiwRsaTprRkOa6ZUdfdFmlm+vXe0xcrkEWXdc0Z8tj0rKbOHVIOaCvruXWSRetVo9tbk5Gt7bV6cGXJgIqcu84qi90zrtw1XYRusQir9nI8IRfG0XyJEqn36tr060f2pdu/pjlyVEdP71ufjjbb294+W9v+OpaITIy7mu1521ufsrGxjVUcT2Vt8fDd2zkP6hC9EXXMMyZn2vbnt1nWKddWKOuoZCPz08NDCgpIV1mreIJ+/otn7VjC4/IpryxQ1ckr+Jv3lABG5FSlS3RiE2EEwmzcbv++a+3/bsvUtiwzug89XiySal86Q1yefSjcw/bN275nOXxrIovolL2nPNcs3E1RYxNywlNPmojjbPt1S99qzWiCR8WQMpT5dugjZrfSQTGU9HizDo2Ze34iLUTSe2o9qetJWmr+2onG4niujxpnfgp66iby9W1hZnoYLXDWJ7NOSfvmGrY0VZ52/FRL3NHuqbo21fHZUk1nEkTXSd929p2jCFN3m100aBWdF+cSmWtsE1QkbLCwGEbkFJDAUYDp8ZwqoJwWpMyvKir8VSkrd+rq3AqoKqpCgOHipQVBg7bhJSDdQtoLcryhdfQwn1Y9sN9R+7PcmtnPSFGpqrMu6+scc9VQUqHc9znTCSnzqD69CYlT0So3KXn3QCVEVXSQHE1dxIl1tE2VQk5Bjx50pF0WCHx8n6miGlc01UNJTNkcZFYreh009L13Dzf8EHDYGGbeMo+cEIOSEVBmnxUbWdcBNqh/XF/AhXlw9o2LM5EtGxkpaQ9+3ldE7lFl4h3UI3Hlm1pxz5h7jZPGWxfUg4SWEUjbsrjdeTQ1FWLQFmcaZuKUG2dCyRzYcGtXnHydVSRCF2/sPQ4kWGAvKU/mh2obmFDVKQ82eCxZzyj7nhKpGxaO8kkUVdy69TaliYdyxTuIrKuEA8T/fJJy7LdluZ7JLstKyY1ABhVBjxfP4XcpFCR8qRD05qcF0cmrF3stqPze2w+u9BmOxfaTOegTbXOtZnW+TbTvkBy0Ka1P9U836ZL0fG0wmeaitc8T3HPsdnWWTa1uNvaJpKq689TxpXd7E4BDO6qa7JiKzpkN3zzY3a0+bAaPN2ZWhEL/Xg3Revf2ANEmoxGhSYNRcOizi57ydVvtjN3X6UwjcN4O0eXF5HmrSf5LSFehm8r/IGn5uwj/+fz1lIk+UfL2k3LO22d74hcma9vmaYdyzMVVF00b5PzbqgvxMU6R9IHx1vTGPWMnZP2J7//X21Ex0lL82/e3jtFXFDlKU8yvInpP2bQTc2aZzr7bcYO2mx0qS2OvMCynddZuvNaS8dfaPnEtRbtut7iPS+xbMc11hl7obVGnm/Nkau1vcJaw5dKLpacZwvRpM0r7VRj1LjB2PLUcZVbJGW4U1b+BVM+U3KyEcqxpiTdgGWt+/+V168RPLp79V50j7tRHMyM63MiT27tem7NoUVrD2vOPBTbnMaVUyLrfCI/OFyzzkjD0rEhy8aHrbZnwup7J62xb5cN7dtn0eT5ZjsvkJxryY4DVp/Y6/3IQsaEqCkv2gn5PesoleuV48MaUnKTNSRDX+YB6jrUhfBuX/SINaOHpeBTm8jjkie78pTl2ubREclRa2aPazurhNUNdT/eottcBgfI8StzvKCri0ScNoSQJbgBHecNa2Q1G1KXmZi6T3Wza0XdZleo7EIz4FI0PXGJu2JFxxpxpO47s4QhiPLj5ePCP4TTIERdb11bvkSqayTViIZNPbR/nxS+r1GpYm3jWlcSF6qO41pd5ZWMjjZseHTUasMTFg/tsOFkSCmajarfTuWBi4j8SmDb0s6lPBMgHbwy0r1H7PvHl/6KMWXgIKM1zIZVIut0tE3adt9Dt9hT8w/IuIXlbdRdB36KglDhcD6QnH2MyLjo8ouvt/27LhQZY0vihrZ8OMWFpbG01b9W9OizOqaElIVmtk2IJWrUsrqI0bH51oP25Zs/aO3GEeXEJwurEfKlJJSpF6wc3XtbcEhjyje98re1NyYdx0U2De66t2yCZdA3tfl4yO59ct7+5nN32LF4zDo6DuNdbvWQ10admogda6YeyYtqHDCSLdqZxbT9t3e9ysZ1NpFTSWJR3wed5AnKLeiWVg1kE5NuAdR9Tz5uIMouWZH/+thIU0+b72RYpfbosUft8ScftsNH7rfHpu5dksM94mHHynP3LZ87cq8dOnq3PXrsbnti9j9soXXMe7bl1/PL7U8Yni1vZeOn+FOlxPKEYlYqz5IVQ/KcOt+VZElU0RImFIUInyseYpKCfQvbsF93UWzJsrm7WauewiDg6SJMeORS8MqxNKqhk9LnZNngnRDse8YSiNIli8T/2D4NWf4UWlv/BslndhIIH5zVZtiYlFKEL+2KvK0kNWxWt8vnCXljdkmKHlkKr7Od6R7PmI3M+X5an7JM59Ji0Q1IYXHUS9w8GcBjynAYgsd73LBOo9ia8bi14lHLkmJJ0lXSETNTNViE+4WpCF0ed7rbVCRJIxFXefjz5/DPEQjju88IfGgge0LQJKl50m5mIXjl7sF6GUOqdWWZvOsKVlwRxnGwbICI6bIxuGJDpJ2Or9sdcWskaVlcU8XpeH1RN8uW8Zbvq3XUZAVJXFfFcKyKgoiBmCcRXc/Bh2X4lZhxov40CrT5YpctJOfYTHKWTccHNOE40+WYnRGkOMOmizNtLt9l8/mEZNIWCs142WYStkg6ZqnGqam8RxgadbOFGdhoC5W0Jcig3vN069/ty5YD7XiWoGtzNmEsj6dWPTH+U734hX1FUfuG90pIjRyo26WRoW/03xa6brA+KbtsbzTomlRhCV/DoQXhcskbStldhf0s1cA+wxvV/MN7H6zz0q0bSOmdNPDSQ2GJ9Es0vo1lWOw4r7HloSN1e/DxvXb/YxfZ3T8+aLc9eLbd+r0zJGfat/5jv/2/e3bb17+702757qjdeuew3XLHkN18e8Nuuq1mN3+nZjch2r/jvqa1ZIcwNtU2pQtDb9lS+m+tmjaHe0nsWSZY7rp52StPBHvDoTDTS0WeeenNHYB5efanIdGCdVL1pikf6FEez6qLrddzH1IqJWc0pyAVxmSMwH75WlRJvn5CXMXJReKcr/S4RvtLwvmTScQS6BkmT6gbMT7sMCZjjDhhc+09dnT+XHt87jI71v4pW4xfZJ36y6yVvFhd+4vUtb9Y+y+yBbtOHvIam82ebzPtq22mdbXiX2XHmlfa0cUr7cjcXsuYgMieWLWc3LBdGk9u0YM8k4DAPBNn4YOF9uN26Mm77dDUnXZo+o4TlsPH7rKpmUNWr8vrKu3lpWK8BYTdLWDt7FutB4PFIhU1BtvTaMZuuvOTdnj6O+LbgmL14XIvfEDbLQRpkKKyaTSGrd1u20suf4ddsP/FPlOMNN5iyZJuZAmKaKt/z+7sm7zbykZencd8nq3Gk43Yvj/dtv/9iRtturZHnRpefxlLObqr0aWMt+kHM40reTQjPdHVPZfC99qT9r/e9xYbVk5D2EDXRYXiiYgZr58pjUSVtxANP63Zd6ySpiI/P7s3qtn3eY2m/f7bX6Y5P6Zj9h3Gzm5EgZyjqGmd4oj94OHv2h333GzFTm63Y98ePTdAiLmMJBu2s8evtuuveaXKMaoIw+p9uvZzryy9fYy5MX/6nCWr1dmBbjHLxLuC4ZDesIBuOpB8qcWUaZfHJxfeWMp9d5e+ozB59GTMhy5RY8HF6qowSdRQ1yQpauryEh2PiBCjoozqoDauAcrOxOoTkp2xRNvxIWspadFBQ5iO5W1+9kR5qCGSt/9fFuJZRNCVjJaFhuMNKVHDbbTUSI5KjrikW5Ay7rJMqWksiuh03/qnBuiqlT2BbzYmJOgTo4fJVJJLuYSIXLL+aJel0IKR3rCcsaOqAZ8L/XiLRb1jN4yZKEOCkw0UoxyRyietVDFFjUkOGspDSedWa0FEarjw8iySa7xZSEyTl0geuOiIbinDlIY0H5LgHSRiaZyMWFLfof1QH8PywjELT4mQqWwRayjj9zUpzrMMtCqdB/lxG6zd5ub7hOWagGZ1hefcyzxxIdVWNqeOh7vc4kAk+zohcVRqFj4U3Bx9SLmJiTi9mZQ7dHF+DJZ2BgjdMrHplRVYfXKllH/LYSBsGZZw33AjbHz2ZKDU40Sk6wxLhKAerAnoiz6krPBMgK6LT3yXHxBU2CoqUj5LgIylVDg+VKR8lsAkwh/9dW9uVNTcOipSVhg4VKSsMHDoQ0p1N+FfdyYV/l9CeWIjWXnQxcr95aPV8UDV2W1nrCAltzrjovwcM9xszXhpNe5YlrasSLknxx2ucDfSn0zwou4qyYumpKUxVWpZwcsZCva0Otp2rOC+oHIIi3rqGu5jKZ7fl/enKxSrIuZ2RR9PqSCeYQMnU1uUESHrHf/4iDev01Rkk+RZ5o/SNKrvkdwSsYsXtcpt5PFSK3zb8Xi9T1MCyiPIWBFyO2MVKSEKhBQpxBE+FcCT8dfm+axcXicetag2KZnQ1TtdilWSZeOW5WPajom4Y0poXB54h0URb19LeCHWsy6ll4QrqVph+2EVKUEgSEmTJIZAk+p0D9hicZ7NZufZVHqu5DybKQ72lYXogiVZtAtsXtfM5+doe44tSjoFL+n3ErK7Zdczroi5nbGClPhFumfevvY3cXx8NyoSTdqhx/bYAw/tt/sPHbA7H9ll33loh938vYbdeF/NvnFPZF/7bmE33J7aV25L7Yu3duyLt7Tti99s2Re+uWBfktxwS9Pl/367bY8f9c5dGZakBOVW6NmtsP2wgpQgV1fNlIQ9d1hs8sTmW2fZdOtim8kvt5n4MltoXGXp2DWW77zOsvFrLdtxreUSvkdujrzAFoZ/yhaGrrL5+pU2V79C2ytsLn6ezSeXaiiwSwnDvFjDy34MJOPKW25X9CFleIulPIIyvOHTVje+GI/bgk2oC56wZj5prWK3uvU9mpDvs7y236xxwKKhs6w2cb7Vdh60ZMd5VttxrtW1TcbPsmTsgBVDihfzu4ukX3rKkpgVGSusIiUz4vCWOSJy8Mqaf3ejzrw2b+3GrE63rB6HmTWrfVnRDt80M9PWlu9cIs4riVojsfpQYo2h2IbYNiIbGebTii4JnX8lIUtUpNzuWEHKJZ/Fi6588M79RI0vPSxeVFjLVwbL86bitJyU/AJYHLM4Z1uR2ppZtyyBqDpXS3Kr1yKr1c3qIuSwk5Pvv5W+Eu3erdS/QMSwDF4IrbB9sYaUdSiBZ/TfLuRbZr70U3hWtyjjds6oRdywjBUzCi/zppoQhW5f7lHhNblWXmDlJ5EzG9ZEaVjbUcvptiOFkb7ShJjchCLfcNcykDKXd/bACtsSK0hZocIgoCJlhYFDRcoKA4eKlBUGDhUpKwwcKlJWGDgMMCnDLSJQfsu+HNYVf1VuHdF5/+veD+37NHNbIRigaxXfJyx8HvzMIKQa/veUu9mE/CTdzWYYSFL663LRrOVRyxVLJPyCVq1oSltWzOWD+pXLHwRhxZ4g3AnN47akI0l1DSvvBpvwLGq7kdQX8JLS/j4s9pAhhqxhUcpSEqxOjK1ltyxdkiLtrJDw0vb6kiKJ7CxD1/MGizV7fpkvj5Nj+C1hQEnJKmXccEdYeNRfFZaC3GKvyaAjCm/4Df6VUlsS4kX+i1wsfMoKDiyuReqBvOFm/RatdLpAKi95LRqoNnEiYkqyQs3ae5iA5b1lRDkvbK8V1k9y0fXUQz0e9rQLX2HOr1yx2QwD2n2LhMWoqDMWSBaLkDzlEVjJjXXJWcgpj2TIdYQ06iJkTZJkLB3NZxyE4icxFkvRbDNSOiuwQqh2lpNJ5Sk7+ZgO9sjOO60T73BJJe1ofIUU0U6L4ok1EkdBLJ60hcW6LbTkebPcakM4AvI8PpoNKCmD6fCXvqA9vztoTUnLj1mljF+aCWErJSrFn82H+P4Tcepawu/lIErcB5tbbLqnBVAaUOWs/6RBkmwS1RoaKk3aTLrXZqMLbS56rs3ac307H1+0QmYLXtg+3+bWkcX0bIvq+2xoaJfIKtvmOAD+lhvCVjCQpKR7rYtQjWLB6hFL4eHR8G7aoiitUMyiU4/9WN2xhGUCQ8etcI1l2tGcKMlinqwollmBx1U3VbAYUxHWztw28PYXlgOMvNpFUnGFV2em5hL7waN1u/vQHrvzR5N22w/H7Zbvjdg37k7s69+N7Gu3F/bV7+T25W+37cu3Ii2XL93S9Je4P9+VL918zO67/4g11Sv5GFL2Dp4yuBhVEIXYFANaK7SwRYkG5ep62+lOa+X7rVnst060V93LpHWK7u8Q8j6npGO7rc07ntmEyyJLPtu4WvyYLWgo0LRRaxWMQ3nJpPSSXlPbBIEQThLt+phaDdXXdy92ygMesKnsOTZVXGKz8aU2X7/c8h28xH2tFZPXmu261uJd11kxcY2l4y+w5vBVLu3Rn7KWtotDV1izfol/peAv6qhH0uCgmyc0U75yFFsZMg0kKTV81sC7IWPttqnWATvSutiebF1hjy5eZj+eO2gPzZxpj8yca4dmzrND0+fbozPn2+GZg5IL7NHpCxR20MMPz1xkh7V/ePpMe2J63OY7O0R3VtWVgfy1vG6G2wLLZKBD5ZjfAcIWHdM4stgrrzkpku6yPNlrhbrhDsfxLsuSPepY9mm6fobZyBkWSeKxAxaPnqnj/VYM77e8sU+y12qNM9ylBNuqJmkAypom4d5zCxhIUjJibMajNp1O2I+O7rP7Dx+w+x+/QHLQ7nniLLv7yX12+8MTdvsP1NU8uNNufWDcvnX/qN1835DddG/DbrqnbjffNWLfun3cbr1tyG69PZVM20J7XG2XX2voWsqHBNsJ0hvVYUiXNG4Fn1SOKihQNNzLCT+G7yshe3h4bzap5dYYimx0JLHR0ZqNDLNNbHysZmNjo1Yf2i2ykz55LZOQLEPGm2MgSRnsVWgcGNuCuuvF+rk2nZ1hc8UBayfnW6fxHLOdl5lNXG6FtsUO7btc7lKMs73UotHLLBu73NIxxRm70Nq+sCdOEmNhoK0Z6XTB8ogFwuDFgs8MDVT+rRARJZa3XWqxxu4SlnhFuDdshcbmIir3LNnya2iJxo61WmKNemJxPcwANNPpkrDHxuV6AptgIElJyxxRa5WO1opSeU21YSnNeo+xxoR8O55Go5YmI1Y0xi0emVBXMmnJ2KTVxndZfcduq+2YtGgnv2O42zrqarLRPeqWakpbLZ0BuP9IwNZWlj0dwD1e92CCc1Nc4VfXwhSEOxzzIg10YCIkibgtp27YmUy4akX2YgrqqzHz20CqC6RgfXZE9i00eneKswSi/oWfrQkpcK847G2MzWOcIiiX3mM9yCRJrF6v29DQkA2PDNvIyIi6GHVPOoeJve32NOAKg4XThpQQrlw5t9wuiY6TmNYPJbvgkUOFgcRpQ0pQkg6P6V5T+/yIFD/XESfcoytREXKQcVp5ytWy9CxXbPTftdFu5mGMlSpiDipOK09Z4fRARcoKA4dtQEpGkqWA5ZFlhcHE6U3K8plr3+Fj1UkMKrZJzUDMylueKqjcRYWBQ0XKCgOHipQVBg4VKSsMHCpSVhg4VKSsMHCoSFlh4FCRssLAoSJlhYFDRcoKA4eKlBUGDhUpKwwcKlJWGDhUpKwwcFhLysL8m+Dy5S4+vwqf7kcK52N0vnVhJZr1xZftkIDyVcYyDf8eWOB/Yq1BN4hP4B3Kj+WSCAn/hyhBVubbT0B5BJb/D9/sgFJX9sLnZugarulN60QklLIXZZlAKEOwl44UWJaKbdhbtudGUqbhV6oC+cYbWwUQYznPMhf/FrwbxtXhzMp0j0dAqKveHMPZELY1rCFl1slYtFA7YXGijgreUWqJYu6q55akTSld20D45bFE5eHjLTII1cyCR6nVLE1GrZDFanxtmGeWKOFU28LJGlYEY1W06bzmhq1nbRvOm7qSj9pl7CS1otZSfIyo/Hqlpxw523pd5c5tqGhbg2XvlGeLdqV0o1q5PqVIzzmRsJ3FttDmZGxJu2VDrALRk+aS9ORJeaXpun/+e5U0ZOl3dLppOSvnyhYJq0zoHPZtK51WVthwUsjsTV0TlkrBgKwS4rqs0m+l1K2TJJbHmYre1nWpzXZaSlfa0bjyRc+TciSsgqEzrCPUjuvWVJxWa8bqUQujhPR69NtUesqBvgvHHrOOTNsWB5op61Rm4hTLM4pLLG6g7WZQPbEE6zJyGSdWCh0phW9K60M2W8T28S99077/2JQ1RZhUBVgPvvJCTxt1yBh8WVirqfDavvNll9j1B/f6Pt9o8zks2xIUqKU8Z7LIPvzpG+zwfG7zMmAK2X1dG9IvV1voryaetqP8WJZ6JFu00XTB3va6l9vzztpjw4WIIrIbP+fnjSaQs638WsmQHZ5p2oc/9VWbka6LNX6Efx24rsueoB8m4hl7/9tfYyMi+rBsOyKisXZj8GZBEumKXR+enrcPfeZGm+WnA1lxwlPgfwi6fh4g+DmVR5u6dN7biOy9b3+17RH5650Zy+tyBiIRawKxGhpap7Vhr9sb73rAvnbr3TYXs2Laaj8FnVajf1kaecsuGc/tnW95rWycW13OhIbQGBpWuqysUdprY/Ql5dTUMfuff/I/DA4U9WFrqWIen2vbjLxIlikzT359rK0kjlkkQGdUyLNGY9szFJTnU9jVn7tif9HJPcihqQWb6kAwfguSs4GUKAuh1gPLHC+qQSUiYF0er5G37czJcdtRl/HUC+A1c74H97TwTKrWpGbzHfUM8uaPHJ11kvKLvBshGHj9OI2kYwf2jtloXLPO7LyNyAZ15eMrnsmLo1PSkkdOhq2ZjNuPnpq3Zl73FYzRkUWn+DVhfrh1Bch4KVtsqQARjF6KNTuHpNNzD+y2EXnBWjpvLZE8Uz3yQ64Qk56riQ1HJ+2JmUU7orKZ4qyPFRn2Bf3csHrZc/ZPSk81fJFybKRh/+m3/7NN7NknnVkm5gRImaa5HTt6xP7Le94jz6aAWGpI0aIxaovqT+tiTA0vswH61SPkW4K6axZ9Z3mVkpC9xITUeJSWurpCLXxOZbKavJoqktV9fXWwnvj9wHipo+4bgpMeZSo6bRttDFm7qe5Eakc1Ol9IyYrB8h0iaVuNsqNWHdVHrK1+aGgTUm5y2jI17HbeUddct2FsIF0KujQVzIcgEhpNJtu2o4bVRyas1aZMahDSkeWwISRd/UZw/YhNLyZy8seQJW4v2s7Rurpz6UWoN8CwMFVH5E2GRmxe+UWNhkXr1msvjTZQuEhsx8ikNednpeeC1VRfOyfG7AN/9mc2smNC+clrso5TN/p6WENKxjFpO7XWglrs4qyTpVxHHO9D6/XxzjrwDGWU1RlzXGbk/m3DkjHm4hcL2MOriFZUqIzJ0tKEQqdNV/HyigwZFSqTqm5JSDukAwEkXQ+MdoR6N+Z6rO+NPYmursjq6uJYztZ/MSHOw2JS3kgknPMisR9rnE6eHgNPIO2ws8qFvpwrJ4j9QBlLe7EAVRjrQUDOBv1EfQlhNMDgFCg09ep5d+27HjjryW0AXzBMUnLEhwqaM+zYtVvkb6hx5tZQPutrErCGlErPJyh+IQRQQiVQmuxWXNCbg5/oErInUojC/92Rj08wNgLeAUPqip70Q86ijDYY3n8sfwkrMyQOg/oyANpRdiYxIWYoD2Xxuwqk6+HL6VCxgShdLJ0qCxUMTF5lestXB/hPpcTyTGS11DAApIds8lgJ67OD8L/HUpHInZLTP6zQtcweeIbSLILYQcdAsrBfgkYRqwIDt4M1vLLZAp1Iw0kOutteENaNu4SeY51GP8odrg47hXofktU0VQch/3B+fawhJWYOATKwCs1xbyKQJFsqfH94BXT318eKbNcgkJH8e9G9Ridp2SWN+sGrpA/3g0fowtmkSEtF4ZxXqR8RV4MM318Pm+tK5cgruUJISRTtk402dOVgmUIrCx5KtHx2NcJZGsSSIo5e+4Ry6s/L0S30yuga44a8ThSoEfqZ0oKaMGu4wrg8li1jDQVDQ9gYa0mpiygYoQhjj7BOdihumDX2Gq28vFSGImHA9ZVbLvIG6MmiW2fLUHnyGuUsI61NjzUWWVtxuVSgNx5kCXuh0sM2oKRAbx799NmCruomI5Ey5Ey8ZQ9Wrj/u8G33gGBFIWdCuMonPCtQngEhTbTAVqU2pRE95pIRyZv45bU65xGIvTqP5ThrUaa3jNAsuol184GMicR5pbG0JhJE3RDBOj1gVoaH5A5NTde3Wpr5KTwTQzuatTZbmuYrE+4/kXWn3bGpY1MqkWJJ0k6qsLa2GjQrrU6brqmwhfk5y9KOLWqs6vl0hwWZ0in3l6CkMrUw8uG+aUcTjrbyidQlpShGqZVXSxOWQtdSDuhBmZDm4mLoMnSu1b021b6bi7Iz0epeVRqeY/LxxbH0R/4LC4uuHzEyzSrZtpstz8PLlgYboBc6llt0RzjuaOujA4ggpoVFSAFbidIpMkVw+8ku2i802WrL7j7ZIY7CF+YX/Ar0DRJotTA/72Vh4pYziVJSqcrqgyjyw1wlw91wgbIgpC49lDf1gD3RjbTJA52xJeljB7YIcSgv+nPcbrVcOi0WXyXnYGMvjIBOXsfc7N4C1k50VoHCNlXYb3zjG3bnnXeKpC274oor7Bd+4Rfse9/7nn3+85+3eRnm6quvtp/92Z/1Sv3+979v//Zv/2bPfe5z7Y1vfKP98Ic/9HiHDh2y8847z37u537Ozj77bBF/uZArZucC+ZIu13E9xy9/+cvt+uuvtxtvvNG+9rWv+ez9Va96lb3oRS/y8w888IB96lOfsre//e124YUX2le+8hW77bbbRMq25/dLv/RL1tAsk8VUV+dXYmFhweVf/uVf7Ec/+pFsX9g73/lOO/fccz3PW2+91fP6xV/8Rbv00ks9Lra55ZZb7H3ve59NTk76NYCyHDlyxN7xjnfYjh07PE+Iz/3aXlBhlPHJJ5+0v//7v/f9nTt32pve9CY766yz7JOf/KT94Ac/8Osoy969e/26f/qnf7InnnjC3vWud9nw8LB97nOfs3vvvdftMjExYe9973u9LOSJ3quBHsjDDz/sZaWe9+3bZ29729s8r3/8x3+0Rx55xPP7zd/8TU9jenra7frUU0/Z7/7u79rc3JyHcT3lx+6//uu/7g2DNHrreKvY9AoMxkq4FB7SvfrVr/aKobA33HCDZwoJvv71r3vY/fffbx//+Me9sBiX6zDSJZdcYu95z3vs0UcfdaJwHQUnzkagMqmcF77whW4MygNhXvGKV9jrX/96+8xnPmMzMzN2880326c//WmbnZ21o0ePejwaAI3iN37jN+zBBx+0u+66yyuPMvUD4WNjY34tpKAiSIPKX5TH+Pd//3d75Stfaddee60TgLJjg29961t27Ngxvx6daLjY6Nvf/rZfNz4+3s0h2HM1IA42phFC9He/+92uA/ndfffdds8999hb3vIWJwwEJY0///M/dzLRYAHXE+8FL3iB24V6gozELR9a9IJw6oUtBHvZy15mv/qrv+qO44477nCdDh8+7GGU5ctf/rLr9bd/+7duR9JG0PdDH/qQ2+n3fu/33D40vjLtE8GmpGSZZgz7hje8wQ2G8oSRKQR7yUteYgcOHLD9+/e759y9e7f9yq/8ilcExoCcnP+Zn/kZ91a0xrKSytbbz2uhEMTAuBdffLHnCWGIy7lrrrnGnvOc53gajz32mKf9y7/8y244yAHpabWkgQfdtWuXx8eIlL0fuA5DowOeEBLgVUmLiqNiL7vsMi8PxzQA0nz/+9/velE2dKaR0IB++qd/2m0HSBf081iki8d93vOe53bGy5EnS2JjY44PHjxoV155pZOG8tMwfv7nf973iQtoJMSHTDRmyoJOpL+aIKUdKdd1111nL33pS90rkyfX4YHPPPNMu+iii9yh0MgoO/WBgyBd4mF70iE/HAT1xHFJzBPBpqREUQqK0eiK6JZf/OIXeyGoYAoKWWhNVHxZ+VxHRREPo1DIz372s3bGGWcsKVWGk85qYGiuR8n77rvPKxlPzTXkyfVsIQ1GoKVCfs6XeXIOQ+FF6VYxIlISdzU4x3UYk8rCS9100032O7/zO964KFMpnGcLSckfG3CM3nhyGiHhlJ+8SJO0kdUodSE+3pKehPivec1r3DZlJePlEexCT8E56qZMg8aC7rfffrt94AMfsKmpKU+H6ylbLygH1xCfc9QvQweOGSKhL3HQs9SDLQ2HspI319MAifvQQw952J/+6Z/6NZzrp+tWsCVPiUHwDH/xF3/hrep1r3udVyDKQFQyL1sF4cRHSnCOsSHdAhVMBVJoCg9x+hUe4lABEJLuEy+IpyjPYUQqB6OU5CRP8uJ8SbDf+q3f8rEPjYaxH+eIX5a3F2U5SIdxK2VmXEZaeI2yoVHZxCE+NkAXwgkjDt3ov/7rv3r3zZDmE5/4hMej0jjfD6SFfOELX7AvfvGL9gd/8AeuP16bMgNsTR6Qg7jozHgOkPav/dqv2Zvf/GZ761vfutSrUDbAfi9KXUv83d/9nTcIhlicw7mQL3nhDcv6pqckDCFPyoAnZ8iB5+aYsWXZGE8Em5ISYPCPfOQjblC6D/Z//OMf+4SHisPotBa60JIUKIAAvNw///M/2wUXXGAf/ehH3ZNQaIS02a4GyjNe+uAHP+gGZgD/13/91542HoE8P/zhDztZ6HYIx0ikRTkxyF/91V/ZV7/6VR/3UW4G7JzH6P0MRtk5j6fCq1MxjJXJC49Ed07ZGevRG+zZs8fz5Rxpkj/l/uM//mP7wz/8Qx+nYRNIQv5ULJW2GpAP0GiwJ93lX/7lX3q+l19+uQ8T/uEf/sHLwuSRNNARopEfYJiA00Bfegf0gyzkiUCiXqArccq6LYcF2JTe4aqrrnLvR8/4+OOPu+enMRMfh0DdUg4mgNiAuqEhYmPsspr0x4Pkj/7oj/57d78vSuXxapAKA6Is3SHjSY4xGoNrKqosDNfQnSJ4C86hCEpgyPPPP9/jgX5eiwouKxxSYgC6aCoFg+H5CKOLgywl2agcKhXDsE/ZKMtrX/tae/7zn+/plg2nX2NAX4QKYDxKeYlHQzjnnHP8HGRlAoXupEU+5EEjpQzlmJm4DFewFx6PvEHZWEtgW/JgPIid0JmGRprlmA7vw1CBbhu9yy4UwlE2ykKvgefkGuqjJA7pU07SK1Fei+CB0YkGTllJm7zQnXyxG3c+0I34pIM+2IOyMnbHzpzHztQHWJ3nVrHpLSEyopVheMhEJgiVSksjrOyGqQTilt0jxyhBGoBfqcJQZElQkoSBOL9WRZrLBaF7oLLaSndYLXPelV9UKx0d5kUJkaaucaUikU7BfUddj6HJizKRLm8lcY+yxhtG+uMmrulfc7FlkfIeGlpJylCuMH6jnIuLTePXtNANvdCZyi9Ji8egHKQdxxqrthdtSOGZyjc8Mup581hTJXR9koQbyapUgnrqirIGO9TcE5VE4rgkcr1e2pEhCsQIdVPaOE3bCmeoFQjfVlnQm/R4ksJP1FGOXszPL8hWw1528kFndES33joNdRZm8YB96pct57AXYJ/rAHHZ79fwN8OmpDwRhIcHItmS4bnRS/dBl8kWA/OiE5YNpiJuHlO9oRL82fYGIEWSR/wVr25eTlKF+itShQbpxnuYHIsUuQxWaADefTezvB70GqEsN3qQzrrQKfTiRZWOrqFZqYOTUaVDrvL7L3LFnp4/5iOpbnKEeT7d6zaCvzyB7UirkO3CRd1z3et5tY08yxMxDQJ9pXkR3hsNL6iUhehmXoriebrAN8ShrkDZigh79vETIGWZvAi39PKDCMVTBpTtMiBUEHF52wVyegCn+iI8wy1jhNjdbAW1XjyehNfQeFMn0cm6k7LjpMwU7qZ277MMjrpJe1K8YbMZIF7q1/D6Bk9iVPkF3lkzVoWLSl5ez6vMTg3F31SSrhA72Gwd+GNd9Qo0rZI8/OMaP9e9OO8ZBnESYkJKwrvlC/ALw+7StoTOLQWRdvC8PzmY/X+pyXqf/LTp4AAAAABJRU5ErkJggg==;" vertex="1" parent="1">
          <mxGeometry x="690" y="270" width="165" height="133" as="geometry" />
        </mxCell>
        <mxCell id="GRdJn9pDozvjfMk0XIZr-4" value="" style="shape=image;verticalLabelPosition=bottom;labelBackgroundColor=default;verticalAlign=top;aspect=fixed;imageAspect=0;image=data:image/png,iVBORw0KGgoAAAANSUhEUgAAAKUAAACFCAYAAAA6hzjsAAAAAXNSR0IArs4c6QAAAARnQU1BAACxjwv8YQUAAAAJcEhZcwAADsMAAA7DAcdvqGQAAABhaVRYdFNuaXBNZXRhZGF0YQAAAAAAeyJjbGlwUG9pbnRzIjpbeyJ4IjowLCJ5IjowfSx7IngiOjE2NSwieSI6MH0seyJ4IjoxNjUsInkiOjEzM30seyJ4IjowLCJ5IjoxMzN9XX2GuYHZAAAtK0lEQVR4Xu2daZBlR3Xnz733vVdrd1WvUmttCSSh3YAkEItxQLDYgA0BtgEbG+OxGY8JcEzYHxzzwRPhiLFjmJhw2B9sR2AHZrGNzWbGmFUMBo0EEmhBm4UQSKBWa+vu2ustd5n/7+S7Va+qXi3dkujXXfdfffremzdvZp6T/zyZeZd8UZ7nhVWoMECIu9sKFQYGFSkrDBwqUlYYOFSkrDBwqCY6myLqbk8UlXmPFxUpN4Jb5mmSMqrMe7youu8KA4fKU/agKAqLomXPKNt42Fr0856ErY1LcnEce1psV+dRYS0qUvagl4CBQKmlWacbcmIocohZs1qt5mSEnBUpN0ZFylWAmGmadsmT29DQ0yNQUST6v+7pkmaScFxhI1Sk7AFkxEMiIMub2m/7fn9sRNhg1iyLFWvEyUj6eMwKG2NbkzIoLo/oB1HovqOOzbefsm/f9VXr2KxI5JF6sB4RCV9rylq+w6698tXWqO1UVz5kcSSSxsTLJHjNp+eJT0dsW1K60uKDOlWLNfCLCiYjOo6bNtN6yL70zY9ZkUxbJ0s9/kr0I1J/Uo4U++yNr3i3JdFu8XBCHlOBkQiJFDAer7wtq2BdVLeE+qDgT16zEFnjpOgjhK+WrE+YyB6L6RWOCxUp+4BenElJnmeiZ2uVtFdJZ5WsPk83XeF4UJGyL0J3CqG4e7NSuM/YK2GWviyrz3tSFY4DFSn7gPuIvbPwCj9ZVFbfEOuZB/e3Woi7OqzCiaAi5aZgurxaMNtWRHGLipzHCyx3GuMZmPnyRGZLIlP2C9/MYz5jd4PQtVdOXQwuKfEw/eS40K+SetPrBm0ETV6elmwlk179emXLUB7lvU/Ps5QSx5PWyceAkhIjp6ukE8S4mb1VwVOhIkLFdCtn0OpoiVAq8wnpqmuXPDW6lnqXeMbc8U8EvSUfIEDKtqS1XEFeaYT3Stcb9RWSoaK04xKSXYJf390/mfByoGtT0qsrOnCulNX6lXEQnV8aLlClvYrpvIvinCIYUFICDIuR2UKurhfg0ZxLtxLWlT4vPnhdUTmDVkFUQ0mmUtcePVYcrxNeEnGp20fHLhkh7ikELDGAoGKGXbK0bkXeUFhdQkVwrqw4jteTsnIEdv2wsCyTh9G2yOn2BgAqZ5HXLU8blmcN6StdKb/rio5b0VXne72qyNhuN/3GfV5kS49MTxUMKCll5zxSJalqksT5FB77SYq0K+xvJIpji0EKpCVCtv0pi1KXDI7qeRapXLHrzAsbeffdy2VdM8lq/XqlI1nokbY1GomIGAjJm0ndVnlKYGBJGatyEpyABvLtdF4OBZmR45iWTEmO6Vj7S6KwXokVN5qV6DprSlr+Gloch7e/4wF62RbiwRsaTprRkOa6ZUdfdFmlm+vXe0xcrkEWXdc0Z8tj0rKbOHVIOaCvruXWSRetVo9tbk5Gt7bV6cGXJgIqcu84qi90zrtw1XYRusQir9nI8IRfG0XyJEqn36tr060f2pdu/pjlyVEdP71ufjjbb294+W9v+OpaITIy7mu1521ufsrGxjVUcT2Vt8fDd2zkP6hC9EXXMMyZn2vbnt1nWKddWKOuoZCPz08NDCgpIV1mreIJ+/otn7VjC4/IpryxQ1ckr+Jv3lABG5FSlS3RiE2EEwmzcbv++a+3/bsvUtiwzug89XiySal86Q1yefSjcw/bN275nOXxrIovolL2nPNcs3E1RYxNywlNPmojjbPt1S99qzWiCR8WQMpT5dugjZrfSQTGU9HizDo2Ze34iLUTSe2o9qetJWmr+2onG4niujxpnfgp66iby9W1hZnoYLXDWJ7NOSfvmGrY0VZ52/FRL3NHuqbo21fHZUk1nEkTXSd929p2jCFN3m100aBWdF+cSmWtsE1QkbLCwGEbkFJDAUYDp8ZwqoJwWpMyvKir8VSkrd+rq3AqoKqpCgOHipQVBg7bhJSDdQtoLcryhdfQwn1Y9sN9R+7PcmtnPSFGpqrMu6+scc9VQUqHc9znTCSnzqD69CYlT0So3KXn3QCVEVXSQHE1dxIl1tE2VQk5Bjx50pF0WCHx8n6miGlc01UNJTNkcZFYreh009L13Dzf8EHDYGGbeMo+cEIOSEVBmnxUbWdcBNqh/XF/AhXlw9o2LM5EtGxkpaQ9+3ldE7lFl4h3UI3Hlm1pxz5h7jZPGWxfUg4SWEUjbsrjdeTQ1FWLQFmcaZuKUG2dCyRzYcGtXnHydVSRCF2/sPQ4kWGAvKU/mh2obmFDVKQ82eCxZzyj7nhKpGxaO8kkUVdy69TaliYdyxTuIrKuEA8T/fJJy7LdluZ7JLstKyY1ABhVBjxfP4XcpFCR8qRD05qcF0cmrF3stqPze2w+u9BmOxfaTOegTbXOtZnW+TbTvkBy0Ka1P9U836ZL0fG0wmeaitc8T3HPsdnWWTa1uNvaJpKq689TxpXd7E4BDO6qa7JiKzpkN3zzY3a0+bAaPN2ZWhEL/Xg3Revf2ANEmoxGhSYNRcOizi57ydVvtjN3X6UwjcN4O0eXF5HmrSf5LSFehm8r/IGn5uwj/+fz1lIk+UfL2k3LO22d74hcma9vmaYdyzMVVF00b5PzbqgvxMU6R9IHx1vTGPWMnZP2J7//X21Ex0lL82/e3jtFXFDlKU8yvInpP2bQTc2aZzr7bcYO2mx0qS2OvMCynddZuvNaS8dfaPnEtRbtut7iPS+xbMc11hl7obVGnm/Nkau1vcJaw5dKLpacZwvRpM0r7VRj1LjB2PLUcZVbJGW4U1b+BVM+U3KyEcqxpiTdgGWt+/+V168RPLp79V50j7tRHMyM63MiT27tem7NoUVrD2vOPBTbnMaVUyLrfCI/OFyzzkjD0rEhy8aHrbZnwup7J62xb5cN7dtn0eT5ZjsvkJxryY4DVp/Y6/3IQsaEqCkv2gn5PesoleuV48MaUnKTNSRDX+YB6jrUhfBuX/SINaOHpeBTm8jjkie78pTl2ubREclRa2aPazurhNUNdT/eottcBgfI8StzvKCri0ScNoSQJbgBHecNa2Q1G1KXmZi6T3Wza0XdZleo7EIz4FI0PXGJu2JFxxpxpO47s4QhiPLj5ePCP4TTIERdb11bvkSqayTViIZNPbR/nxS+r1GpYm3jWlcSF6qO41pd5ZWMjjZseHTUasMTFg/tsOFkSCmajarfTuWBi4j8SmDb0s6lPBMgHbwy0r1H7PvHl/6KMWXgIKM1zIZVIut0tE3adt9Dt9hT8w/IuIXlbdRdB36KglDhcD6QnH2MyLjo8ouvt/27LhQZY0vihrZ8OMWFpbG01b9W9OizOqaElIVmtk2IJWrUsrqI0bH51oP25Zs/aO3GEeXEJwurEfKlJJSpF6wc3XtbcEhjyje98re1NyYdx0U2De66t2yCZdA3tfl4yO59ct7+5nN32LF4zDo6DuNdbvWQ10admogda6YeyYtqHDCSLdqZxbT9t3e9ysZ1NpFTSWJR3wed5AnKLeiWVg1kE5NuAdR9Tz5uIMouWZH/+thIU0+b72RYpfbosUft8ScftsNH7rfHpu5dksM94mHHynP3LZ87cq8dOnq3PXrsbnti9j9soXXMe7bl1/PL7U8Yni1vZeOn+FOlxPKEYlYqz5IVQ/KcOt+VZElU0RImFIUInyseYpKCfQvbsF93UWzJsrm7WauewiDg6SJMeORS8MqxNKqhk9LnZNngnRDse8YSiNIli8T/2D4NWf4UWlv/BslndhIIH5zVZtiYlFKEL+2KvK0kNWxWt8vnCXljdkmKHlkKr7Od6R7PmI3M+X5an7JM59Ji0Q1IYXHUS9w8GcBjynAYgsd73LBOo9ia8bi14lHLkmJJ0lXSETNTNViE+4WpCF0ed7rbVCRJIxFXefjz5/DPEQjju88IfGgge0LQJKl50m5mIXjl7sF6GUOqdWWZvOsKVlwRxnGwbICI6bIxuGJDpJ2Or9sdcWskaVlcU8XpeH1RN8uW8Zbvq3XUZAVJXFfFcKyKgoiBmCcRXc/Bh2X4lZhxov40CrT5YpctJOfYTHKWTccHNOE40+WYnRGkOMOmizNtLt9l8/mEZNIWCs142WYStkg6ZqnGqam8RxgadbOFGdhoC5W0Jcig3vN069/ty5YD7XiWoGtzNmEsj6dWPTH+U734hX1FUfuG90pIjRyo26WRoW/03xa6brA+KbtsbzTomlRhCV/DoQXhcskbStldhf0s1cA+wxvV/MN7H6zz0q0bSOmdNPDSQ2GJ9Es0vo1lWOw4r7HloSN1e/DxvXb/YxfZ3T8+aLc9eLbd+r0zJGfat/5jv/2/e3bb17+702757qjdeuew3XLHkN18e8Nuuq1mN3+nZjch2r/jvqa1ZIcwNtU2pQtDb9lS+m+tmjaHe0nsWSZY7rp52StPBHvDoTDTS0WeeenNHYB5efanIdGCdVL1pikf6FEez6qLrddzH1IqJWc0pyAVxmSMwH75WlRJvn5CXMXJReKcr/S4RvtLwvmTScQS6BkmT6gbMT7sMCZjjDhhc+09dnT+XHt87jI71v4pW4xfZJ36y6yVvFhd+4vUtb9Y+y+yBbtOHvIam82ebzPtq22mdbXiX2XHmlfa0cUr7cjcXsuYgMieWLWc3LBdGk9u0YM8k4DAPBNn4YOF9uN26Mm77dDUnXZo+o4TlsPH7rKpmUNWr8vrKu3lpWK8BYTdLWDt7FutB4PFIhU1BtvTaMZuuvOTdnj6O+LbgmL14XIvfEDbLQRpkKKyaTSGrd1u20suf4ddsP/FPlOMNN5iyZJuZAmKaKt/z+7sm7zbykZencd8nq3Gk43Yvj/dtv/9iRtturZHnRpefxlLObqr0aWMt+kHM40reTQjPdHVPZfC99qT9r/e9xYbVk5D2EDXRYXiiYgZr58pjUSVtxANP63Zd6ySpiI/P7s3qtn3eY2m/f7bX6Y5P6Zj9h3Gzm5EgZyjqGmd4oj94OHv2h333GzFTm63Y98ePTdAiLmMJBu2s8evtuuveaXKMaoIw+p9uvZzryy9fYy5MX/6nCWr1dmBbjHLxLuC4ZDesIBuOpB8qcWUaZfHJxfeWMp9d5e+ozB59GTMhy5RY8HF6qowSdRQ1yQpauryEh2PiBCjoozqoDauAcrOxOoTkp2xRNvxIWspadFBQ5iO5W1+9kR5qCGSt/9fFuJZRNCVjJaFhuMNKVHDbbTUSI5KjrikW5Ay7rJMqWksiuh03/qnBuiqlT2BbzYmJOgTo4fJVJJLuYSIXLL+aJel0IKR3rCcsaOqAZ8L/XiLRb1jN4yZKEOCkw0UoxyRyietVDFFjUkOGspDSedWa0FEarjw8iySa7xZSEyTl0geuOiIbinDlIY0H5LgHSRiaZyMWFLfof1QH8PywjELT4mQqWwRayjj9zUpzrMMtCqdB/lxG6zd5ub7hOWagGZ1hefcyzxxIdVWNqeOh7vc4kAk+zohcVRqFj4U3Bx9SLmJiTi9mZQ7dHF+DJZ2BgjdMrHplRVYfXKllH/LYSBsGZZw33AjbHz2ZKDU40Sk6wxLhKAerAnoiz6krPBMgK6LT3yXHxBU2CoqUj5LgIylVDg+VKR8lsAkwh/9dW9uVNTcOipSVhg4VKSsMHDoQ0p1N+FfdyYV/l9CeWIjWXnQxcr95aPV8UDV2W1nrCAltzrjovwcM9xszXhpNe5YlrasSLknxx2ucDfSn0zwou4qyYumpKUxVWpZwcsZCva0Otp2rOC+oHIIi3rqGu5jKZ7fl/enKxSrIuZ2RR9PqSCeYQMnU1uUESHrHf/4iDev01Rkk+RZ5o/SNKrvkdwSsYsXtcpt5PFSK3zb8Xi9T1MCyiPIWBFyO2MVKSEKhBQpxBE+FcCT8dfm+axcXicetag2KZnQ1TtdilWSZeOW5WPajom4Y0poXB54h0URb19LeCHWsy6ll4QrqVph+2EVKUEgSEmTJIZAk+p0D9hicZ7NZufZVHqu5DybKQ72lYXogiVZtAtsXtfM5+doe44tSjoFL+n3ErK7Zdczroi5nbGClPhFumfevvY3cXx8NyoSTdqhx/bYAw/tt/sPHbA7H9ll33loh938vYbdeF/NvnFPZF/7bmE33J7aV25L7Yu3duyLt7Tti99s2Re+uWBfktxwS9Pl/367bY8f9c5dGZakBOVW6NmtsP2wgpQgV1fNlIQ9d1hs8sTmW2fZdOtim8kvt5n4MltoXGXp2DWW77zOsvFrLdtxreUSvkdujrzAFoZ/yhaGrrL5+pU2V79C2ytsLn6ezSeXaiiwSwnDvFjDy34MJOPKW25X9CFleIulPIIyvOHTVje+GI/bgk2oC56wZj5prWK3uvU9mpDvs7y236xxwKKhs6w2cb7Vdh60ZMd5VttxrtW1TcbPsmTsgBVDihfzu4ukX3rKkpgVGSusIiUz4vCWOSJy8Mqaf3ejzrw2b+3GrE63rB6HmTWrfVnRDt80M9PWlu9cIs4riVojsfpQYo2h2IbYNiIbGebTii4JnX8lIUtUpNzuWEHKJZ/Fi6588M79RI0vPSxeVFjLVwbL86bitJyU/AJYHLM4Z1uR2ppZtyyBqDpXS3Kr1yKr1c3qIuSwk5Pvv5W+Eu3erdS/QMSwDF4IrbB9sYaUdSiBZ/TfLuRbZr70U3hWtyjjds6oRdywjBUzCi/zppoQhW5f7lHhNblWXmDlJ5EzG9ZEaVjbUcvptiOFkb7ShJjchCLfcNcykDKXd/bACtsSK0hZocIgoCJlhYFDRcoKA4eKlBUGDhUpKwwcKlJWGDgMMCnDLSJQfsu+HNYVf1VuHdF5/+veD+37NHNbIRigaxXfJyx8HvzMIKQa/veUu9mE/CTdzWYYSFL663LRrOVRyxVLJPyCVq1oSltWzOWD+pXLHwRhxZ4g3AnN47akI0l1DSvvBpvwLGq7kdQX8JLS/j4s9pAhhqxhUcpSEqxOjK1ltyxdkiLtrJDw0vb6kiKJ7CxD1/MGizV7fpkvj5Nj+C1hQEnJKmXccEdYeNRfFZaC3GKvyaAjCm/4Df6VUlsS4kX+i1wsfMoKDiyuReqBvOFm/RatdLpAKi95LRqoNnEiYkqyQs3ae5iA5b1lRDkvbK8V1k9y0fXUQz0e9rQLX2HOr1yx2QwD2n2LhMWoqDMWSBaLkDzlEVjJjXXJWcgpj2TIdYQ06iJkTZJkLB3NZxyE4icxFkvRbDNSOiuwQqh2lpNJ5Sk7+ZgO9sjOO60T73BJJe1ofIUU0U6L4ok1EkdBLJ60hcW6LbTkebPcakM4AvI8PpoNKCmD6fCXvqA9vztoTUnLj1mljF+aCWErJSrFn82H+P4Tcepawu/lIErcB5tbbLqnBVAaUOWs/6RBkmwS1RoaKk3aTLrXZqMLbS56rs3ac307H1+0QmYLXtg+3+bWkcX0bIvq+2xoaJfIKtvmOAD+lhvCVjCQpKR7rYtQjWLB6hFL4eHR8G7aoiitUMyiU4/9WN2xhGUCQ8etcI1l2tGcKMlinqwollmBx1U3VbAYUxHWztw28PYXlgOMvNpFUnGFV2em5hL7waN1u/vQHrvzR5N22w/H7Zbvjdg37k7s69+N7Gu3F/bV7+T25W+37cu3Ii2XL93S9Je4P9+VL918zO67/4g11Sv5GFL2Dp4yuBhVEIXYFANaK7SwRYkG5ep62+lOa+X7rVnst060V93LpHWK7u8Q8j6npGO7rc07ntmEyyJLPtu4WvyYLWgo0LRRaxWMQ3nJpPSSXlPbBIEQThLt+phaDdXXdy92ygMesKnsOTZVXGKz8aU2X7/c8h28xH2tFZPXmu261uJd11kxcY2l4y+w5vBVLu3Rn7KWtotDV1izfol/peAv6qhH0uCgmyc0U75yFFsZMg0kKTV81sC7IWPttqnWATvSutiebF1hjy5eZj+eO2gPzZxpj8yca4dmzrND0+fbozPn2+GZg5IL7NHpCxR20MMPz1xkh7V/ePpMe2J63OY7O0R3VtWVgfy1vG6G2wLLZKBD5ZjfAcIWHdM4stgrrzkpku6yPNlrhbrhDsfxLsuSPepY9mm6fobZyBkWSeKxAxaPnqnj/VYM77e8sU+y12qNM9ylBNuqJmkAypom4d5zCxhIUjJibMajNp1O2I+O7rP7Dx+w+x+/QHLQ7nniLLv7yX12+8MTdvsP1NU8uNNufWDcvnX/qN1835DddG/DbrqnbjffNWLfun3cbr1tyG69PZVM20J7XG2XX2voWsqHBNsJ0hvVYUiXNG4Fn1SOKihQNNzLCT+G7yshe3h4bzap5dYYimx0JLHR0ZqNDLNNbHysZmNjo1Yf2i2ykz55LZOQLEPGm2MgSRnsVWgcGNuCuuvF+rk2nZ1hc8UBayfnW6fxHLOdl5lNXG6FtsUO7btc7lKMs73UotHLLBu73NIxxRm70Nq+sCdOEmNhoK0Z6XTB8ogFwuDFgs8MDVT+rRARJZa3XWqxxu4SlnhFuDdshcbmIir3LNnya2iJxo61WmKNemJxPcwANNPpkrDHxuV6AptgIElJyxxRa5WO1opSeU21YSnNeo+xxoR8O55Go5YmI1Y0xi0emVBXMmnJ2KTVxndZfcduq+2YtGgnv2O42zrqarLRPeqWakpbLZ0BuP9IwNZWlj0dwD1e92CCc1Nc4VfXwhSEOxzzIg10YCIkibgtp27YmUy4akX2YgrqqzHz20CqC6RgfXZE9i00eneKswSi/oWfrQkpcK847G2MzWOcIiiX3mM9yCRJrF6v29DQkA2PDNvIyIi6GHVPOoeJve32NOAKg4XThpQQrlw5t9wuiY6TmNYPJbvgkUOFgcRpQ0pQkg6P6V5T+/yIFD/XESfcoytREXKQcVp5ytWy9CxXbPTftdFu5mGMlSpiDipOK09Z4fRARcoKA4dtQEpGkqWA5ZFlhcHE6U3K8plr3+Fj1UkMKrZJzUDMylueKqjcRYWBQ0XKCgOHipQVBg4VKSsMHCpSVhg4VKSsMHCoSFlh4FCRssLAoSJlhYFDRcoKA4eKlBUGDhUpKwwcKlJWGDhUpKwwcFhLysL8m+Dy5S4+vwqf7kcK52N0vnVhJZr1xZftkIDyVcYyDf8eWOB/Yq1BN4hP4B3Kj+WSCAn/hyhBVubbT0B5BJb/D9/sgFJX9sLnZugarulN60QklLIXZZlAKEOwl44UWJaKbdhbtudGUqbhV6oC+cYbWwUQYznPMhf/FrwbxtXhzMp0j0dAqKveHMPZELY1rCFl1slYtFA7YXGijgreUWqJYu6q55akTSld20D45bFE5eHjLTII1cyCR6nVLE1GrZDFanxtmGeWKOFU28LJGlYEY1W06bzmhq1nbRvOm7qSj9pl7CS1otZSfIyo/Hqlpxw523pd5c5tqGhbg2XvlGeLdqV0o1q5PqVIzzmRsJ3FttDmZGxJu2VDrALRk+aS9ORJeaXpun/+e5U0ZOl3dLppOSvnyhYJq0zoHPZtK51WVthwUsjsTV0TlkrBgKwS4rqs0m+l1K2TJJbHmYre1nWpzXZaSlfa0bjyRc+TciSsgqEzrCPUjuvWVJxWa8bqUQujhPR69NtUesqBvgvHHrOOTNsWB5op61Rm4hTLM4pLLG6g7WZQPbEE6zJyGSdWCh0phW9K60M2W8T28S99077/2JQ1RZhUBVgPvvJCTxt1yBh8WVirqfDavvNll9j1B/f6Pt9o8zks2xIUqKU8Z7LIPvzpG+zwfG7zMmAK2X1dG9IvV1voryaetqP8WJZ6JFu00XTB3va6l9vzztpjw4WIIrIbP+fnjSaQs638WsmQHZ5p2oc/9VWbka6LNX6Efx24rsueoB8m4hl7/9tfYyMi+rBsOyKisXZj8GZBEumKXR+enrcPfeZGm+WnA1lxwlPgfwi6fh4g+DmVR5u6dN7biOy9b3+17RH5650Zy+tyBiIRawKxGhpap7Vhr9sb73rAvnbr3TYXs2Laaj8FnVajf1kaecsuGc/tnW95rWycW13OhIbQGBpWuqysUdprY/Ql5dTUMfuff/I/DA4U9WFrqWIen2vbjLxIlikzT359rK0kjlkkQGdUyLNGY9szFJTnU9jVn7tif9HJPcihqQWb6kAwfguSs4GUKAuh1gPLHC+qQSUiYF0er5G37czJcdtRl/HUC+A1c74H97TwTKrWpGbzHfUM8uaPHJ11kvKLvBshGHj9OI2kYwf2jtloXLPO7LyNyAZ15eMrnsmLo1PSkkdOhq2ZjNuPnpq3Zl73FYzRkUWn+DVhfrh1Bch4KVtsqQARjF6KNTuHpNNzD+y2EXnBWjpvLZE8Uz3yQ64Qk56riQ1HJ+2JmUU7orKZ4qyPFRn2Bf3csHrZc/ZPSk81fJFybKRh/+m3/7NN7NknnVkm5gRImaa5HTt6xP7Le94jz6aAWGpI0aIxaovqT+tiTA0vswH61SPkW4K6axZ9Z3mVkpC9xITUeJSWurpCLXxOZbKavJoqktV9fXWwnvj9wHipo+4bgpMeZSo6bRttDFm7qe5Eakc1Ol9IyYrB8h0iaVuNsqNWHdVHrK1+aGgTUm5y2jI17HbeUddct2FsIF0KujQVzIcgEhpNJtu2o4bVRyas1aZMahDSkeWwISRd/UZw/YhNLyZy8seQJW4v2s7Rurpz6UWoN8CwMFVH5E2GRmxe+UWNhkXr1msvjTZQuEhsx8ikNednpeeC1VRfOyfG7AN/9mc2smNC+clrso5TN/p6WENKxjFpO7XWglrs4qyTpVxHHO9D6/XxzjrwDGWU1RlzXGbk/m3DkjHm4hcL2MOriFZUqIzJ0tKEQqdNV/HyigwZFSqTqm5JSDukAwEkXQ+MdoR6N+Z6rO+NPYmursjq6uJYztZ/MSHOw2JS3kgknPMisR9rnE6eHgNPIO2ws8qFvpwrJ4j9QBlLe7EAVRjrQUDOBv1EfQlhNMDgFCg09ep5d+27HjjryW0AXzBMUnLEhwqaM+zYtVvkb6hx5tZQPutrErCGlErPJyh+IQRQQiVQmuxWXNCbg5/oErInUojC/92Rj08wNgLeAUPqip70Q86ijDYY3n8sfwkrMyQOg/oyANpRdiYxIWYoD2Xxuwqk6+HL6VCxgShdLJ0qCxUMTF5lestXB/hPpcTyTGS11DAApIds8lgJ67OD8L/HUpHInZLTP6zQtcweeIbSLILYQcdAsrBfgkYRqwIDt4M1vLLZAp1Iw0kOutteENaNu4SeY51GP8odrg47hXofktU0VQch/3B+fawhJWYOATKwCs1xbyKQJFsqfH94BXT318eKbNcgkJH8e9G9Ridp2SWN+sGrpA/3g0fowtmkSEtF4ZxXqR8RV4MM318Pm+tK5cgruUJISRTtk402dOVgmUIrCx5KtHx2NcJZGsSSIo5e+4Ry6s/L0S30yuga44a8ThSoEfqZ0oKaMGu4wrg8li1jDQVDQ9gYa0mpiygYoQhjj7BOdihumDX2Gq28vFSGImHA9ZVbLvIG6MmiW2fLUHnyGuUsI61NjzUWWVtxuVSgNx5kCXuh0sM2oKRAbx799NmCruomI5Ey5Ey8ZQ9Wrj/u8G33gGBFIWdCuMonPCtQngEhTbTAVqU2pRE95pIRyZv45bU65xGIvTqP5ThrUaa3jNAsuol184GMicR5pbG0JhJE3RDBOj1gVoaH5A5NTde3Wpr5KTwTQzuatTZbmuYrE+4/kXWn3bGpY1MqkWJJ0k6qsLa2GjQrrU6brqmwhfk5y9KOLWqs6vl0hwWZ0in3l6CkMrUw8uG+aUcTjrbyidQlpShGqZVXSxOWQtdSDuhBmZDm4mLoMnSu1b021b6bi7Iz0epeVRqeY/LxxbH0R/4LC4uuHzEyzSrZtpstz8PLlgYboBc6llt0RzjuaOujA4ggpoVFSAFbidIpMkVw+8ku2i802WrL7j7ZIY7CF+YX/Ar0DRJotTA/72Vh4pYziVJSqcrqgyjyw1wlw91wgbIgpC49lDf1gD3RjbTJA52xJeljB7YIcSgv+nPcbrVcOi0WXyXnYGMvjIBOXsfc7N4C1k50VoHCNlXYb3zjG3bnnXeKpC274oor7Bd+4Rfse9/7nn3+85+3eRnm6quvtp/92Z/1Sv3+979v//Zv/2bPfe5z7Y1vfKP98Ic/9HiHDh2y8847z37u537Ozj77bBF/uZArZucC+ZIu13E9xy9/+cvt+uuvtxtvvNG+9rWv+ez9Va96lb3oRS/y8w888IB96lOfsre//e124YUX2le+8hW77bbbRMq25/dLv/RL1tAsk8VUV+dXYmFhweVf/uVf7Ec/+pFsX9g73/lOO/fccz3PW2+91fP6xV/8Rbv00ks9Lra55ZZb7H3ve59NTk76NYCyHDlyxN7xjnfYjh07PE+Iz/3aXlBhlPHJJ5+0v//7v/f9nTt32pve9CY766yz7JOf/KT94Ac/8Osoy969e/26f/qnf7InnnjC3vWud9nw8LB97nOfs3vvvdftMjExYe9973u9LOSJ3quBHsjDDz/sZaWe9+3bZ29729s8r3/8x3+0Rx55xPP7zd/8TU9jenra7frUU0/Z7/7u79rc3JyHcT3lx+6//uu/7g2DNHrreKvY9AoMxkq4FB7SvfrVr/aKobA33HCDZwoJvv71r3vY/fffbx//+Me9sBiX6zDSJZdcYu95z3vs0UcfdaJwHQUnzkagMqmcF77whW4MygNhXvGKV9jrX/96+8xnPmMzMzN2880326c//WmbnZ21o0ePejwaAI3iN37jN+zBBx+0u+66yyuPMvUD4WNjY34tpKAiSIPKX5TH+Pd//3d75Stfaddee60TgLJjg29961t27Ngxvx6daLjY6Nvf/rZfNz4+3s0h2HM1IA42phFC9He/+92uA/ndfffdds8999hb3vIWJwwEJY0///M/dzLRYAHXE+8FL3iB24V6gozELR9a9IJw6oUtBHvZy15mv/qrv+qO44477nCdDh8+7GGU5ctf/rLr9bd/+7duR9JG0PdDH/qQ2+n3fu/33D40vjLtE8GmpGSZZgz7hje8wQ2G8oSRKQR7yUteYgcOHLD9+/e759y9e7f9yq/8ilcExoCcnP+Zn/kZ91a0xrKSytbbz2uhEMTAuBdffLHnCWGIy7lrrrnGnvOc53gajz32mKf9y7/8y244yAHpabWkgQfdtWuXx8eIlL0fuA5DowOeEBLgVUmLiqNiL7vsMi8PxzQA0nz/+9/velE2dKaR0IB++qd/2m0HSBf081iki8d93vOe53bGy5EnS2JjY44PHjxoV155pZOG8tMwfv7nf973iQtoJMSHTDRmyoJOpL+aIKUdKdd1111nL33pS90rkyfX4YHPPPNMu+iii9yh0MgoO/WBgyBd4mF70iE/HAT1xHFJzBPBpqREUQqK0eiK6JZf/OIXeyGoYAoKWWhNVHxZ+VxHRREPo1DIz372s3bGGWcsKVWGk85qYGiuR8n77rvPKxlPzTXkyfVsIQ1GoKVCfs6XeXIOQ+FF6VYxIlISdzU4x3UYk8rCS9100032O7/zO964KFMpnGcLSckfG3CM3nhyGiHhlJ+8SJO0kdUodSE+3pKehPivec1r3DZlJePlEexCT8E56qZMg8aC7rfffrt94AMfsKmpKU+H6ylbLygH1xCfc9QvQweOGSKhL3HQs9SDLQ2HspI319MAifvQQw952J/+6Z/6NZzrp+tWsCVPiUHwDH/xF3/hrep1r3udVyDKQFQyL1sF4cRHSnCOsSHdAhVMBVJoCg9x+hUe4lABEJLuEy+IpyjPYUQqB6OU5CRP8uJ8SbDf+q3f8rEPjYaxH+eIX5a3F2U5SIdxK2VmXEZaeI2yoVHZxCE+NkAXwgkjDt3ov/7rv3r3zZDmE5/4hMej0jjfD6SFfOELX7AvfvGL9gd/8AeuP16bMgNsTR6Qg7jozHgOkPav/dqv2Zvf/GZ761vfutSrUDbAfi9KXUv83d/9nTcIhlicw7mQL3nhDcv6pqckDCFPyoAnZ8iB5+aYsWXZGE8Em5ISYPCPfOQjblC6D/Z//OMf+4SHisPotBa60JIUKIAAvNw///M/2wUXXGAf/ehH3ZNQaIS02a4GyjNe+uAHP+gGZgD/13/91542HoE8P/zhDztZ6HYIx0ikRTkxyF/91V/ZV7/6VR/3UW4G7JzH6P0MRtk5j6fCq1MxjJXJC49Ed07ZGevRG+zZs8fz5Rxpkj/l/uM//mP7wz/8Qx+nYRNIQv5ULJW2GpAP0GiwJ93lX/7lX3q+l19+uQ8T/uEf/sHLwuSRNNARopEfYJiA00Bfegf0gyzkiUCiXqArccq6LYcF2JTe4aqrrnLvR8/4+OOPu+enMRMfh0DdUg4mgNiAuqEhYmPsspr0x4Pkj/7oj/57d78vSuXxapAKA6Is3SHjSY4xGoNrKqosDNfQnSJ4C86hCEpgyPPPP9/jgX5eiwouKxxSYgC6aCoFg+H5CKOLgywl2agcKhXDsE/ZKMtrX/tae/7zn+/plg2nX2NAX4QKYDxKeYlHQzjnnHP8HGRlAoXupEU+5EEjpQzlmJm4DFewFx6PvEHZWEtgW/JgPIid0JmGRprlmA7vw1CBbhu9yy4UwlE2ykKvgefkGuqjJA7pU07SK1Fei+CB0YkGTllJm7zQnXyxG3c+0I34pIM+2IOyMnbHzpzHztQHWJ3nVrHpLSEyopVheMhEJgiVSksjrOyGqQTilt0jxyhBGoBfqcJQZElQkoSBOL9WRZrLBaF7oLLaSndYLXPelV9UKx0d5kUJkaaucaUikU7BfUddj6HJizKRLm8lcY+yxhtG+uMmrulfc7FlkfIeGlpJylCuMH6jnIuLTePXtNANvdCZyi9Ji8egHKQdxxqrthdtSOGZyjc8Mup581hTJXR9koQbyapUgnrqirIGO9TcE5VE4rgkcr1e2pEhCsQIdVPaOE3bCmeoFQjfVlnQm/R4ksJP1FGOXszPL8hWw1528kFndES33joNdRZm8YB96pct57AXYJ/rAHHZ79fwN8OmpDwRhIcHItmS4bnRS/dBl8kWA/OiE5YNpiJuHlO9oRL82fYGIEWSR/wVr25eTlKF+itShQbpxnuYHIsUuQxWaADefTezvB70GqEsN3qQzrrQKfTiRZWOrqFZqYOTUaVDrvL7L3LFnp4/5iOpbnKEeT7d6zaCvzyB7UirkO3CRd1z3et5tY08yxMxDQJ9pXkR3hsNL6iUhehmXoriebrAN8ShrkDZigh79vETIGWZvAi39PKDCMVTBpTtMiBUEHF52wVyegCn+iI8wy1jhNjdbAW1XjyehNfQeFMn0cm6k7LjpMwU7qZ277MMjrpJe1K8YbMZIF7q1/D6Bk9iVPkF3lkzVoWLSl5ez6vMTg3F31SSrhA72Gwd+GNd9Qo0rZI8/OMaP9e9OO8ZBnESYkJKwrvlC/ALw+7StoTOLQWRdvC8PzmY/X+pyXqf/LTp4AAAAABJRU5ErkJggg==;" vertex="1" parent="1">
          <mxGeometry x="950" y="280" width="165" height="133" as="geometry" />
        </mxCell>
        <mxCell id="GRdJn9pDozvjfMk0XIZr-5" value="" style="shape=image;verticalLabelPosition=bottom;labelBackgroundColor=default;verticalAlign=top;aspect=fixed;imageAspect=0;image=data:image/png,iVBORw0KGgoAAAANSUhEUgAAAKUAAACFCAYAAAA6hzjsAAAAAXNSR0IArs4c6QAAAARnQU1BAACxjwv8YQUAAAAJcEhZcwAADsMAAA7DAcdvqGQAAABhaVRYdFNuaXBNZXRhZGF0YQAAAAAAeyJjbGlwUG9pbnRzIjpbeyJ4IjowLCJ5IjowfSx7IngiOjE2NSwieSI6MH0seyJ4IjoxNjUsInkiOjEzM30seyJ4IjowLCJ5IjoxMzN9XX2GuYHZAAAtK0lEQVR4Xu2daZBlR3Xnz733vVdrd1WvUmttCSSh3YAkEItxQLDYgA0BtgEbG+OxGY8JcEzYHxzzwRPhiLFjmJhw2B9sR2AHZrGNzWbGmFUMBo0EEmhBm4UQSKBWa+vu2ustd5n/7+S7Va+qXi3dkujXXfdfffremzdvZp6T/zyZeZd8UZ7nhVWoMECIu9sKFQYGFSkrDBwqUlYYOFSkrDBwqCY6myLqbk8UlXmPFxUpN4Jb5mmSMqrMe7youu8KA4fKU/agKAqLomXPKNt42Fr0856ErY1LcnEce1psV+dRYS0qUvagl4CBQKmlWacbcmIocohZs1qt5mSEnBUpN0ZFylWAmGmadsmT29DQ0yNQUST6v+7pkmaScFxhI1Sk7AFkxEMiIMub2m/7fn9sRNhg1iyLFWvEyUj6eMwKG2NbkzIoLo/oB1HovqOOzbefsm/f9VXr2KxI5JF6sB4RCV9rylq+w6698tXWqO1UVz5kcSSSxsTLJHjNp+eJT0dsW1K60uKDOlWLNfCLCiYjOo6bNtN6yL70zY9ZkUxbJ0s9/kr0I1J/Uo4U++yNr3i3JdFu8XBCHlOBkQiJFDAer7wtq2BdVLeE+qDgT16zEFnjpOgjhK+WrE+YyB6L6RWOCxUp+4BenElJnmeiZ2uVtFdJZ5WsPk83XeF4UJGyL0J3CqG4e7NSuM/YK2GWviyrz3tSFY4DFSn7gPuIvbPwCj9ZVFbfEOuZB/e3Woi7OqzCiaAi5aZgurxaMNtWRHGLipzHCyx3GuMZmPnyRGZLIlP2C9/MYz5jd4PQtVdOXQwuKfEw/eS40K+SetPrBm0ETV6elmwlk179emXLUB7lvU/Ps5QSx5PWyceAkhIjp6ukE8S4mb1VwVOhIkLFdCtn0OpoiVAq8wnpqmuXPDW6lnqXeMbc8U8EvSUfIEDKtqS1XEFeaYT3Stcb9RWSoaK04xKSXYJf390/mfByoGtT0qsrOnCulNX6lXEQnV8aLlClvYrpvIvinCIYUFICDIuR2UKurhfg0ZxLtxLWlT4vPnhdUTmDVkFUQ0mmUtcePVYcrxNeEnGp20fHLhkh7ikELDGAoGKGXbK0bkXeUFhdQkVwrqw4jteTsnIEdv2wsCyTh9G2yOn2BgAqZ5HXLU8blmcN6StdKb/rio5b0VXne72qyNhuN/3GfV5kS49MTxUMKCll5zxSJalqksT5FB77SYq0K+xvJIpji0EKpCVCtv0pi1KXDI7qeRapXLHrzAsbeffdy2VdM8lq/XqlI1nokbY1GomIGAjJm0ndVnlKYGBJGatyEpyABvLtdF4OBZmR45iWTEmO6Vj7S6KwXokVN5qV6DprSlr+Gloch7e/4wF62RbiwRsaTprRkOa6ZUdfdFmlm+vXe0xcrkEWXdc0Z8tj0rKbOHVIOaCvruXWSRetVo9tbk5Gt7bV6cGXJgIqcu84qi90zrtw1XYRusQir9nI8IRfG0XyJEqn36tr060f2pdu/pjlyVEdP71ufjjbb294+W9v+OpaITIy7mu1521ufsrGxjVUcT2Vt8fDd2zkP6hC9EXXMMyZn2vbnt1nWKddWKOuoZCPz08NDCgpIV1mreIJ+/otn7VjC4/IpryxQ1ckr+Jv3lABG5FSlS3RiE2EEwmzcbv++a+3/bsvUtiwzug89XiySal86Q1yefSjcw/bN275nOXxrIovolL2nPNcs3E1RYxNywlNPmojjbPt1S99qzWiCR8WQMpT5dugjZrfSQTGU9HizDo2Ze34iLUTSe2o9qetJWmr+2onG4niujxpnfgp66iby9W1hZnoYLXDWJ7NOSfvmGrY0VZ52/FRL3NHuqbo21fHZUk1nEkTXSd929p2jCFN3m100aBWdF+cSmWtsE1QkbLCwGEbkFJDAUYDp8ZwqoJwWpMyvKir8VSkrd+rq3AqoKqpCgOHipQVBg7bhJSDdQtoLcryhdfQwn1Y9sN9R+7PcmtnPSFGpqrMu6+scc9VQUqHc9znTCSnzqD69CYlT0So3KXn3QCVEVXSQHE1dxIl1tE2VQk5Bjx50pF0WCHx8n6miGlc01UNJTNkcZFYreh009L13Dzf8EHDYGGbeMo+cEIOSEVBmnxUbWdcBNqh/XF/AhXlw9o2LM5EtGxkpaQ9+3ldE7lFl4h3UI3Hlm1pxz5h7jZPGWxfUg4SWEUjbsrjdeTQ1FWLQFmcaZuKUG2dCyRzYcGtXnHydVSRCF2/sPQ4kWGAvKU/mh2obmFDVKQ82eCxZzyj7nhKpGxaO8kkUVdy69TaliYdyxTuIrKuEA8T/fJJy7LdluZ7JLstKyY1ABhVBjxfP4XcpFCR8qRD05qcF0cmrF3stqPze2w+u9BmOxfaTOegTbXOtZnW+TbTvkBy0Ka1P9U836ZL0fG0wmeaitc8T3HPsdnWWTa1uNvaJpKq689TxpXd7E4BDO6qa7JiKzpkN3zzY3a0+bAaPN2ZWhEL/Xg3Revf2ANEmoxGhSYNRcOizi57ydVvtjN3X6UwjcN4O0eXF5HmrSf5LSFehm8r/IGn5uwj/+fz1lIk+UfL2k3LO22d74hcma9vmaYdyzMVVF00b5PzbqgvxMU6R9IHx1vTGPWMnZP2J7//X21Ex0lL82/e3jtFXFDlKU8yvInpP2bQTc2aZzr7bcYO2mx0qS2OvMCynddZuvNaS8dfaPnEtRbtut7iPS+xbMc11hl7obVGnm/Nkau1vcJaw5dKLpacZwvRpM0r7VRj1LjB2PLUcZVbJGW4U1b+BVM+U3KyEcqxpiTdgGWt+/+V168RPLp79V50j7tRHMyM63MiT27tem7NoUVrD2vOPBTbnMaVUyLrfCI/OFyzzkjD0rEhy8aHrbZnwup7J62xb5cN7dtn0eT5ZjsvkJxryY4DVp/Y6/3IQsaEqCkv2gn5PesoleuV48MaUnKTNSRDX+YB6jrUhfBuX/SINaOHpeBTm8jjkie78pTl2ubREclRa2aPazurhNUNdT/eottcBgfI8StzvKCri0ScNoSQJbgBHecNa2Q1G1KXmZi6T3Wza0XdZleo7EIz4FI0PXGJu2JFxxpxpO47s4QhiPLj5ePCP4TTIERdb11bvkSqayTViIZNPbR/nxS+r1GpYm3jWlcSF6qO41pd5ZWMjjZseHTUasMTFg/tsOFkSCmajarfTuWBi4j8SmDb0s6lPBMgHbwy0r1H7PvHl/6KMWXgIKM1zIZVIut0tE3adt9Dt9hT8w/IuIXlbdRdB36KglDhcD6QnH2MyLjo8ouvt/27LhQZY0vihrZ8OMWFpbG01b9W9OizOqaElIVmtk2IJWrUsrqI0bH51oP25Zs/aO3GEeXEJwurEfKlJJSpF6wc3XtbcEhjyje98re1NyYdx0U2De66t2yCZdA3tfl4yO59ct7+5nN32LF4zDo6DuNdbvWQ10admogda6YeyYtqHDCSLdqZxbT9t3e9ysZ1NpFTSWJR3wed5AnKLeiWVg1kE5NuAdR9Tz5uIMouWZH/+thIU0+b72RYpfbosUft8ScftsNH7rfHpu5dksM94mHHynP3LZ87cq8dOnq3PXrsbnti9j9soXXMe7bl1/PL7U8Yni1vZeOn+FOlxPKEYlYqz5IVQ/KcOt+VZElU0RImFIUInyseYpKCfQvbsF93UWzJsrm7WauewiDg6SJMeORS8MqxNKqhk9LnZNngnRDse8YSiNIli8T/2D4NWf4UWlv/BslndhIIH5zVZtiYlFKEL+2KvK0kNWxWt8vnCXljdkmKHlkKr7Od6R7PmI3M+X5an7JM59Ji0Q1IYXHUS9w8GcBjynAYgsd73LBOo9ia8bi14lHLkmJJ0lXSETNTNViE+4WpCF0ed7rbVCRJIxFXefjz5/DPEQjju88IfGgge0LQJKl50m5mIXjl7sF6GUOqdWWZvOsKVlwRxnGwbICI6bIxuGJDpJ2Or9sdcWskaVlcU8XpeH1RN8uW8Zbvq3XUZAVJXFfFcKyKgoiBmCcRXc/Bh2X4lZhxov40CrT5YpctJOfYTHKWTccHNOE40+WYnRGkOMOmizNtLt9l8/mEZNIWCs142WYStkg6ZqnGqam8RxgadbOFGdhoC5W0Jcig3vN069/ty5YD7XiWoGtzNmEsj6dWPTH+U734hX1FUfuG90pIjRyo26WRoW/03xa6brA+KbtsbzTomlRhCV/DoQXhcskbStldhf0s1cA+wxvV/MN7H6zz0q0bSOmdNPDSQ2GJ9Es0vo1lWOw4r7HloSN1e/DxvXb/YxfZ3T8+aLc9eLbd+r0zJGfat/5jv/2/e3bb17+702757qjdeuew3XLHkN18e8Nuuq1mN3+nZjch2r/jvqa1ZIcwNtU2pQtDb9lS+m+tmjaHe0nsWSZY7rp52StPBHvDoTDTS0WeeenNHYB5efanIdGCdVL1pikf6FEez6qLrddzH1IqJWc0pyAVxmSMwH75WlRJvn5CXMXJReKcr/S4RvtLwvmTScQS6BkmT6gbMT7sMCZjjDhhc+09dnT+XHt87jI71v4pW4xfZJ36y6yVvFhd+4vUtb9Y+y+yBbtOHvIam82ebzPtq22mdbXiX2XHmlfa0cUr7cjcXsuYgMieWLWc3LBdGk9u0YM8k4DAPBNn4YOF9uN26Mm77dDUnXZo+o4TlsPH7rKpmUNWr8vrKu3lpWK8BYTdLWDt7FutB4PFIhU1BtvTaMZuuvOTdnj6O+LbgmL14XIvfEDbLQRpkKKyaTSGrd1u20suf4ddsP/FPlOMNN5iyZJuZAmKaKt/z+7sm7zbykZencd8nq3Gk43Yvj/dtv/9iRtturZHnRpefxlLObqr0aWMt+kHM40reTQjPdHVPZfC99qT9r/e9xYbVk5D2EDXRYXiiYgZr58pjUSVtxANP63Zd6ySpiI/P7s3qtn3eY2m/f7bX6Y5P6Zj9h3Gzm5EgZyjqGmd4oj94OHv2h333GzFTm63Y98ePTdAiLmMJBu2s8evtuuveaXKMaoIw+p9uvZzryy9fYy5MX/6nCWr1dmBbjHLxLuC4ZDesIBuOpB8qcWUaZfHJxfeWMp9d5e+ozB59GTMhy5RY8HF6qowSdRQ1yQpauryEh2PiBCjoozqoDauAcrOxOoTkp2xRNvxIWspadFBQ5iO5W1+9kR5qCGSt/9fFuJZRNCVjJaFhuMNKVHDbbTUSI5KjrikW5Ay7rJMqWksiuh03/qnBuiqlT2BbzYmJOgTo4fJVJJLuYSIXLL+aJel0IKR3rCcsaOqAZ8L/XiLRb1jN4yZKEOCkw0UoxyRyietVDFFjUkOGspDSedWa0FEarjw8iySa7xZSEyTl0geuOiIbinDlIY0H5LgHSRiaZyMWFLfof1QH8PywjELT4mQqWwRayjj9zUpzrMMtCqdB/lxG6zd5ub7hOWagGZ1hefcyzxxIdVWNqeOh7vc4kAk+zohcVRqFj4U3Bx9SLmJiTi9mZQ7dHF+DJZ2BgjdMrHplRVYfXKllH/LYSBsGZZw33AjbHz2ZKDU40Sk6wxLhKAerAnoiz6krPBMgK6LT3yXHxBU2CoqUj5LgIylVDg+VKR8lsAkwh/9dW9uVNTcOipSVhg4VKSsMHDoQ0p1N+FfdyYV/l9CeWIjWXnQxcr95aPV8UDV2W1nrCAltzrjovwcM9xszXhpNe5YlrasSLknxx2ucDfSn0zwou4qyYumpKUxVWpZwcsZCva0Otp2rOC+oHIIi3rqGu5jKZ7fl/enKxSrIuZ2RR9PqSCeYQMnU1uUESHrHf/4iDev01Rkk+RZ5o/SNKrvkdwSsYsXtcpt5PFSK3zb8Xi9T1MCyiPIWBFyO2MVKSEKhBQpxBE+FcCT8dfm+axcXicetag2KZnQ1TtdilWSZeOW5WPajom4Y0poXB54h0URb19LeCHWsy6ll4QrqVph+2EVKUEgSEmTJIZAk+p0D9hicZ7NZufZVHqu5DybKQ72lYXogiVZtAtsXtfM5+doe44tSjoFL+n3ErK7Zdczroi5nbGClPhFumfevvY3cXx8NyoSTdqhx/bYAw/tt/sPHbA7H9ll33loh938vYbdeF/NvnFPZF/7bmE33J7aV25L7Yu3duyLt7Tti99s2Re+uWBfktxwS9Pl/367bY8f9c5dGZakBOVW6NmtsP2wgpQgV1fNlIQ9d1hs8sTmW2fZdOtim8kvt5n4MltoXGXp2DWW77zOsvFrLdtxreUSvkdujrzAFoZ/yhaGrrL5+pU2V79C2ytsLn6ezSeXaiiwSwnDvFjDy34MJOPKW25X9CFleIulPIIyvOHTVje+GI/bgk2oC56wZj5prWK3uvU9mpDvs7y236xxwKKhs6w2cb7Vdh60ZMd5VttxrtW1TcbPsmTsgBVDihfzu4ukX3rKkpgVGSusIiUz4vCWOSJy8Mqaf3ejzrw2b+3GrE63rB6HmTWrfVnRDt80M9PWlu9cIs4riVojsfpQYo2h2IbYNiIbGebTii4JnX8lIUtUpNzuWEHKJZ/Fi6588M79RI0vPSxeVFjLVwbL86bitJyU/AJYHLM4Z1uR2ppZtyyBqDpXS3Kr1yKr1c3qIuSwk5Pvv5W+Eu3erdS/QMSwDF4IrbB9sYaUdSiBZ/TfLuRbZr70U3hWtyjjds6oRdywjBUzCi/zppoQhW5f7lHhNblWXmDlJ5EzG9ZEaVjbUcvptiOFkb7ShJjchCLfcNcykDKXd/bACtsSK0hZocIgoCJlhYFDRcoKA4eKlBUGDhUpKwwcKlJWGDgMMCnDLSJQfsu+HNYVf1VuHdF5/+veD+37NHNbIRigaxXfJyx8HvzMIKQa/veUu9mE/CTdzWYYSFL663LRrOVRyxVLJPyCVq1oSltWzOWD+pXLHwRhxZ4g3AnN47akI0l1DSvvBpvwLGq7kdQX8JLS/j4s9pAhhqxhUcpSEqxOjK1ltyxdkiLtrJDw0vb6kiKJ7CxD1/MGizV7fpkvj5Nj+C1hQEnJKmXccEdYeNRfFZaC3GKvyaAjCm/4Df6VUlsS4kX+i1wsfMoKDiyuReqBvOFm/RatdLpAKi95LRqoNnEiYkqyQs3ae5iA5b1lRDkvbK8V1k9y0fXUQz0e9rQLX2HOr1yx2QwD2n2LhMWoqDMWSBaLkDzlEVjJjXXJWcgpj2TIdYQ06iJkTZJkLB3NZxyE4icxFkvRbDNSOiuwQqh2lpNJ5Sk7+ZgO9sjOO60T73BJJe1ofIUU0U6L4ok1EkdBLJ60hcW6LbTkebPcakM4AvI8PpoNKCmD6fCXvqA9vztoTUnLj1mljF+aCWErJSrFn82H+P4Tcepawu/lIErcB5tbbLqnBVAaUOWs/6RBkmwS1RoaKk3aTLrXZqMLbS56rs3ac307H1+0QmYLXtg+3+bWkcX0bIvq+2xoaJfIKtvmOAD+lhvCVjCQpKR7rYtQjWLB6hFL4eHR8G7aoiitUMyiU4/9WN2xhGUCQ8etcI1l2tGcKMlinqwollmBx1U3VbAYUxHWztw28PYXlgOMvNpFUnGFV2em5hL7waN1u/vQHrvzR5N22w/H7Zbvjdg37k7s69+N7Gu3F/bV7+T25W+37cu3Ii2XL93S9Je4P9+VL918zO67/4g11Sv5GFL2Dp4yuBhVEIXYFANaK7SwRYkG5ep62+lOa+X7rVnst060V93LpHWK7u8Q8j6npGO7rc07ntmEyyJLPtu4WvyYLWgo0LRRaxWMQ3nJpPSSXlPbBIEQThLt+phaDdXXdy92ygMesKnsOTZVXGKz8aU2X7/c8h28xH2tFZPXmu261uJd11kxcY2l4y+w5vBVLu3Rn7KWtotDV1izfol/peAv6qhH0uCgmyc0U75yFFsZMg0kKTV81sC7IWPttqnWATvSutiebF1hjy5eZj+eO2gPzZxpj8yca4dmzrND0+fbozPn2+GZg5IL7NHpCxR20MMPz1xkh7V/ePpMe2J63OY7O0R3VtWVgfy1vG6G2wLLZKBD5ZjfAcIWHdM4stgrrzkpku6yPNlrhbrhDsfxLsuSPepY9mm6fobZyBkWSeKxAxaPnqnj/VYM77e8sU+y12qNM9ylBNuqJmkAypom4d5zCxhIUjJibMajNp1O2I+O7rP7Dx+w+x+/QHLQ7nniLLv7yX12+8MTdvsP1NU8uNNufWDcvnX/qN1835DddG/DbrqnbjffNWLfun3cbr1tyG69PZVM20J7XG2XX2voWsqHBNsJ0hvVYUiXNG4Fn1SOKihQNNzLCT+G7yshe3h4bzap5dYYimx0JLHR0ZqNDLNNbHysZmNjo1Yf2i2ykz55LZOQLEPGm2MgSRnsVWgcGNuCuuvF+rk2nZ1hc8UBayfnW6fxHLOdl5lNXG6FtsUO7btc7lKMs73UotHLLBu73NIxxRm70Nq+sCdOEmNhoK0Z6XTB8ogFwuDFgs8MDVT+rRARJZa3XWqxxu4SlnhFuDdshcbmIir3LNnya2iJxo61WmKNemJxPcwANNPpkrDHxuV6AptgIElJyxxRa5WO1opSeU21YSnNeo+xxoR8O55Go5YmI1Y0xi0emVBXMmnJ2KTVxndZfcduq+2YtGgnv2O42zrqarLRPeqWakpbLZ0BuP9IwNZWlj0dwD1e92CCc1Nc4VfXwhSEOxzzIg10YCIkibgtp27YmUy4akX2YgrqqzHz20CqC6RgfXZE9i00eneKswSi/oWfrQkpcK847G2MzWOcIiiX3mM9yCRJrF6v29DQkA2PDNvIyIi6GHVPOoeJve32NOAKg4XThpQQrlw5t9wuiY6TmNYPJbvgkUOFgcRpQ0pQkg6P6V5T+/yIFD/XESfcoytREXKQcVp5ytWy9CxXbPTftdFu5mGMlSpiDipOK09Z4fRARcoKA4dtQEpGkqWA5ZFlhcHE6U3K8plr3+Fj1UkMKrZJzUDMylueKqjcRYWBQ0XKCgOHipQVBg4VKSsMHCpSVhg4VKSsMHCoSFlh4FCRssLAoSJlhYFDRcoKA4eKlBUGDhUpKwwcKlJWGDhUpKwwcFhLysL8m+Dy5S4+vwqf7kcK52N0vnVhJZr1xZftkIDyVcYyDf8eWOB/Yq1BN4hP4B3Kj+WSCAn/hyhBVubbT0B5BJb/D9/sgFJX9sLnZugarulN60QklLIXZZlAKEOwl44UWJaKbdhbtudGUqbhV6oC+cYbWwUQYznPMhf/FrwbxtXhzMp0j0dAqKveHMPZELY1rCFl1slYtFA7YXGijgreUWqJYu6q55akTSld20D45bFE5eHjLTII1cyCR6nVLE1GrZDFanxtmGeWKOFU28LJGlYEY1W06bzmhq1nbRvOm7qSj9pl7CS1otZSfIyo/Hqlpxw523pd5c5tqGhbg2XvlGeLdqV0o1q5PqVIzzmRsJ3FttDmZGxJu2VDrALRk+aS9ORJeaXpun/+e5U0ZOl3dLppOSvnyhYJq0zoHPZtK51WVthwUsjsTV0TlkrBgKwS4rqs0m+l1K2TJJbHmYre1nWpzXZaSlfa0bjyRc+TciSsgqEzrCPUjuvWVJxWa8bqUQujhPR69NtUesqBvgvHHrOOTNsWB5op61Rm4hTLM4pLLG6g7WZQPbEE6zJyGSdWCh0phW9K60M2W8T28S99077/2JQ1RZhUBVgPvvJCTxt1yBh8WVirqfDavvNll9j1B/f6Pt9o8zks2xIUqKU8Z7LIPvzpG+zwfG7zMmAK2X1dG9IvV1voryaetqP8WJZ6JFu00XTB3va6l9vzztpjw4WIIrIbP+fnjSaQs638WsmQHZ5p2oc/9VWbka6LNX6Efx24rsueoB8m4hl7/9tfYyMi+rBsOyKisXZj8GZBEumKXR+enrcPfeZGm+WnA1lxwlPgfwi6fh4g+DmVR5u6dN7biOy9b3+17RH5650Zy+tyBiIRawKxGhpap7Vhr9sb73rAvnbr3TYXs2Laaj8FnVajf1kaecsuGc/tnW95rWycW13OhIbQGBpWuqysUdprY/Ql5dTUMfuff/I/DA4U9WFrqWIen2vbjLxIlikzT359rK0kjlkkQGdUyLNGY9szFJTnU9jVn7tif9HJPcihqQWb6kAwfguSs4GUKAuh1gPLHC+qQSUiYF0er5G37czJcdtRl/HUC+A1c74H97TwTKrWpGbzHfUM8uaPHJ11kvKLvBshGHj9OI2kYwf2jtloXLPO7LyNyAZ15eMrnsmLo1PSkkdOhq2ZjNuPnpq3Zl73FYzRkUWn+DVhfrh1Bch4KVtsqQARjF6KNTuHpNNzD+y2EXnBWjpvLZE8Uz3yQ64Qk56riQ1HJ+2JmUU7orKZ4qyPFRn2Bf3csHrZc/ZPSk81fJFybKRh/+m3/7NN7NknnVkm5gRImaa5HTt6xP7Le94jz6aAWGpI0aIxaovqT+tiTA0vswH61SPkW4K6axZ9Z3mVkpC9xITUeJSWurpCLXxOZbKavJoqktV9fXWwnvj9wHipo+4bgpMeZSo6bRttDFm7qe5Eakc1Ol9IyYrB8h0iaVuNsqNWHdVHrK1+aGgTUm5y2jI17HbeUddct2FsIF0KujQVzIcgEhpNJtu2o4bVRyas1aZMahDSkeWwISRd/UZw/YhNLyZy8seQJW4v2s7Rurpz6UWoN8CwMFVH5E2GRmxe+UWNhkXr1msvjTZQuEhsx8ikNednpeeC1VRfOyfG7AN/9mc2smNC+clrso5TN/p6WENKxjFpO7XWglrs4qyTpVxHHO9D6/XxzjrwDGWU1RlzXGbk/m3DkjHm4hcL2MOriFZUqIzJ0tKEQqdNV/HyigwZFSqTqm5JSDukAwEkXQ+MdoR6N+Z6rO+NPYmursjq6uJYztZ/MSHOw2JS3kgknPMisR9rnE6eHgNPIO2ws8qFvpwrJ4j9QBlLe7EAVRjrQUDOBv1EfQlhNMDgFCg09ep5d+27HjjryW0AXzBMUnLEhwqaM+zYtVvkb6hx5tZQPutrErCGlErPJyh+IQRQQiVQmuxWXNCbg5/oErInUojC/92Rj08wNgLeAUPqip70Q86ijDYY3n8sfwkrMyQOg/oyANpRdiYxIWYoD2Xxuwqk6+HL6VCxgShdLJ0qCxUMTF5lestXB/hPpcTyTGS11DAApIds8lgJ67OD8L/HUpHInZLTP6zQtcweeIbSLILYQcdAsrBfgkYRqwIDt4M1vLLZAp1Iw0kOutteENaNu4SeY51GP8odrg47hXofktU0VQch/3B+fawhJWYOATKwCs1xbyKQJFsqfH94BXT318eKbNcgkJH8e9G9Ridp2SWN+sGrpA/3g0fowtmkSEtF4ZxXqR8RV4MM318Pm+tK5cgruUJISRTtk402dOVgmUIrCx5KtHx2NcJZGsSSIo5e+4Ry6s/L0S30yuga44a8ThSoEfqZ0oKaMGu4wrg8li1jDQVDQ9gYa0mpiygYoQhjj7BOdihumDX2Gq28vFSGImHA9ZVbLvIG6MmiW2fLUHnyGuUsI61NjzUWWVtxuVSgNx5kCXuh0sM2oKRAbx799NmCruomI5Ey5Ey8ZQ9Wrj/u8G33gGBFIWdCuMonPCtQngEhTbTAVqU2pRE95pIRyZv45bU65xGIvTqP5ThrUaa3jNAsuol184GMicR5pbG0JhJE3RDBOj1gVoaH5A5NTde3Wpr5KTwTQzuatTZbmuYrE+4/kXWn3bGpY1MqkWJJ0k6qsLa2GjQrrU6brqmwhfk5y9KOLWqs6vl0hwWZ0in3l6CkMrUw8uG+aUcTjrbyidQlpShGqZVXSxOWQtdSDuhBmZDm4mLoMnSu1b021b6bi7Iz0epeVRqeY/LxxbH0R/4LC4uuHzEyzSrZtpstz8PLlgYboBc6llt0RzjuaOujA4ggpoVFSAFbidIpMkVw+8ku2i802WrL7j7ZIY7CF+YX/Ar0DRJotTA/72Vh4pYziVJSqcrqgyjyw1wlw91wgbIgpC49lDf1gD3RjbTJA52xJeljB7YIcSgv+nPcbrVcOi0WXyXnYGMvjIBOXsfc7N4C1k50VoHCNlXYb3zjG3bnnXeKpC274oor7Bd+4Rfse9/7nn3+85+3eRnm6quvtp/92Z/1Sv3+979v//Zv/2bPfe5z7Y1vfKP98Ic/9HiHDh2y8847z37u537Ozj77bBF/uZArZucC+ZIu13E9xy9/+cvt+uuvtxtvvNG+9rWv+ez9Va96lb3oRS/y8w888IB96lOfsre//e124YUX2le+8hW77bbbRMq25/dLv/RL1tAsk8VUV+dXYmFhweVf/uVf7Ec/+pFsX9g73/lOO/fccz3PW2+91fP6xV/8Rbv00ks9Lra55ZZb7H3ve59NTk76NYCyHDlyxN7xjnfYjh07PE+Iz/3aXlBhlPHJJ5+0v//7v/f9nTt32pve9CY766yz7JOf/KT94Ac/8Osoy969e/26f/qnf7InnnjC3vWud9nw8LB97nOfs3vvvdftMjExYe9973u9LOSJ3quBHsjDDz/sZaWe9+3bZ29729s8r3/8x3+0Rx55xPP7zd/8TU9jenra7frUU0/Z7/7u79rc3JyHcT3lx+6//uu/7g2DNHrreKvY9AoMxkq4FB7SvfrVr/aKobA33HCDZwoJvv71r3vY/fffbx//+Me9sBiX6zDSJZdcYu95z3vs0UcfdaJwHQUnzkagMqmcF77whW4MygNhXvGKV9jrX/96+8xnPmMzMzN2880326c//WmbnZ21o0ePejwaAI3iN37jN+zBBx+0u+66yyuPMvUD4WNjY34tpKAiSIPKX5TH+Pd//3d75Stfaddee60TgLJjg29961t27Ngxvx6daLjY6Nvf/rZfNz4+3s0h2HM1IA42phFC9He/+92uA/ndfffdds8999hb3vIWJwwEJY0///M/dzLRYAHXE+8FL3iB24V6gozELR9a9IJw6oUtBHvZy15mv/qrv+qO44477nCdDh8+7GGU5ctf/rLr9bd/+7duR9JG0PdDH/qQ2+n3fu/33D40vjLtE8GmpGSZZgz7hje8wQ2G8oSRKQR7yUteYgcOHLD9+/e759y9e7f9yq/8ilcExoCcnP+Zn/kZ91a0xrKSytbbz2uhEMTAuBdffLHnCWGIy7lrrrnGnvOc53gajz32mKf9y7/8y244yAHpabWkgQfdtWuXx8eIlL0fuA5DowOeEBLgVUmLiqNiL7vsMi8PxzQA0nz/+9/velE2dKaR0IB++qd/2m0HSBf081iki8d93vOe53bGy5EnS2JjY44PHjxoV155pZOG8tMwfv7nf973iQtoJMSHTDRmyoJOpL+aIKUdKdd1111nL33pS90rkyfX4YHPPPNMu+iii9yh0MgoO/WBgyBd4mF70iE/HAT1xHFJzBPBpqREUQqK0eiK6JZf/OIXeyGoYAoKWWhNVHxZ+VxHRREPo1DIz372s3bGGWcsKVWGk85qYGiuR8n77rvPKxlPzTXkyfVsIQ1GoKVCfs6XeXIOQ+FF6VYxIlISdzU4x3UYk8rCS9100032O7/zO964KFMpnGcLSckfG3CM3nhyGiHhlJ+8SJO0kdUodSE+3pKehPivec1r3DZlJePlEexCT8E56qZMg8aC7rfffrt94AMfsKmpKU+H6ylbLygH1xCfc9QvQweOGSKhL3HQs9SDLQ2HspI319MAifvQQw952J/+6Z/6NZzrp+tWsCVPiUHwDH/xF3/hrep1r3udVyDKQFQyL1sF4cRHSnCOsSHdAhVMBVJoCg9x+hUe4lABEJLuEy+IpyjPYUQqB6OU5CRP8uJ8SbDf+q3f8rEPjYaxH+eIX5a3F2U5SIdxK2VmXEZaeI2yoVHZxCE+NkAXwgkjDt3ov/7rv3r3zZDmE5/4hMej0jjfD6SFfOELX7AvfvGL9gd/8AeuP16bMgNsTR6Qg7jozHgOkPav/dqv2Zvf/GZ761vfutSrUDbAfi9KXUv83d/9nTcIhlicw7mQL3nhDcv6pqckDCFPyoAnZ8iB5+aYsWXZGE8Em5ISYPCPfOQjblC6D/Z//OMf+4SHisPotBa60JIUKIAAvNw///M/2wUXXGAf/ehH3ZNQaIS02a4GyjNe+uAHP+gGZgD/13/91542HoE8P/zhDztZ6HYIx0ikRTkxyF/91V/ZV7/6VR/3UW4G7JzH6P0MRtk5j6fCq1MxjJXJC49Ed07ZGevRG+zZs8fz5Rxpkj/l/uM//mP7wz/8Qx+nYRNIQv5ULJW2GpAP0GiwJ93lX/7lX3q+l19+uQ8T/uEf/sHLwuSRNNARopEfYJiA00Bfegf0gyzkiUCiXqArccq6LYcF2JTe4aqrrnLvR8/4+OOPu+enMRMfh0DdUg4mgNiAuqEhYmPsspr0x4Pkj/7oj/57d78vSuXxapAKA6Is3SHjSY4xGoNrKqosDNfQnSJ4C86hCEpgyPPPP9/jgX5eiwouKxxSYgC6aCoFg+H5CKOLgywl2agcKhXDsE/ZKMtrX/tae/7zn+/plg2nX2NAX4QKYDxKeYlHQzjnnHP8HGRlAoXupEU+5EEjpQzlmJm4DFewFx6PvEHZWEtgW/JgPIid0JmGRprlmA7vw1CBbhu9yy4UwlE2ykKvgefkGuqjJA7pU07SK1Fei+CB0YkGTllJm7zQnXyxG3c+0I34pIM+2IOyMnbHzpzHztQHWJ3nVrHpLSEyopVheMhEJgiVSksjrOyGqQTilt0jxyhBGoBfqcJQZElQkoSBOL9WRZrLBaF7oLLaSndYLXPelV9UKx0d5kUJkaaucaUikU7BfUddj6HJizKRLm8lcY+yxhtG+uMmrulfc7FlkfIeGlpJylCuMH6jnIuLTePXtNANvdCZyi9Ji8egHKQdxxqrthdtSOGZyjc8Mup581hTJXR9koQbyapUgnrqirIGO9TcE5VE4rgkcr1e2pEhCsQIdVPaOE3bCmeoFQjfVlnQm/R4ksJP1FGOXszPL8hWw1528kFndES33joNdRZm8YB96pct57AXYJ/rAHHZ79fwN8OmpDwRhIcHItmS4bnRS/dBl8kWA/OiE5YNpiJuHlO9oRL82fYGIEWSR/wVr25eTlKF+itShQbpxnuYHIsUuQxWaADefTezvB70GqEsN3qQzrrQKfTiRZWOrqFZqYOTUaVDrvL7L3LFnp4/5iOpbnKEeT7d6zaCvzyB7UirkO3CRd1z3et5tY08yxMxDQJ9pXkR3hsNL6iUhehmXoriebrAN8ShrkDZigh79vETIGWZvAi39PKDCMVTBpTtMiBUEHF52wVyegCn+iI8wy1jhNjdbAW1XjyehNfQeFMn0cm6k7LjpMwU7qZ277MMjrpJe1K8YbMZIF7q1/D6Bk9iVPkF3lkzVoWLSl5ez6vMTg3F31SSrhA72Gwd+GNd9Qo0rZI8/OMaP9e9OO8ZBnESYkJKwrvlC/ALw+7StoTOLQWRdvC8PzmY/X+pyXqf/LTp4AAAAABJRU5ErkJggg==;" vertex="1" parent="1">
          <mxGeometry x="140" y="560" width="165" height="133" as="geometry" />
        </mxCell>
        <mxCell id="GRdJn9pDozvjfMk0XIZr-6" value="" style="shape=image;verticalLabelPosition=bottom;labelBackgroundColor=default;verticalAlign=top;aspect=fixed;imageAspect=0;image=data:image/png,iVBORw0KGgoAAAANSUhEUgAAAKUAAACFCAYAAAA6hzjsAAAAAXNSR0IArs4c6QAAAARnQU1BAACxjwv8YQUAAAAJcEhZcwAADsMAAA7DAcdvqGQAAABhaVRYdFNuaXBNZXRhZGF0YQAAAAAAeyJjbGlwUG9pbnRzIjpbeyJ4IjowLCJ5IjowfSx7IngiOjE2NSwieSI6MH0seyJ4IjoxNjUsInkiOjEzM30seyJ4IjowLCJ5IjoxMzN9XX2GuYHZAAAtK0lEQVR4Xu2daZBlR3Xnz733vVdrd1WvUmttCSSh3YAkEItxQLDYgA0BtgEbG+OxGY8JcEzYHxzzwRPhiLFjmJhw2B9sR2AHZrGNzWbGmFUMBo0EEmhBm4UQSKBWa+vu2ustd5n/7+S7Va+qXi3dkujXXfdfffremzdvZp6T/zyZeZd8UZ7nhVWoMECIu9sKFQYGFSkrDBwqUlYYOFSkrDBwqCY6myLqbk8UlXmPFxUpN4Jb5mmSMqrMe7youu8KA4fKU/agKAqLomXPKNt42Fr0856ErY1LcnEce1psV+dRYS0qUvagl4CBQKmlWacbcmIocohZs1qt5mSEnBUpN0ZFylWAmGmadsmT29DQ0yNQUST6v+7pkmaScFxhI1Sk7AFkxEMiIMub2m/7fn9sRNhg1iyLFWvEyUj6eMwKG2NbkzIoLo/oB1HovqOOzbefsm/f9VXr2KxI5JF6sB4RCV9rylq+w6698tXWqO1UVz5kcSSSxsTLJHjNp+eJT0dsW1K60uKDOlWLNfCLCiYjOo6bNtN6yL70zY9ZkUxbJ0s9/kr0I1J/Uo4U++yNr3i3JdFu8XBCHlOBkQiJFDAer7wtq2BdVLeE+qDgT16zEFnjpOgjhK+WrE+YyB6L6RWOCxUp+4BenElJnmeiZ2uVtFdJZ5WsPk83XeF4UJGyL0J3CqG4e7NSuM/YK2GWviyrz3tSFY4DFSn7gPuIvbPwCj9ZVFbfEOuZB/e3Woi7OqzCiaAi5aZgurxaMNtWRHGLipzHCyx3GuMZmPnyRGZLIlP2C9/MYz5jd4PQtVdOXQwuKfEw/eS40K+SetPrBm0ETV6elmwlk179emXLUB7lvU/Ps5QSx5PWyceAkhIjp6ukE8S4mb1VwVOhIkLFdCtn0OpoiVAq8wnpqmuXPDW6lnqXeMbc8U8EvSUfIEDKtqS1XEFeaYT3Stcb9RWSoaK04xKSXYJf390/mfByoGtT0qsrOnCulNX6lXEQnV8aLlClvYrpvIvinCIYUFICDIuR2UKurhfg0ZxLtxLWlT4vPnhdUTmDVkFUQ0mmUtcePVYcrxNeEnGp20fHLhkh7ikELDGAoGKGXbK0bkXeUFhdQkVwrqw4jteTsnIEdv2wsCyTh9G2yOn2BgAqZ5HXLU8blmcN6StdKb/rio5b0VXne72qyNhuN/3GfV5kS49MTxUMKCll5zxSJalqksT5FB77SYq0K+xvJIpji0EKpCVCtv0pi1KXDI7qeRapXLHrzAsbeffdy2VdM8lq/XqlI1nokbY1GomIGAjJm0ndVnlKYGBJGatyEpyABvLtdF4OBZmR45iWTEmO6Vj7S6KwXokVN5qV6DprSlr+Gloch7e/4wF62RbiwRsaTprRkOa6ZUdfdFmlm+vXe0xcrkEWXdc0Z8tj0rKbOHVIOaCvruXWSRetVo9tbk5Gt7bV6cGXJgIqcu84qi90zrtw1XYRusQir9nI8IRfG0XyJEqn36tr060f2pdu/pjlyVEdP71ufjjbb294+W9v+OpaITIy7mu1521ufsrGxjVUcT2Vt8fDd2zkP6hC9EXXMMyZn2vbnt1nWKddWKOuoZCPz08NDCgpIV1mreIJ+/otn7VjC4/IpryxQ1ckr+Jv3lABG5FSlS3RiE2EEwmzcbv++a+3/bsvUtiwzug89XiySal86Q1yefSjcw/bN275nOXxrIovolL2nPNcs3E1RYxNywlNPmojjbPt1S99qzWiCR8WQMpT5dugjZrfSQTGU9HizDo2Ze34iLUTSe2o9qetJWmr+2onG4niujxpnfgp66iby9W1hZnoYLXDWJ7NOSfvmGrY0VZ52/FRL3NHuqbo21fHZUk1nEkTXSd929p2jCFN3m100aBWdF+cSmWtsE1QkbLCwGEbkFJDAUYDp8ZwqoJwWpMyvKir8VSkrd+rq3AqoKqpCgOHipQVBg7bhJSDdQtoLcryhdfQwn1Y9sN9R+7PcmtnPSFGpqrMu6+scc9VQUqHc9znTCSnzqD69CYlT0So3KXn3QCVEVXSQHE1dxIl1tE2VQk5Bjx50pF0WCHx8n6miGlc01UNJTNkcZFYreh009L13Dzf8EHDYGGbeMo+cEIOSEVBmnxUbWdcBNqh/XF/AhXlw9o2LM5EtGxkpaQ9+3ldE7lFl4h3UI3Hlm1pxz5h7jZPGWxfUg4SWEUjbsrjdeTQ1FWLQFmcaZuKUG2dCyRzYcGtXnHydVSRCF2/sPQ4kWGAvKU/mh2obmFDVKQ82eCxZzyj7nhKpGxaO8kkUVdy69TaliYdyxTuIrKuEA8T/fJJy7LdluZ7JLstKyY1ABhVBjxfP4XcpFCR8qRD05qcF0cmrF3stqPze2w+u9BmOxfaTOegTbXOtZnW+TbTvkBy0Ka1P9U836ZL0fG0wmeaitc8T3HPsdnWWTa1uNvaJpKq689TxpXd7E4BDO6qa7JiKzpkN3zzY3a0+bAaPN2ZWhEL/Xg3Revf2ANEmoxGhSYNRcOizi57ydVvtjN3X6UwjcN4O0eXF5HmrSf5LSFehm8r/IGn5uwj/+fz1lIk+UfL2k3LO22d74hcma9vmaYdyzMVVF00b5PzbqgvxMU6R9IHx1vTGPWMnZP2J7//X21Ex0lL82/e3jtFXFDlKU8yvInpP2bQTc2aZzr7bcYO2mx0qS2OvMCynddZuvNaS8dfaPnEtRbtut7iPS+xbMc11hl7obVGnm/Nkau1vcJaw5dKLpacZwvRpM0r7VRj1LjB2PLUcZVbJGW4U1b+BVM+U3KyEcqxpiTdgGWt+/+V168RPLp79V50j7tRHMyM63MiT27tem7NoUVrD2vOPBTbnMaVUyLrfCI/OFyzzkjD0rEhy8aHrbZnwup7J62xb5cN7dtn0eT5ZjsvkJxryY4DVp/Y6/3IQsaEqCkv2gn5PesoleuV48MaUnKTNSRDX+YB6jrUhfBuX/SINaOHpeBTm8jjkie78pTl2ubREclRa2aPazurhNUNdT/eottcBgfI8StzvKCri0ScNoSQJbgBHecNa2Q1G1KXmZi6T3Wza0XdZleo7EIz4FI0PXGJu2JFxxpxpO47s4QhiPLj5ePCP4TTIERdb11bvkSqayTViIZNPbR/nxS+r1GpYm3jWlcSF6qO41pd5ZWMjjZseHTUasMTFg/tsOFkSCmajarfTuWBi4j8SmDb0s6lPBMgHbwy0r1H7PvHl/6KMWXgIKM1zIZVIut0tE3adt9Dt9hT8w/IuIXlbdRdB36KglDhcD6QnH2MyLjo8ouvt/27LhQZY0vihrZ8OMWFpbG01b9W9OizOqaElIVmtk2IJWrUsrqI0bH51oP25Zs/aO3GEeXEJwurEfKlJJSpF6wc3XtbcEhjyje98re1NyYdx0U2De66t2yCZdA3tfl4yO59ct7+5nN32LF4zDo6DuNdbvWQ10admogda6YeyYtqHDCSLdqZxbT9t3e9ysZ1NpFTSWJR3wed5AnKLeiWVg1kE5NuAdR9Tz5uIMouWZH/+thIU0+b72RYpfbosUft8ScftsNH7rfHpu5dksM94mHHynP3LZ87cq8dOnq3PXrsbnti9j9soXXMe7bl1/PL7U8Yni1vZeOn+FOlxPKEYlYqz5IVQ/KcOt+VZElU0RImFIUInyseYpKCfQvbsF93UWzJsrm7WauewiDg6SJMeORS8MqxNKqhk9LnZNngnRDse8YSiNIli8T/2D4NWf4UWlv/BslndhIIH5zVZtiYlFKEL+2KvK0kNWxWt8vnCXljdkmKHlkKr7Od6R7PmI3M+X5an7JM59Ji0Q1IYXHUS9w8GcBjynAYgsd73LBOo9ia8bi14lHLkmJJ0lXSETNTNViE+4WpCF0ed7rbVCRJIxFXefjz5/DPEQjju88IfGgge0LQJKl50m5mIXjl7sF6GUOqdWWZvOsKVlwRxnGwbICI6bIxuGJDpJ2Or9sdcWskaVlcU8XpeH1RN8uW8Zbvq3XUZAVJXFfFcKyKgoiBmCcRXc/Bh2X4lZhxov40CrT5YpctJOfYTHKWTccHNOE40+WYnRGkOMOmizNtLt9l8/mEZNIWCs142WYStkg6ZqnGqam8RxgadbOFGdhoC5W0Jcig3vN069/ty5YD7XiWoGtzNmEsj6dWPTH+U734hX1FUfuG90pIjRyo26WRoW/03xa6brA+KbtsbzTomlRhCV/DoQXhcskbStldhf0s1cA+wxvV/MN7H6zz0q0bSOmdNPDSQ2GJ9Es0vo1lWOw4r7HloSN1e/DxvXb/YxfZ3T8+aLc9eLbd+r0zJGfat/5jv/2/e3bb17+702757qjdeuew3XLHkN18e8Nuuq1mN3+nZjch2r/jvqa1ZIcwNtU2pQtDb9lS+m+tmjaHe0nsWSZY7rp52StPBHvDoTDTS0WeeenNHYB5efanIdGCdVL1pikf6FEez6qLrddzH1IqJWc0pyAVxmSMwH75WlRJvn5CXMXJReKcr/S4RvtLwvmTScQS6BkmT6gbMT7sMCZjjDhhc+09dnT+XHt87jI71v4pW4xfZJ36y6yVvFhd+4vUtb9Y+y+yBbtOHvIam82ebzPtq22mdbXiX2XHmlfa0cUr7cjcXsuYgMieWLWc3LBdGk9u0YM8k4DAPBNn4YOF9uN26Mm77dDUnXZo+o4TlsPH7rKpmUNWr8vrKu3lpWK8BYTdLWDt7FutB4PFIhU1BtvTaMZuuvOTdnj6O+LbgmL14XIvfEDbLQRpkKKyaTSGrd1u20suf4ddsP/FPlOMNN5iyZJuZAmKaKt/z+7sm7zbykZencd8nq3Gk43Yvj/dtv/9iRtturZHnRpefxlLObqr0aWMt+kHM40reTQjPdHVPZfC99qT9r/e9xYbVk5D2EDXRYXiiYgZr58pjUSVtxANP63Zd6ySpiI/P7s3qtn3eY2m/f7bX6Y5P6Zj9h3Gzm5EgZyjqGmd4oj94OHv2h333GzFTm63Y98ePTdAiLmMJBu2s8evtuuveaXKMaoIw+p9uvZzryy9fYy5MX/6nCWr1dmBbjHLxLuC4ZDesIBuOpB8qcWUaZfHJxfeWMp9d5e+ozB59GTMhy5RY8HF6qowSdRQ1yQpauryEh2PiBCjoozqoDauAcrOxOoTkp2xRNvxIWspadFBQ5iO5W1+9kR5qCGSt/9fFuJZRNCVjJaFhuMNKVHDbbTUSI5KjrikW5Ay7rJMqWksiuh03/qnBuiqlT2BbzYmJOgTo4fJVJJLuYSIXLL+aJel0IKR3rCcsaOqAZ8L/XiLRb1jN4yZKEOCkw0UoxyRyietVDFFjUkOGspDSedWa0FEarjw8iySa7xZSEyTl0geuOiIbinDlIY0H5LgHSRiaZyMWFLfof1QH8PywjELT4mQqWwRayjj9zUpzrMMtCqdB/lxG6zd5ub7hOWagGZ1hefcyzxxIdVWNqeOh7vc4kAk+zohcVRqFj4U3Bx9SLmJiTi9mZQ7dHF+DJZ2BgjdMrHplRVYfXKllH/LYSBsGZZw33AjbHz2ZKDU40Sk6wxLhKAerAnoiz6krPBMgK6LT3yXHxBU2CoqUj5LgIylVDg+VKR8lsAkwh/9dW9uVNTcOipSVhg4VKSsMHDoQ0p1N+FfdyYV/l9CeWIjWXnQxcr95aPV8UDV2W1nrCAltzrjovwcM9xszXhpNe5YlrasSLknxx2ucDfSn0zwou4qyYumpKUxVWpZwcsZCva0Otp2rOC+oHIIi3rqGu5jKZ7fl/enKxSrIuZ2RR9PqSCeYQMnU1uUESHrHf/4iDev01Rkk+RZ5o/SNKrvkdwSsYsXtcpt5PFSK3zb8Xi9T1MCyiPIWBFyO2MVKSEKhBQpxBE+FcCT8dfm+axcXicetag2KZnQ1TtdilWSZeOW5WPajom4Y0poXB54h0URb19LeCHWsy6ll4QrqVph+2EVKUEgSEmTJIZAk+p0D9hicZ7NZufZVHqu5DybKQ72lYXogiVZtAtsXtfM5+doe44tSjoFL+n3ErK7Zdczroi5nbGClPhFumfevvY3cXx8NyoSTdqhx/bYAw/tt/sPHbA7H9ll33loh938vYbdeF/NvnFPZF/7bmE33J7aV25L7Yu3duyLt7Tti99s2Re+uWBfktxwS9Pl/367bY8f9c5dGZakBOVW6NmtsP2wgpQgV1fNlIQ9d1hs8sTmW2fZdOtim8kvt5n4MltoXGXp2DWW77zOsvFrLdtxreUSvkdujrzAFoZ/yhaGrrL5+pU2V79C2ytsLn6ezSeXaiiwSwnDvFjDy34MJOPKW25X9CFleIulPIIyvOHTVje+GI/bgk2oC56wZj5prWK3uvU9mpDvs7y236xxwKKhs6w2cb7Vdh60ZMd5VttxrtW1TcbPsmTsgBVDihfzu4ukX3rKkpgVGSusIiUz4vCWOSJy8Mqaf3ejzrw2b+3GrE63rB6HmTWrfVnRDt80M9PWlu9cIs4riVojsfpQYo2h2IbYNiIbGebTii4JnX8lIUtUpNzuWEHKJZ/Fi6588M79RI0vPSxeVFjLVwbL86bitJyU/AJYHLM4Z1uR2ppZtyyBqDpXS3Kr1yKr1c3qIuSwk5Pvv5W+Eu3erdS/QMSwDF4IrbB9sYaUdSiBZ/TfLuRbZr70U3hWtyjjds6oRdywjBUzCi/zppoQhW5f7lHhNblWXmDlJ5EzG9ZEaVjbUcvptiOFkb7ShJjchCLfcNcykDKXd/bACtsSK0hZocIgoCJlhYFDRcoKA4eKlBUGDhUpKwwcKlJWGDgMMCnDLSJQfsu+HNYVf1VuHdF5/+veD+37NHNbIRigaxXfJyx8HvzMIKQa/veUu9mE/CTdzWYYSFL663LRrOVRyxVLJPyCVq1oSltWzOWD+pXLHwRhxZ4g3AnN47akI0l1DSvvBpvwLGq7kdQX8JLS/j4s9pAhhqxhUcpSEqxOjK1ltyxdkiLtrJDw0vb6kiKJ7CxD1/MGizV7fpkvj5Nj+C1hQEnJKmXccEdYeNRfFZaC3GKvyaAjCm/4Df6VUlsS4kX+i1wsfMoKDiyuReqBvOFm/RatdLpAKi95LRqoNnEiYkqyQs3ae5iA5b1lRDkvbK8V1k9y0fXUQz0e9rQLX2HOr1yx2QwD2n2LhMWoqDMWSBaLkDzlEVjJjXXJWcgpj2TIdYQ06iJkTZJkLB3NZxyE4icxFkvRbDNSOiuwQqh2lpNJ5Sk7+ZgO9sjOO60T73BJJe1ofIUU0U6L4ok1EkdBLJ60hcW6LbTkebPcakM4AvI8PpoNKCmD6fCXvqA9vztoTUnLj1mljF+aCWErJSrFn82H+P4Tcepawu/lIErcB5tbbLqnBVAaUOWs/6RBkmwS1RoaKk3aTLrXZqMLbS56rs3ac307H1+0QmYLXtg+3+bWkcX0bIvq+2xoaJfIKtvmOAD+lhvCVjCQpKR7rYtQjWLB6hFL4eHR8G7aoiitUMyiU4/9WN2xhGUCQ8etcI1l2tGcKMlinqwollmBx1U3VbAYUxHWztw28PYXlgOMvNpFUnGFV2em5hL7waN1u/vQHrvzR5N22w/H7Zbvjdg37k7s69+N7Gu3F/bV7+T25W+37cu3Ii2XL93S9Je4P9+VL918zO67/4g11Sv5GFL2Dp4yuBhVEIXYFANaK7SwRYkG5ep62+lOa+X7rVnst060V93LpHWK7u8Q8j6npGO7rc07ntmEyyJLPtu4WvyYLWgo0LRRaxWMQ3nJpPSSXlPbBIEQThLt+phaDdXXdy92ygMesKnsOTZVXGKz8aU2X7/c8h28xH2tFZPXmu261uJd11kxcY2l4y+w5vBVLu3Rn7KWtotDV1izfol/peAv6qhH0uCgmyc0U75yFFsZMg0kKTV81sC7IWPttqnWATvSutiebF1hjy5eZj+eO2gPzZxpj8yca4dmzrND0+fbozPn2+GZg5IL7NHpCxR20MMPz1xkh7V/ePpMe2J63OY7O0R3VtWVgfy1vG6G2wLLZKBD5ZjfAcIWHdM4stgrrzkpku6yPNlrhbrhDsfxLsuSPepY9mm6fobZyBkWSeKxAxaPnqnj/VYM77e8sU+y12qNM9ylBNuqJmkAypom4d5zCxhIUjJibMajNp1O2I+O7rP7Dx+w+x+/QHLQ7nniLLv7yX12+8MTdvsP1NU8uNNufWDcvnX/qN1835DddG/DbrqnbjffNWLfun3cbr1tyG69PZVM20J7XG2XX2voWsqHBNsJ0hvVYUiXNG4Fn1SOKihQNNzLCT+G7yshe3h4bzap5dYYimx0JLHR0ZqNDLNNbHysZmNjo1Yf2i2ykz55LZOQLEPGm2MgSRnsVWgcGNuCuuvF+rk2nZ1hc8UBayfnW6fxHLOdl5lNXG6FtsUO7btc7lKMs73UotHLLBu73NIxxRm70Nq+sCdOEmNhoK0Z6XTB8ogFwuDFgs8MDVT+rRARJZa3XWqxxu4SlnhFuDdshcbmIir3LNnya2iJxo61WmKNemJxPcwANNPpkrDHxuV6AptgIElJyxxRa5WO1opSeU21YSnNeo+xxoR8O55Go5YmI1Y0xi0emVBXMmnJ2KTVxndZfcduq+2YtGgnv2O42zrqarLRPeqWakpbLZ0BuP9IwNZWlj0dwD1e92CCc1Nc4VfXwhSEOxzzIg10YCIkibgtp27YmUy4akX2YgrqqzHz20CqC6RgfXZE9i00eneKswSi/oWfrQkpcK847G2MzWOcIiiX3mM9yCRJrF6v29DQkA2PDNvIyIi6GHVPOoeJve32NOAKg4XThpQQrlw5t9wuiY6TmNYPJbvgkUOFgcRpQ0pQkg6P6V5T+/yIFD/XESfcoytREXKQcVp5ytWy9CxXbPTftdFu5mGMlSpiDipOK09Z4fRARcoKA4dtQEpGkqWA5ZFlhcHE6U3K8plr3+Fj1UkMKrZJzUDMylueKqjcRYWBQ0XKCgOHipQVBg4VKSsMHCpSVhg4VKSsMHCoSFlh4FCRssLAoSJlhYFDRcoKA4eKlBUGDhUpKwwcKlJWGDhUpKwwcFhLysL8m+Dy5S4+vwqf7kcK52N0vnVhJZr1xZftkIDyVcYyDf8eWOB/Yq1BN4hP4B3Kj+WSCAn/hyhBVubbT0B5BJb/D9/sgFJX9sLnZugarulN60QklLIXZZlAKEOwl44UWJaKbdhbtudGUqbhV6oC+cYbWwUQYznPMhf/FrwbxtXhzMp0j0dAqKveHMPZELY1rCFl1slYtFA7YXGijgreUWqJYu6q55akTSld20D45bFE5eHjLTII1cyCR6nVLE1GrZDFanxtmGeWKOFU28LJGlYEY1W06bzmhq1nbRvOm7qSj9pl7CS1otZSfIyo/Hqlpxw523pd5c5tqGhbg2XvlGeLdqV0o1q5PqVIzzmRsJ3FttDmZGxJu2VDrALRk+aS9ORJeaXpun/+e5U0ZOl3dLppOSvnyhYJq0zoHPZtK51WVthwUsjsTV0TlkrBgKwS4rqs0m+l1K2TJJbHmYre1nWpzXZaSlfa0bjyRc+TciSsgqEzrCPUjuvWVJxWa8bqUQujhPR69NtUesqBvgvHHrOOTNsWB5op61Rm4hTLM4pLLG6g7WZQPbEE6zJyGSdWCh0phW9K60M2W8T28S99077/2JQ1RZhUBVgPvvJCTxt1yBh8WVirqfDavvNll9j1B/f6Pt9o8zks2xIUqKU8Z7LIPvzpG+zwfG7zMmAK2X1dG9IvV1voryaetqP8WJZ6JFu00XTB3va6l9vzztpjw4WIIrIbP+fnjSaQs638WsmQHZ5p2oc/9VWbka6LNX6Efx24rsueoB8m4hl7/9tfYyMi+rBsOyKisXZj8GZBEumKXR+enrcPfeZGm+WnA1lxwlPgfwi6fh4g+DmVR5u6dN7biOy9b3+17RH5650Zy+tyBiIRawKxGhpap7Vhr9sb73rAvnbr3TYXs2Laaj8FnVajf1kaecsuGc/tnW95rWycW13OhIbQGBpWuqysUdprY/Ql5dTUMfuff/I/DA4U9WFrqWIen2vbjLxIlikzT359rK0kjlkkQGdUyLNGY9szFJTnU9jVn7tif9HJPcihqQWb6kAwfguSs4GUKAuh1gPLHC+qQSUiYF0er5G37czJcdtRl/HUC+A1c74H97TwTKrWpGbzHfUM8uaPHJ11kvKLvBshGHj9OI2kYwf2jtloXLPO7LyNyAZ15eMrnsmLo1PSkkdOhq2ZjNuPnpq3Zl73FYzRkUWn+DVhfrh1Bch4KVtsqQARjF6KNTuHpNNzD+y2EXnBWjpvLZE8Uz3yQ64Qk56riQ1HJ+2JmUU7orKZ4qyPFRn2Bf3csHrZc/ZPSk81fJFybKRh/+m3/7NN7NknnVkm5gRImaa5HTt6xP7Le94jz6aAWGpI0aIxaovqT+tiTA0vswH61SPkW4K6axZ9Z3mVkpC9xITUeJSWurpCLXxOZbKavJoqktV9fXWwnvj9wHipo+4bgpMeZSo6bRttDFm7qe5Eakc1Ol9IyYrB8h0iaVuNsqNWHdVHrK1+aGgTUm5y2jI17HbeUddct2FsIF0KujQVzIcgEhpNJtu2o4bVRyas1aZMahDSkeWwISRd/UZw/YhNLyZy8seQJW4v2s7Rurpz6UWoN8CwMFVH5E2GRmxe+UWNhkXr1msvjTZQuEhsx8ikNednpeeC1VRfOyfG7AN/9mc2smNC+clrso5TN/p6WENKxjFpO7XWglrs4qyTpVxHHO9D6/XxzjrwDGWU1RlzXGbk/m3DkjHm4hcL2MOriFZUqIzJ0tKEQqdNV/HyigwZFSqTqm5JSDukAwEkXQ+MdoR6N+Z6rO+NPYmursjq6uJYztZ/MSHOw2JS3kgknPMisR9rnE6eHgNPIO2ws8qFvpwrJ4j9QBlLe7EAVRjrQUDOBv1EfQlhNMDgFCg09ep5d+27HjjryW0AXzBMUnLEhwqaM+zYtVvkb6hx5tZQPutrErCGlErPJyh+IQRQQiVQmuxWXNCbg5/oErInUojC/92Rj08wNgLeAUPqip70Q86ijDYY3n8sfwkrMyQOg/oyANpRdiYxIWYoD2Xxuwqk6+HL6VCxgShdLJ0qCxUMTF5lestXB/hPpcTyTGS11DAApIds8lgJ67OD8L/HUpHInZLTP6zQtcweeIbSLILYQcdAsrBfgkYRqwIDt4M1vLLZAp1Iw0kOutteENaNu4SeY51GP8odrg47hXofktU0VQch/3B+fawhJWYOATKwCs1xbyKQJFsqfH94BXT318eKbNcgkJH8e9G9Ridp2SWN+sGrpA/3g0fowtmkSEtF4ZxXqR8RV4MM318Pm+tK5cgruUJISRTtk402dOVgmUIrCx5KtHx2NcJZGsSSIo5e+4Ry6s/L0S30yuga44a8ThSoEfqZ0oKaMGu4wrg8li1jDQVDQ9gYa0mpiygYoQhjj7BOdihumDX2Gq28vFSGImHA9ZVbLvIG6MmiW2fLUHnyGuUsI61NjzUWWVtxuVSgNx5kCXuh0sM2oKRAbx799NmCruomI5Ey5Ey8ZQ9Wrj/u8G33gGBFIWdCuMonPCtQngEhTbTAVqU2pRE95pIRyZv45bU65xGIvTqP5ThrUaa3jNAsuol184GMicR5pbG0JhJE3RDBOj1gVoaH5A5NTde3Wpr5KTwTQzuatTZbmuYrE+4/kXWn3bGpY1MqkWJJ0k6qsLa2GjQrrU6brqmwhfk5y9KOLWqs6vl0hwWZ0in3l6CkMrUw8uG+aUcTjrbyidQlpShGqZVXSxOWQtdSDuhBmZDm4mLoMnSu1b021b6bi7Iz0epeVRqeY/LxxbH0R/4LC4uuHzEyzSrZtpstz8PLlgYboBc6llt0RzjuaOujA4ggpoVFSAFbidIpMkVw+8ku2i802WrL7j7ZIY7CF+YX/Ar0DRJotTA/72Vh4pYziVJSqcrqgyjyw1wlw91wgbIgpC49lDf1gD3RjbTJA52xJeljB7YIcSgv+nPcbrVcOi0WXyXnYGMvjIBOXsfc7N4C1k50VoHCNlXYb3zjG3bnnXeKpC274oor7Bd+4Rfse9/7nn3+85+3eRnm6quvtp/92Z/1Sv3+979v//Zv/2bPfe5z7Y1vfKP98Ic/9HiHDh2y8847z37u537Ozj77bBF/uZArZucC+ZIu13E9xy9/+cvt+uuvtxtvvNG+9rWv+ez9Va96lb3oRS/y8w888IB96lOfsre//e124YUX2le+8hW77bbbRMq25/dLv/RL1tAsk8VUV+dXYmFhweVf/uVf7Ec/+pFsX9g73/lOO/fccz3PW2+91fP6xV/8Rbv00ks9Lra55ZZb7H3ve59NTk76NYCyHDlyxN7xjnfYjh07PE+Iz/3aXlBhlPHJJ5+0v//7v/f9nTt32pve9CY766yz7JOf/KT94Ac/8Osoy969e/26f/qnf7InnnjC3vWud9nw8LB97nOfs3vvvdftMjExYe9973u9LOSJ3quBHsjDDz/sZaWe9+3bZ29729s8r3/8x3+0Rx55xPP7zd/8TU9jenra7frUU0/Z7/7u79rc3JyHcT3lx+6//uu/7g2DNHrreKvY9AoMxkq4FB7SvfrVr/aKobA33HCDZwoJvv71r3vY/fffbx//+Me9sBiX6zDSJZdcYu95z3vs0UcfdaJwHQUnzkagMqmcF77whW4MygNhXvGKV9jrX/96+8xnPmMzMzN2880326c//WmbnZ21o0ePejwaAI3iN37jN+zBBx+0u+66yyuPMvUD4WNjY34tpKAiSIPKX5TH+Pd//3d75Stfaddee60TgLJjg29961t27Ngxvx6daLjY6Nvf/rZfNz4+3s0h2HM1IA42phFC9He/+92uA/ndfffdds8999hb3vIWJwwEJY0///M/dzLRYAHXE+8FL3iB24V6gozELR9a9IJw6oUtBHvZy15mv/qrv+qO44477nCdDh8+7GGU5ctf/rLr9bd/+7duR9JG0PdDH/qQ2+n3fu/33D40vjLtE8GmpGSZZgz7hje8wQ2G8oSRKQR7yUteYgcOHLD9+/e759y9e7f9yq/8ilcExoCcnP+Zn/kZ91a0xrKSytbbz2uhEMTAuBdffLHnCWGIy7lrrrnGnvOc53gajz32mKf9y7/8y244yAHpabWkgQfdtWuXx8eIlL0fuA5DowOeEBLgVUmLiqNiL7vsMi8PxzQA0nz/+9/velE2dKaR0IB++qd/2m0HSBf081iki8d93vOe53bGy5EnS2JjY44PHjxoV155pZOG8tMwfv7nf973iQtoJMSHTDRmyoJOpL+aIKUdKdd1111nL33pS90rkyfX4YHPPPNMu+iii9yh0MgoO/WBgyBd4mF70iE/HAT1xHFJzBPBpqREUQqK0eiK6JZf/OIXeyGoYAoKWWhNVHxZ+VxHRREPo1DIz372s3bGGWcsKVWGk85qYGiuR8n77rvPKxlPzTXkyfVsIQ1GoKVCfs6XeXIOQ+FF6VYxIlISdzU4x3UYk8rCS9100032O7/zO964KFMpnGcLSckfG3CM3nhyGiHhlJ+8SJO0kdUodSE+3pKehPivec1r3DZlJePlEexCT8E56qZMg8aC7rfffrt94AMfsKmpKU+H6ylbLygH1xCfc9QvQweOGSKhL3HQs9SDLQ2HspI319MAifvQQw952J/+6Z/6NZzrp+tWsCVPiUHwDH/xF3/hrep1r3udVyDKQFQyL1sF4cRHSnCOsSHdAhVMBVJoCg9x+hUe4lABEJLuEy+IpyjPYUQqB6OU5CRP8uJ8SbDf+q3f8rEPjYaxH+eIX5a3F2U5SIdxK2VmXEZaeI2yoVHZxCE+NkAXwgkjDt3ov/7rv3r3zZDmE5/4hMej0jjfD6SFfOELX7AvfvGL9gd/8AeuP16bMgNsTR6Qg7jozHgOkPav/dqv2Zvf/GZ761vfutSrUDbAfi9KXUv83d/9nTcIhlicw7mQL3nhDcv6pqckDCFPyoAnZ8iB5+aYsWXZGE8Em5ISYPCPfOQjblC6D/Z//OMf+4SHisPotBa60JIUKIAAvNw///M/2wUXXGAf/ehH3ZNQaIS02a4GyjNe+uAHP+gGZgD/13/91542HoE8P/zhDztZ6HYIx0ikRTkxyF/91V/ZV7/6VR/3UW4G7JzH6P0MRtk5j6fCq1MxjJXJC49Ed07ZGevRG+zZs8fz5Rxpkj/l/uM//mP7wz/8Qx+nYRNIQv5ULJW2GpAP0GiwJ93lX/7lX3q+l19+uQ8T/uEf/sHLwuSRNNARopEfYJiA00Bfegf0gyzkiUCiXqArccq6LYcF2JTe4aqrrnLvR8/4+OOPu+enMRMfh0DdUg4mgNiAuqEhYmPsspr0x4Pkj/7oj/57d78vSuXxapAKA6Is3SHjSY4xGoNrKqosDNfQnSJ4C86hCEpgyPPPP9/jgX5eiwouKxxSYgC6aCoFg+H5CKOLgywl2agcKhXDsE/ZKMtrX/tae/7zn+/plg2nX2NAX4QKYDxKeYlHQzjnnHP8HGRlAoXupEU+5EEjpQzlmJm4DFewFx6PvEHZWEtgW/JgPIid0JmGRprlmA7vw1CBbhu9yy4UwlE2ykKvgefkGuqjJA7pU07SK1Fei+CB0YkGTllJm7zQnXyxG3c+0I34pIM+2IOyMnbHzpzHztQHWJ3nVrHpLSEyopVheMhEJgiVSksjrOyGqQTilt0jxyhBGoBfqcJQZElQkoSBOL9WRZrLBaF7oLLaSndYLXPelV9UKx0d5kUJkaaucaUikU7BfUddj6HJizKRLm8lcY+yxhtG+uMmrulfc7FlkfIeGlpJylCuMH6jnIuLTePXtNANvdCZyi9Ji8egHKQdxxqrthdtSOGZyjc8Mup581hTJXR9koQbyapUgnrqirIGO9TcE5VE4rgkcr1e2pEhCsQIdVPaOE3bCmeoFQjfVlnQm/R4ksJP1FGOXszPL8hWw1528kFndES33joNdRZm8YB96pct57AXYJ/rAHHZ79fwN8OmpDwRhIcHItmS4bnRS/dBl8kWA/OiE5YNpiJuHlO9oRL82fYGIEWSR/wVr25eTlKF+itShQbpxnuYHIsUuQxWaADefTezvB70GqEsN3qQzrrQKfTiRZWOrqFZqYOTUaVDrvL7L3LFnp4/5iOpbnKEeT7d6zaCvzyB7UirkO3CRd1z3et5tY08yxMxDQJ9pXkR3hsNL6iUhehmXoriebrAN8ShrkDZigh79vETIGWZvAi39PKDCMVTBpTtMiBUEHF52wVyegCn+iI8wy1jhNjdbAW1XjyehNfQeFMn0cm6k7LjpMwU7qZ277MMjrpJe1K8YbMZIF7q1/D6Bk9iVPkF3lkzVoWLSl5ez6vMTg3F31SSrhA72Gwd+GNd9Qo0rZI8/OMaP9e9OO8ZBnESYkJKwrvlC/ALw+7StoTOLQWRdvC8PzmY/X+pyXqf/LTp4AAAAABJRU5ErkJggg==;" vertex="1" parent="1">
          <mxGeometry x="425" y="550" width="165" height="133" as="geometry" />
        </mxCell>
        <mxCell id="GRdJn9pDozvjfMk0XIZr-7" value="" style="shape=image;verticalLabelPosition=bottom;labelBackgroundColor=default;verticalAlign=top;aspect=fixed;imageAspect=0;image=data:image/png,iVBORw0KGgoAAAANSUhEUgAAAKUAAACFCAYAAAA6hzjsAAAAAXNSR0IArs4c6QAAAARnQU1BAACxjwv8YQUAAAAJcEhZcwAADsMAAA7DAcdvqGQAAABhaVRYdFNuaXBNZXRhZGF0YQAAAAAAeyJjbGlwUG9pbnRzIjpbeyJ4IjowLCJ5IjowfSx7IngiOjE2NSwieSI6MH0seyJ4IjoxNjUsInkiOjEzM30seyJ4IjowLCJ5IjoxMzN9XX2GuYHZAAAtK0lEQVR4Xu2daZBlR3Xnz733vVdrd1WvUmttCSSh3YAkEItxQLDYgA0BtgEbG+OxGY8JcEzYHxzzwRPhiLFjmJhw2B9sR2AHZrGNzWbGmFUMBo0EEmhBm4UQSKBWa+vu2ustd5n/7+S7Va+qXi3dkujXXfdfffremzdvZp6T/zyZeZd8UZ7nhVWoMECIu9sKFQYGFSkrDBwqUlYYOFSkrDBwqCY6myLqbk8UlXmPFxUpN4Jb5mmSMqrMe7youu8KA4fKU/agKAqLomXPKNt42Fr0856ErY1LcnEce1psV+dRYS0qUvagl4CBQKmlWacbcmIocohZs1qt5mSEnBUpN0ZFylWAmGmadsmT29DQ0yNQUST6v+7pkmaScFxhI1Sk7AFkxEMiIMub2m/7fn9sRNhg1iyLFWvEyUj6eMwKG2NbkzIoLo/oB1HovqOOzbefsm/f9VXr2KxI5JF6sB4RCV9rylq+w6698tXWqO1UVz5kcSSSxsTLJHjNp+eJT0dsW1K60uKDOlWLNfCLCiYjOo6bNtN6yL70zY9ZkUxbJ0s9/kr0I1J/Uo4U++yNr3i3JdFu8XBCHlOBkQiJFDAer7wtq2BdVLeE+qDgT16zEFnjpOgjhK+WrE+YyB6L6RWOCxUp+4BenElJnmeiZ2uVtFdJZ5WsPk83XeF4UJGyL0J3CqG4e7NSuM/YK2GWviyrz3tSFY4DFSn7gPuIvbPwCj9ZVFbfEOuZB/e3Woi7OqzCiaAi5aZgurxaMNtWRHGLipzHCyx3GuMZmPnyRGZLIlP2C9/MYz5jd4PQtVdOXQwuKfEw/eS40K+SetPrBm0ETV6elmwlk179emXLUB7lvU/Ps5QSx5PWyceAkhIjp6ukE8S4mb1VwVOhIkLFdCtn0OpoiVAq8wnpqmuXPDW6lnqXeMbc8U8EvSUfIEDKtqS1XEFeaYT3Stcb9RWSoaK04xKSXYJf390/mfByoGtT0qsrOnCulNX6lXEQnV8aLlClvYrpvIvinCIYUFICDIuR2UKurhfg0ZxLtxLWlT4vPnhdUTmDVkFUQ0mmUtcePVYcrxNeEnGp20fHLhkh7ikELDGAoGKGXbK0bkXeUFhdQkVwrqw4jteTsnIEdv2wsCyTh9G2yOn2BgAqZ5HXLU8blmcN6StdKb/rio5b0VXne72qyNhuN/3GfV5kS49MTxUMKCll5zxSJalqksT5FB77SYq0K+xvJIpji0EKpCVCtv0pi1KXDI7qeRapXLHrzAsbeffdy2VdM8lq/XqlI1nokbY1GomIGAjJm0ndVnlKYGBJGatyEpyABvLtdF4OBZmR45iWTEmO6Vj7S6KwXokVN5qV6DprSlr+Gloch7e/4wF62RbiwRsaTprRkOa6ZUdfdFmlm+vXe0xcrkEWXdc0Z8tj0rKbOHVIOaCvruXWSRetVo9tbk5Gt7bV6cGXJgIqcu84qi90zrtw1XYRusQir9nI8IRfG0XyJEqn36tr060f2pdu/pjlyVEdP71ufjjbb294+W9v+OpaITIy7mu1521ufsrGxjVUcT2Vt8fDd2zkP6hC9EXXMMyZn2vbnt1nWKddWKOuoZCPz08NDCgpIV1mreIJ+/otn7VjC4/IpryxQ1ckr+Jv3lABG5FSlS3RiE2EEwmzcbv++a+3/bsvUtiwzug89XiySal86Q1yefSjcw/bN275nOXxrIovolL2nPNcs3E1RYxNywlNPmojjbPt1S99qzWiCR8WQMpT5dugjZrfSQTGU9HizDo2Ze34iLUTSe2o9qetJWmr+2onG4niujxpnfgp66iby9W1hZnoYLXDWJ7NOSfvmGrY0VZ52/FRL3NHuqbo21fHZUk1nEkTXSd929p2jCFN3m100aBWdF+cSmWtsE1QkbLCwGEbkFJDAUYDp8ZwqoJwWpMyvKir8VSkrd+rq3AqoKqpCgOHipQVBg7bhJSDdQtoLcryhdfQwn1Y9sN9R+7PcmtnPSFGpqrMu6+scc9VQUqHc9znTCSnzqD69CYlT0So3KXn3QCVEVXSQHE1dxIl1tE2VQk5Bjx50pF0WCHx8n6miGlc01UNJTNkcZFYreh009L13Dzf8EHDYGGbeMo+cEIOSEVBmnxUbWdcBNqh/XF/AhXlw9o2LM5EtGxkpaQ9+3ldE7lFl4h3UI3Hlm1pxz5h7jZPGWxfUg4SWEUjbsrjdeTQ1FWLQFmcaZuKUG2dCyRzYcGtXnHydVSRCF2/sPQ4kWGAvKU/mh2obmFDVKQ82eCxZzyj7nhKpGxaO8kkUVdy69TaliYdyxTuIrKuEA8T/fJJy7LdluZ7JLstKyY1ABhVBjxfP4XcpFCR8qRD05qcF0cmrF3stqPze2w+u9BmOxfaTOegTbXOtZnW+TbTvkBy0Ka1P9U836ZL0fG0wmeaitc8T3HPsdnWWTa1uNvaJpKq689TxpXd7E4BDO6qa7JiKzpkN3zzY3a0+bAaPN2ZWhEL/Xg3Revf2ANEmoxGhSYNRcOizi57ydVvtjN3X6UwjcN4O0eXF5HmrSf5LSFehm8r/IGn5uwj/+fz1lIk+UfL2k3LO22d74hcma9vmaYdyzMVVF00b5PzbqgvxMU6R9IHx1vTGPWMnZP2J7//X21Ex0lL82/e3jtFXFDlKU8yvInpP2bQTc2aZzr7bcYO2mx0qS2OvMCynddZuvNaS8dfaPnEtRbtut7iPS+xbMc11hl7obVGnm/Nkau1vcJaw5dKLpacZwvRpM0r7VRj1LjB2PLUcZVbJGW4U1b+BVM+U3KyEcqxpiTdgGWt+/+V168RPLp79V50j7tRHMyM63MiT27tem7NoUVrD2vOPBTbnMaVUyLrfCI/OFyzzkjD0rEhy8aHrbZnwup7J62xb5cN7dtn0eT5ZjsvkJxryY4DVp/Y6/3IQsaEqCkv2gn5PesoleuV48MaUnKTNSRDX+YB6jrUhfBuX/SINaOHpeBTm8jjkie78pTl2ubREclRa2aPazurhNUNdT/eottcBgfI8StzvKCri0ScNoSQJbgBHecNa2Q1G1KXmZi6T3Wza0XdZleo7EIz4FI0PXGJu2JFxxpxpO47s4QhiPLj5ePCP4TTIERdb11bvkSqayTViIZNPbR/nxS+r1GpYm3jWlcSF6qO41pd5ZWMjjZseHTUasMTFg/tsOFkSCmajarfTuWBi4j8SmDb0s6lPBMgHbwy0r1H7PvHl/6KMWXgIKM1zIZVIut0tE3adt9Dt9hT8w/IuIXlbdRdB36KglDhcD6QnH2MyLjo8ouvt/27LhQZY0vihrZ8OMWFpbG01b9W9OizOqaElIVmtk2IJWrUsrqI0bH51oP25Zs/aO3GEeXEJwurEfKlJJSpF6wc3XtbcEhjyje98re1NyYdx0U2De66t2yCZdA3tfl4yO59ct7+5nN32LF4zDo6DuNdbvWQ10admogda6YeyYtqHDCSLdqZxbT9t3e9ysZ1NpFTSWJR3wed5AnKLeiWVg1kE5NuAdR9Tz5uIMouWZH/+thIU0+b72RYpfbosUft8ScftsNH7rfHpu5dksM94mHHynP3LZ87cq8dOnq3PXrsbnti9j9soXXMe7bl1/PL7U8Yni1vZeOn+FOlxPKEYlYqz5IVQ/KcOt+VZElU0RImFIUInyseYpKCfQvbsF93UWzJsrm7WauewiDg6SJMeORS8MqxNKqhk9LnZNngnRDse8YSiNIli8T/2D4NWf4UWlv/BslndhIIH5zVZtiYlFKEL+2KvK0kNWxWt8vnCXljdkmKHlkKr7Od6R7PmI3M+X5an7JM59Ji0Q1IYXHUS9w8GcBjynAYgsd73LBOo9ia8bi14lHLkmJJ0lXSETNTNViE+4WpCF0ed7rbVCRJIxFXefjz5/DPEQjju88IfGgge0LQJKl50m5mIXjl7sF6GUOqdWWZvOsKVlwRxnGwbICI6bIxuGJDpJ2Or9sdcWskaVlcU8XpeH1RN8uW8Zbvq3XUZAVJXFfFcKyKgoiBmCcRXc/Bh2X4lZhxov40CrT5YpctJOfYTHKWTccHNOE40+WYnRGkOMOmizNtLt9l8/mEZNIWCs142WYStkg6ZqnGqam8RxgadbOFGdhoC5W0Jcig3vN069/ty5YD7XiWoGtzNmEsj6dWPTH+U734hX1FUfuG90pIjRyo26WRoW/03xa6brA+KbtsbzTomlRhCV/DoQXhcskbStldhf0s1cA+wxvV/MN7H6zz0q0bSOmdNPDSQ2GJ9Es0vo1lWOw4r7HloSN1e/DxvXb/YxfZ3T8+aLc9eLbd+r0zJGfat/5jv/2/e3bb17+702757qjdeuew3XLHkN18e8Nuuq1mN3+nZjch2r/jvqa1ZIcwNtU2pQtDb9lS+m+tmjaHe0nsWSZY7rp52StPBHvDoTDTS0WeeenNHYB5efanIdGCdVL1pikf6FEez6qLrddzH1IqJWc0pyAVxmSMwH75WlRJvn5CXMXJReKcr/S4RvtLwvmTScQS6BkmT6gbMT7sMCZjjDhhc+09dnT+XHt87jI71v4pW4xfZJ36y6yVvFhd+4vUtb9Y+y+yBbtOHvIam82ebzPtq22mdbXiX2XHmlfa0cUr7cjcXsuYgMieWLWc3LBdGk9u0YM8k4DAPBNn4YOF9uN26Mm77dDUnXZo+o4TlsPH7rKpmUNWr8vrKu3lpWK8BYTdLWDt7FutB4PFIhU1BtvTaMZuuvOTdnj6O+LbgmL14XIvfEDbLQRpkKKyaTSGrd1u20suf4ddsP/FPlOMNN5iyZJuZAmKaKt/z+7sm7zbykZencd8nq3Gk43Yvj/dtv/9iRtturZHnRpefxlLObqr0aWMt+kHM40reTQjPdHVPZfC99qT9r/e9xYbVk5D2EDXRYXiiYgZr58pjUSVtxANP63Zd6ySpiI/P7s3qtn3eY2m/f7bX6Y5P6Zj9h3Gzm5EgZyjqGmd4oj94OHv2h333GzFTm63Y98ePTdAiLmMJBu2s8evtuuveaXKMaoIw+p9uvZzryy9fYy5MX/6nCWr1dmBbjHLxLuC4ZDesIBuOpB8qcWUaZfHJxfeWMp9d5e+ozB59GTMhy5RY8HF6qowSdRQ1yQpauryEh2PiBCjoozqoDauAcrOxOoTkp2xRNvxIWspadFBQ5iO5W1+9kR5qCGSt/9fFuJZRNCVjJaFhuMNKVHDbbTUSI5KjrikW5Ay7rJMqWksiuh03/qnBuiqlT2BbzYmJOgTo4fJVJJLuYSIXLL+aJel0IKR3rCcsaOqAZ8L/XiLRb1jN4yZKEOCkw0UoxyRyietVDFFjUkOGspDSedWa0FEarjw8iySa7xZSEyTl0geuOiIbinDlIY0H5LgHSRiaZyMWFLfof1QH8PywjELT4mQqWwRayjj9zUpzrMMtCqdB/lxG6zd5ub7hOWagGZ1hefcyzxxIdVWNqeOh7vc4kAk+zohcVRqFj4U3Bx9SLmJiTi9mZQ7dHF+DJZ2BgjdMrHplRVYfXKllH/LYSBsGZZw33AjbHz2ZKDU40Sk6wxLhKAerAnoiz6krPBMgK6LT3yXHxBU2CoqUj5LgIylVDg+VKR8lsAkwh/9dW9uVNTcOipSVhg4VKSsMHDoQ0p1N+FfdyYV/l9CeWIjWXnQxcr95aPV8UDV2W1nrCAltzrjovwcM9xszXhpNe5YlrasSLknxx2ucDfSn0zwou4qyYumpKUxVWpZwcsZCva0Otp2rOC+oHIIi3rqGu5jKZ7fl/enKxSrIuZ2RR9PqSCeYQMnU1uUESHrHf/4iDev01Rkk+RZ5o/SNKrvkdwSsYsXtcpt5PFSK3zb8Xi9T1MCyiPIWBFyO2MVKSEKhBQpxBE+FcCT8dfm+axcXicetag2KZnQ1TtdilWSZeOW5WPajom4Y0poXB54h0URb19LeCHWsy6ll4QrqVph+2EVKUEgSEmTJIZAk+p0D9hicZ7NZufZVHqu5DybKQ72lYXogiVZtAtsXtfM5+doe44tSjoFL+n3ErK7Zdczroi5nbGClPhFumfevvY3cXx8NyoSTdqhx/bYAw/tt/sPHbA7H9ll33loh938vYbdeF/NvnFPZF/7bmE33J7aV25L7Yu3duyLt7Tti99s2Re+uWBfktxwS9Pl/367bY8f9c5dGZakBOVW6NmtsP2wgpQgV1fNlIQ9d1hs8sTmW2fZdOtim8kvt5n4MltoXGXp2DWW77zOsvFrLdtxreUSvkdujrzAFoZ/yhaGrrL5+pU2V79C2ytsLn6ezSeXaiiwSwnDvFjDy34MJOPKW25X9CFleIulPIIyvOHTVje+GI/bgk2oC56wZj5prWK3uvU9mpDvs7y236xxwKKhs6w2cb7Vdh60ZMd5VttxrtW1TcbPsmTsgBVDihfzu4ukX3rKkpgVGSusIiUz4vCWOSJy8Mqaf3ejzrw2b+3GrE63rB6HmTWrfVnRDt80M9PWlu9cIs4riVojsfpQYo2h2IbYNiIbGebTii4JnX8lIUtUpNzuWEHKJZ/Fi6588M79RI0vPSxeVFjLVwbL86bitJyU/AJYHLM4Z1uR2ppZtyyBqDpXS3Kr1yKr1c3qIuSwk5Pvv5W+Eu3erdS/QMSwDF4IrbB9sYaUdSiBZ/TfLuRbZr70U3hWtyjjds6oRdywjBUzCi/zppoQhW5f7lHhNblWXmDlJ5EzG9ZEaVjbUcvptiOFkb7ShJjchCLfcNcykDKXd/bACtsSK0hZocIgoCJlhYFDRcoKA4eKlBUGDhUpKwwcKlJWGDgMMCnDLSJQfsu+HNYVf1VuHdF5/+veD+37NHNbIRigaxXfJyx8HvzMIKQa/veUu9mE/CTdzWYYSFL663LRrOVRyxVLJPyCVq1oSltWzOWD+pXLHwRhxZ4g3AnN47akI0l1DSvvBpvwLGq7kdQX8JLS/j4s9pAhhqxhUcpSEqxOjK1ltyxdkiLtrJDw0vb6kiKJ7CxD1/MGizV7fpkvj5Nj+C1hQEnJKmXccEdYeNRfFZaC3GKvyaAjCm/4Df6VUlsS4kX+i1wsfMoKDiyuReqBvOFm/RatdLpAKi95LRqoNnEiYkqyQs3ae5iA5b1lRDkvbK8V1k9y0fXUQz0e9rQLX2HOr1yx2QwD2n2LhMWoqDMWSBaLkDzlEVjJjXXJWcgpj2TIdYQ06iJkTZJkLB3NZxyE4icxFkvRbDNSOiuwQqh2lpNJ5Sk7+ZgO9sjOO60T73BJJe1ofIUU0U6L4ok1EkdBLJ60hcW6LbTkebPcakM4AvI8PpoNKCmD6fCXvqA9vztoTUnLj1mljF+aCWErJSrFn82H+P4Tcepawu/lIErcB5tbbLqnBVAaUOWs/6RBkmwS1RoaKk3aTLrXZqMLbS56rs3ac307H1+0QmYLXtg+3+bWkcX0bIvq+2xoaJfIKtvmOAD+lhvCVjCQpKR7rYtQjWLB6hFL4eHR8G7aoiitUMyiU4/9WN2xhGUCQ8etcI1l2tGcKMlinqwollmBx1U3VbAYUxHWztw28PYXlgOMvNpFUnGFV2em5hL7waN1u/vQHrvzR5N22w/H7Zbvjdg37k7s69+N7Gu3F/bV7+T25W+37cu3Ii2XL93S9Je4P9+VL918zO67/4g11Sv5GFL2Dp4yuBhVEIXYFANaK7SwRYkG5ep62+lOa+X7rVnst060V93LpHWK7u8Q8j6npGO7rc07ntmEyyJLPtu4WvyYLWgo0LRRaxWMQ3nJpPSSXlPbBIEQThLt+phaDdXXdy92ygMesKnsOTZVXGKz8aU2X7/c8h28xH2tFZPXmu261uJd11kxcY2l4y+w5vBVLu3Rn7KWtotDV1izfol/peAv6qhH0uCgmyc0U75yFFsZMg0kKTV81sC7IWPttqnWATvSutiebF1hjy5eZj+eO2gPzZxpj8yca4dmzrND0+fbozPn2+GZg5IL7NHpCxR20MMPz1xkh7V/ePpMe2J63OY7O0R3VtWVgfy1vG6G2wLLZKBD5ZjfAcIWHdM4stgrrzkpku6yPNlrhbrhDsfxLsuSPepY9mm6fobZyBkWSeKxAxaPnqnj/VYM77e8sU+y12qNM9ylBNuqJmkAypom4d5zCxhIUjJibMajNp1O2I+O7rP7Dx+w+x+/QHLQ7nniLLv7yX12+8MTdvsP1NU8uNNufWDcvnX/qN1835DddG/DbrqnbjffNWLfun3cbr1tyG69PZVM20J7XG2XX2voWsqHBNsJ0hvVYUiXNG4Fn1SOKihQNNzLCT+G7yshe3h4bzap5dYYimx0JLHR0ZqNDLNNbHysZmNjo1Yf2i2ykz55LZOQLEPGm2MgSRnsVWgcGNuCuuvF+rk2nZ1hc8UBayfnW6fxHLOdl5lNXG6FtsUO7btc7lKMs73UotHLLBu73NIxxRm70Nq+sCdOEmNhoK0Z6XTB8ogFwuDFgs8MDVT+rRARJZa3XWqxxu4SlnhFuDdshcbmIir3LNnya2iJxo61WmKNemJxPcwANNPpkrDHxuV6AptgIElJyxxRa5WO1opSeU21YSnNeo+xxoR8O55Go5YmI1Y0xi0emVBXMmnJ2KTVxndZfcduq+2YtGgnv2O42zrqarLRPeqWakpbLZ0BuP9IwNZWlj0dwD1e92CCc1Nc4VfXwhSEOxzzIg10YCIkibgtp27YmUy4akX2YgrqqzHz20CqC6RgfXZE9i00eneKswSi/oWfrQkpcK847G2MzWOcIiiX3mM9yCRJrF6v29DQkA2PDNvIyIi6GHVPOoeJve32NOAKg4XThpQQrlw5t9wuiY6TmNYPJbvgkUOFgcRpQ0pQkg6P6V5T+/yIFD/XESfcoytREXKQcVp5ytWy9CxXbPTftdFu5mGMlSpiDipOK09Z4fRARcoKA4dtQEpGkqWA5ZFlhcHE6U3K8plr3+Fj1UkMKrZJzUDMylueKqjcRYWBQ0XKCgOHipQVBg4VKSsMHCpSVhg4VKSsMHCoSFlh4FCRssLAoSJlhYFDRcoKA4eKlBUGDhUpKwwcKlJWGDhUpKwwcFhLysL8m+Dy5S4+vwqf7kcK52N0vnVhJZr1xZftkIDyVcYyDf8eWOB/Yq1BN4hP4B3Kj+WSCAn/hyhBVubbT0B5BJb/D9/sgFJX9sLnZugarulN60QklLIXZZlAKEOwl44UWJaKbdhbtudGUqbhV6oC+cYbWwUQYznPMhf/FrwbxtXhzMp0j0dAqKveHMPZELY1rCFl1slYtFA7YXGijgreUWqJYu6q55akTSld20D45bFE5eHjLTII1cyCR6nVLE1GrZDFanxtmGeWKOFU28LJGlYEY1W06bzmhq1nbRvOm7qSj9pl7CS1otZSfIyo/Hqlpxw523pd5c5tqGhbg2XvlGeLdqV0o1q5PqVIzzmRsJ3FttDmZGxJu2VDrALRk+aS9ORJeaXpun/+e5U0ZOl3dLppOSvnyhYJq0zoHPZtK51WVthwUsjsTV0TlkrBgKwS4rqs0m+l1K2TJJbHmYre1nWpzXZaSlfa0bjyRc+TciSsgqEzrCPUjuvWVJxWa8bqUQujhPR69NtUesqBvgvHHrOOTNsWB5op61Rm4hTLM4pLLG6g7WZQPbEE6zJyGSdWCh0phW9K60M2W8T28S99077/2JQ1RZhUBVgPvvJCTxt1yBh8WVirqfDavvNll9j1B/f6Pt9o8zks2xIUqKU8Z7LIPvzpG+zwfG7zMmAK2X1dG9IvV1voryaetqP8WJZ6JFu00XTB3va6l9vzztpjw4WIIrIbP+fnjSaQs638WsmQHZ5p2oc/9VWbka6LNX6Efx24rsueoB8m4hl7/9tfYyMi+rBsOyKisXZj8GZBEumKXR+enrcPfeZGm+WnA1lxwlPgfwi6fh4g+DmVR5u6dN7biOy9b3+17RH5650Zy+tyBiIRawKxGhpap7Vhr9sb73rAvnbr3TYXs2Laaj8FnVajf1kaecsuGc/tnW95rWycW13OhIbQGBpWuqysUdprY/Ql5dTUMfuff/I/DA4U9WFrqWIen2vbjLxIlikzT359rK0kjlkkQGdUyLNGY9szFJTnU9jVn7tif9HJPcihqQWb6kAwfguSs4GUKAuh1gPLHC+qQSUiYF0er5G37czJcdtRl/HUC+A1c74H97TwTKrWpGbzHfUM8uaPHJ11kvKLvBshGHj9OI2kYwf2jtloXLPO7LyNyAZ15eMrnsmLo1PSkkdOhq2ZjNuPnpq3Zl73FYzRkUWn+DVhfrh1Bch4KVtsqQARjF6KNTuHpNNzD+y2EXnBWjpvLZE8Uz3yQ64Qk56riQ1HJ+2JmUU7orKZ4qyPFRn2Bf3csHrZc/ZPSk81fJFybKRh/+m3/7NN7NknnVkm5gRImaa5HTt6xP7Le94jz6aAWGpI0aIxaovqT+tiTA0vswH61SPkW4K6axZ9Z3mVkpC9xITUeJSWurpCLXxOZbKavJoqktV9fXWwnvj9wHipo+4bgpMeZSo6bRttDFm7qe5Eakc1Ol9IyYrB8h0iaVuNsqNWHdVHrK1+aGgTUm5y2jI17HbeUddct2FsIF0KujQVzIcgEhpNJtu2o4bVRyas1aZMahDSkeWwISRd/UZw/YhNLyZy8seQJW4v2s7Rurpz6UWoN8CwMFVH5E2GRmxe+UWNhkXr1msvjTZQuEhsx8ikNednpeeC1VRfOyfG7AN/9mc2smNC+clrso5TN/p6WENKxjFpO7XWglrs4qyTpVxHHO9D6/XxzjrwDGWU1RlzXGbk/m3DkjHm4hcL2MOriFZUqIzJ0tKEQqdNV/HyigwZFSqTqm5JSDukAwEkXQ+MdoR6N+Z6rO+NPYmursjq6uJYztZ/MSHOw2JS3kgknPMisR9rnE6eHgNPIO2ws8qFvpwrJ4j9QBlLe7EAVRjrQUDOBv1EfQlhNMDgFCg09ep5d+27HjjryW0AXzBMUnLEhwqaM+zYtVvkb6hx5tZQPutrErCGlErPJyh+IQRQQiVQmuxWXNCbg5/oErInUojC/92Rj08wNgLeAUPqip70Q86ijDYY3n8sfwkrMyQOg/oyANpRdiYxIWYoD2Xxuwqk6+HL6VCxgShdLJ0qCxUMTF5lestXB/hPpcTyTGS11DAApIds8lgJ67OD8L/HUpHInZLTP6zQtcweeIbSLILYQcdAsrBfgkYRqwIDt4M1vLLZAp1Iw0kOutteENaNu4SeY51GP8odrg47hXofktU0VQch/3B+fawhJWYOATKwCs1xbyKQJFsqfH94BXT318eKbNcgkJH8e9G9Ridp2SWN+sGrpA/3g0fowtmkSEtF4ZxXqR8RV4MM318Pm+tK5cgruUJISRTtk402dOVgmUIrCx5KtHx2NcJZGsSSIo5e+4Ry6s/L0S30yuga44a8ThSoEfqZ0oKaMGu4wrg8li1jDQVDQ9gYa0mpiygYoQhjj7BOdihumDX2Gq28vFSGImHA9ZVbLvIG6MmiW2fLUHnyGuUsI61NjzUWWVtxuVSgNx5kCXuh0sM2oKRAbx799NmCruomI5Ey5Ey8ZQ9Wrj/u8G33gGBFIWdCuMonPCtQngEhTbTAVqU2pRE95pIRyZv45bU65xGIvTqP5ThrUaa3jNAsuol184GMicR5pbG0JhJE3RDBOj1gVoaH5A5NTde3Wpr5KTwTQzuatTZbmuYrE+4/kXWn3bGpY1MqkWJJ0k6qsLa2GjQrrU6brqmwhfk5y9KOLWqs6vl0hwWZ0in3l6CkMrUw8uG+aUcTjrbyidQlpShGqZVXSxOWQtdSDuhBmZDm4mLoMnSu1b021b6bi7Iz0epeVRqeY/LxxbH0R/4LC4uuHzEyzSrZtpstz8PLlgYboBc6llt0RzjuaOujA4ggpoVFSAFbidIpMkVw+8ku2i802WrL7j7ZIY7CF+YX/Ar0DRJotTA/72Vh4pYziVJSqcrqgyjyw1wlw91wgbIgpC49lDf1gD3RjbTJA52xJeljB7YIcSgv+nPcbrVcOi0WXyXnYGMvjIBOXsfc7N4C1k50VoHCNlXYb3zjG3bnnXeKpC274oor7Bd+4Rfse9/7nn3+85+3eRnm6quvtp/92Z/1Sv3+979v//Zv/2bPfe5z7Y1vfKP98Ic/9HiHDh2y8847z37u537Ozj77bBF/uZArZucC+ZIu13E9xy9/+cvt+uuvtxtvvNG+9rWv+ez9Va96lb3oRS/y8w888IB96lOfsre//e124YUX2le+8hW77bbbRMq25/dLv/RL1tAsk8VUV+dXYmFhweVf/uVf7Ec/+pFsX9g73/lOO/fccz3PW2+91fP6xV/8Rbv00ks9Lra55ZZb7H3ve59NTk76NYCyHDlyxN7xjnfYjh07PE+Iz/3aXlBhlPHJJ5+0v//7v/f9nTt32pve9CY766yz7JOf/KT94Ac/8Osoy969e/26f/qnf7InnnjC3vWud9nw8LB97nOfs3vvvdftMjExYe9973u9LOSJ3quBHsjDDz/sZaWe9+3bZ29729s8r3/8x3+0Rx55xPP7zd/8TU9jenra7frUU0/Z7/7u79rc3JyHcT3lx+6//uu/7g2DNHrreKvY9AoMxkq4FB7SvfrVr/aKobA33HCDZwoJvv71r3vY/fffbx//+Me9sBiX6zDSJZdcYu95z3vs0UcfdaJwHQUnzkagMqmcF77whW4MygNhXvGKV9jrX/96+8xnPmMzMzN2880326c//WmbnZ21o0ePejwaAI3iN37jN+zBBx+0u+66yyuPMvUD4WNjY34tpKAiSIPKX5TH+Pd//3d75Stfaddee60TgLJjg29961t27Ngxvx6daLjY6Nvf/rZfNz4+3s0h2HM1IA42phFC9He/+92uA/ndfffdds8999hb3vIWJwwEJY0///M/dzLRYAHXE+8FL3iB24V6gozELR9a9IJw6oUtBHvZy15mv/qrv+qO44477nCdDh8+7GGU5ctf/rLr9bd/+7duR9JG0PdDH/qQ2+n3fu/33D40vjLtE8GmpGSZZgz7hje8wQ2G8oSRKQR7yUteYgcOHLD9+/e759y9e7f9yq/8ilcExoCcnP+Zn/kZ91a0xrKSytbbz2uhEMTAuBdffLHnCWGIy7lrrrnGnvOc53gajz32mKf9y7/8y244yAHpabWkgQfdtWuXx8eIlL0fuA5DowOeEBLgVUmLiqNiL7vsMi8PxzQA0nz/+9/velE2dKaR0IB++qd/2m0HSBf081iki8d93vOe53bGy5EnS2JjY44PHjxoV155pZOG8tMwfv7nf973iQtoJMSHTDRmyoJOpL+aIKUdKdd1111nL33pS90rkyfX4YHPPPNMu+iii9yh0MgoO/WBgyBd4mF70iE/HAT1xHFJzBPBpqREUQqK0eiK6JZf/OIXeyGoYAoKWWhNVHxZ+VxHRREPo1DIz372s3bGGWcsKVWGk85qYGiuR8n77rvPKxlPzTXkyfVsIQ1GoKVCfs6XeXIOQ+FF6VYxIlISdzU4x3UYk8rCS9100032O7/zO964KFMpnGcLSckfG3CM3nhyGiHhlJ+8SJO0kdUodSE+3pKehPivec1r3DZlJePlEexCT8E56qZMg8aC7rfffrt94AMfsKmpKU+H6ylbLygH1xCfc9QvQweOGSKhL3HQs9SDLQ2HspI319MAifvQQw952J/+6Z/6NZzrp+tWsCVPiUHwDH/xF3/hrep1r3udVyDKQFQyL1sF4cRHSnCOsSHdAhVMBVJoCg9x+hUe4lABEJLuEy+IpyjPYUQqB6OU5CRP8uJ8SbDf+q3f8rEPjYaxH+eIX5a3F2U5SIdxK2VmXEZaeI2yoVHZxCE+NkAXwgkjDt3ov/7rv3r3zZDmE5/4hMej0jjfD6SFfOELX7AvfvGL9gd/8AeuP16bMgNsTR6Qg7jozHgOkPav/dqv2Zvf/GZ761vfutSrUDbAfi9KXUv83d/9nTcIhlicw7mQL3nhDcv6pqckDCFPyoAnZ8iB5+aYsWXZGE8Em5ISYPCPfOQjblC6D/Z//OMf+4SHisPotBa60JIUKIAAvNw///M/2wUXXGAf/ehH3ZNQaIS02a4GyjNe+uAHP+gGZgD/13/91542HoE8P/zhDztZ6HYIx0ikRTkxyF/91V/ZV7/6VR/3UW4G7JzH6P0MRtk5j6fCq1MxjJXJC49Ed07ZGevRG+zZs8fz5Rxpkj/l/uM//mP7wz/8Qx+nYRNIQv5ULJW2GpAP0GiwJ93lX/7lX3q+l19+uQ8T/uEf/sHLwuSRNNARopEfYJiA00Bfegf0gyzkiUCiXqArccq6LYcF2JTe4aqrrnLvR8/4+OOPu+enMRMfh0DdUg4mgNiAuqEhYmPsspr0x4Pkj/7oj/57d78vSuXxapAKA6Is3SHjSY4xGoNrKqosDNfQnSJ4C86hCEpgyPPPP9/jgX5eiwouKxxSYgC6aCoFg+H5CKOLgywl2agcKhXDsE/ZKMtrX/tae/7zn+/plg2nX2NAX4QKYDxKeYlHQzjnnHP8HGRlAoXupEU+5EEjpQzlmJm4DFewFx6PvEHZWEtgW/JgPIid0JmGRprlmA7vw1CBbhu9yy4UwlE2ykKvgefkGuqjJA7pU07SK1Fei+CB0YkGTllJm7zQnXyxG3c+0I34pIM+2IOyMnbHzpzHztQHWJ3nVrHpLSEyopVheMhEJgiVSksjrOyGqQTilt0jxyhBGoBfqcJQZElQkoSBOL9WRZrLBaF7oLLaSndYLXPelV9UKx0d5kUJkaaucaUikU7BfUddj6HJizKRLm8lcY+yxhtG+uMmrulfc7FlkfIeGlpJylCuMH6jnIuLTePXtNANvdCZyi9Ji8egHKQdxxqrthdtSOGZyjc8Mup581hTJXR9koQbyapUgnrqirIGO9TcE5VE4rgkcr1e2pEhCsQIdVPaOE3bCmeoFQjfVlnQm/R4ksJP1FGOXszPL8hWw1528kFndES33joNdRZm8YB96pct57AXYJ/rAHHZ79fwN8OmpDwRhIcHItmS4bnRS/dBl8kWA/OiE5YNpiJuHlO9oRL82fYGIEWSR/wVr25eTlKF+itShQbpxnuYHIsUuQxWaADefTezvB70GqEsN3qQzrrQKfTiRZWOrqFZqYOTUaVDrvL7L3LFnp4/5iOpbnKEeT7d6zaCvzyB7UirkO3CRd1z3et5tY08yxMxDQJ9pXkR3hsNL6iUhehmXoriebrAN8ShrkDZigh79vETIGWZvAi39PKDCMVTBpTtMiBUEHF52wVyegCn+iI8wy1jhNjdbAW1XjyehNfQeFMn0cm6k7LjpMwU7qZ277MMjrpJe1K8YbMZIF7q1/D6Bk9iVPkF3lkzVoWLSl5ez6vMTg3F31SSrhA72Gwd+GNd9Qo0rZI8/OMaP9e9OO8ZBnESYkJKwrvlC/ALw+7StoTOLQWRdvC8PzmY/X+pyXqf/LTp4AAAAABJRU5ErkJggg==;" vertex="1" parent="1">
          <mxGeometry x="700" y="560" width="165" height="133" as="geometry" />
        </mxCell>
        <mxCell id="GRdJn9pDozvjfMk0XIZr-8" value="" style="shape=image;verticalLabelPosition=bottom;labelBackgroundColor=default;verticalAlign=top;aspect=fixed;imageAspect=0;image=data:image/png,iVBORw0KGgoAAAANSUhEUgAAAKUAAACFCAYAAAA6hzjsAAAAAXNSR0IArs4c6QAAAARnQU1BAACxjwv8YQUAAAAJcEhZcwAADsMAAA7DAcdvqGQAAABhaVRYdFNuaXBNZXRhZGF0YQAAAAAAeyJjbGlwUG9pbnRzIjpbeyJ4IjowLCJ5IjowfSx7IngiOjE2NSwieSI6MH0seyJ4IjoxNjUsInkiOjEzM30seyJ4IjowLCJ5IjoxMzN9XX2GuYHZAAAtK0lEQVR4Xu2daZBlR3Xnz733vVdrd1WvUmttCSSh3YAkEItxQLDYgA0BtgEbG+OxGY8JcEzYHxzzwRPhiLFjmJhw2B9sR2AHZrGNzWbGmFUMBo0EEmhBm4UQSKBWa+vu2ustd5n/7+S7Va+qXi3dkujXXfdfffremzdvZp6T/zyZeZd8UZ7nhVWoMECIu9sKFQYGFSkrDBwqUlYYOFSkrDBwqCY6myLqbk8UlXmPFxUpN4Jb5mmSMqrMe7youu8KA4fKU/agKAqLomXPKNt42Fr0856ErY1LcnEce1psV+dRYS0qUvagl4CBQKmlWacbcmIocohZs1qt5mSEnBUpN0ZFylWAmGmadsmT29DQ0yNQUST6v+7pkmaScFxhI1Sk7AFkxEMiIMub2m/7fn9sRNhg1iyLFWvEyUj6eMwKG2NbkzIoLo/oB1HovqOOzbefsm/f9VXr2KxI5JF6sB4RCV9rylq+w6698tXWqO1UVz5kcSSSxsTLJHjNp+eJT0dsW1K60uKDOlWLNfCLCiYjOo6bNtN6yL70zY9ZkUxbJ0s9/kr0I1J/Uo4U++yNr3i3JdFu8XBCHlOBkQiJFDAer7wtq2BdVLeE+qDgT16zEFnjpOgjhK+WrE+YyB6L6RWOCxUp+4BenElJnmeiZ2uVtFdJZ5WsPk83XeF4UJGyL0J3CqG4e7NSuM/YK2GWviyrz3tSFY4DFSn7gPuIvbPwCj9ZVFbfEOuZB/e3Woi7OqzCiaAi5aZgurxaMNtWRHGLipzHCyx3GuMZmPnyRGZLIlP2C9/MYz5jd4PQtVdOXQwuKfEw/eS40K+SetPrBm0ETV6elmwlk179emXLUB7lvU/Ps5QSx5PWyceAkhIjp6ukE8S4mb1VwVOhIkLFdCtn0OpoiVAq8wnpqmuXPDW6lnqXeMbc8U8EvSUfIEDKtqS1XEFeaYT3Stcb9RWSoaK04xKSXYJf390/mfByoGtT0qsrOnCulNX6lXEQnV8aLlClvYrpvIvinCIYUFICDIuR2UKurhfg0ZxLtxLWlT4vPnhdUTmDVkFUQ0mmUtcePVYcrxNeEnGp20fHLhkh7ikELDGAoGKGXbK0bkXeUFhdQkVwrqw4jteTsnIEdv2wsCyTh9G2yOn2BgAqZ5HXLU8blmcN6StdKb/rio5b0VXne72qyNhuN/3GfV5kS49MTxUMKCll5zxSJalqksT5FB77SYq0K+xvJIpji0EKpCVCtv0pi1KXDI7qeRapXLHrzAsbeffdy2VdM8lq/XqlI1nokbY1GomIGAjJm0ndVnlKYGBJGatyEpyABvLtdF4OBZmR45iWTEmO6Vj7S6KwXokVN5qV6DprSlr+Gloch7e/4wF62RbiwRsaTprRkOa6ZUdfdFmlm+vXe0xcrkEWXdc0Z8tj0rKbOHVIOaCvruXWSRetVo9tbk5Gt7bV6cGXJgIqcu84qi90zrtw1XYRusQir9nI8IRfG0XyJEqn36tr060f2pdu/pjlyVEdP71ufjjbb294+W9v+OpaITIy7mu1521ufsrGxjVUcT2Vt8fDd2zkP6hC9EXXMMyZn2vbnt1nWKddWKOuoZCPz08NDCgpIV1mreIJ+/otn7VjC4/IpryxQ1ckr+Jv3lABG5FSlS3RiE2EEwmzcbv++a+3/bsvUtiwzug89XiySal86Q1yefSjcw/bN275nOXxrIovolL2nPNcs3E1RYxNywlNPmojjbPt1S99qzWiCR8WQMpT5dugjZrfSQTGU9HizDo2Ze34iLUTSe2o9qetJWmr+2onG4niujxpnfgp66iby9W1hZnoYLXDWJ7NOSfvmGrY0VZ52/FRL3NHuqbo21fHZUk1nEkTXSd929p2jCFN3m100aBWdF+cSmWtsE1QkbLCwGEbkFJDAUYDp8ZwqoJwWpMyvKir8VSkrd+rq3AqoKqpCgOHipQVBg7bhJSDdQtoLcryhdfQwn1Y9sN9R+7PcmtnPSFGpqrMu6+scc9VQUqHc9znTCSnzqD69CYlT0So3KXn3QCVEVXSQHE1dxIl1tE2VQk5Bjx50pF0WCHx8n6miGlc01UNJTNkcZFYreh009L13Dzf8EHDYGGbeMo+cEIOSEVBmnxUbWdcBNqh/XF/AhXlw9o2LM5EtGxkpaQ9+3ldE7lFl4h3UI3Hlm1pxz5h7jZPGWxfUg4SWEUjbsrjdeTQ1FWLQFmcaZuKUG2dCyRzYcGtXnHydVSRCF2/sPQ4kWGAvKU/mh2obmFDVKQ82eCxZzyj7nhKpGxaO8kkUVdy69TaliYdyxTuIrKuEA8T/fJJy7LdluZ7JLstKyY1ABhVBjxfP4XcpFCR8qRD05qcF0cmrF3stqPze2w+u9BmOxfaTOegTbXOtZnW+TbTvkBy0Ka1P9U836ZL0fG0wmeaitc8T3HPsdnWWTa1uNvaJpKq689TxpXd7E4BDO6qa7JiKzpkN3zzY3a0+bAaPN2ZWhEL/Xg3Revf2ANEmoxGhSYNRcOizi57ydVvtjN3X6UwjcN4O0eXF5HmrSf5LSFehm8r/IGn5uwj/+fz1lIk+UfL2k3LO22d74hcma9vmaYdyzMVVF00b5PzbqgvxMU6R9IHx1vTGPWMnZP2J7//X21Ex0lL82/e3jtFXFDlKU8yvInpP2bQTc2aZzr7bcYO2mx0qS2OvMCynddZuvNaS8dfaPnEtRbtut7iPS+xbMc11hl7obVGnm/Nkau1vcJaw5dKLpacZwvRpM0r7VRj1LjB2PLUcZVbJGW4U1b+BVM+U3KyEcqxpiTdgGWt+/+V168RPLp79V50j7tRHMyM63MiT27tem7NoUVrD2vOPBTbnMaVUyLrfCI/OFyzzkjD0rEhy8aHrbZnwup7J62xb5cN7dtn0eT5ZjsvkJxryY4DVp/Y6/3IQsaEqCkv2gn5PesoleuV48MaUnKTNSRDX+YB6jrUhfBuX/SINaOHpeBTm8jjkie78pTl2ubREclRa2aPazurhNUNdT/eottcBgfI8StzvKCri0ScNoSQJbgBHecNa2Q1G1KXmZi6T3Wza0XdZleo7EIz4FI0PXGJu2JFxxpxpO47s4QhiPLj5ePCP4TTIERdb11bvkSqayTViIZNPbR/nxS+r1GpYm3jWlcSF6qO41pd5ZWMjjZseHTUasMTFg/tsOFkSCmajarfTuWBi4j8SmDb0s6lPBMgHbwy0r1H7PvHl/6KMWXgIKM1zIZVIut0tE3adt9Dt9hT8w/IuIXlbdRdB36KglDhcD6QnH2MyLjo8ouvt/27LhQZY0vihrZ8OMWFpbG01b9W9OizOqaElIVmtk2IJWrUsrqI0bH51oP25Zs/aO3GEeXEJwurEfKlJJSpF6wc3XtbcEhjyje98re1NyYdx0U2De66t2yCZdA3tfl4yO59ct7+5nN32LF4zDo6DuNdbvWQ10admogda6YeyYtqHDCSLdqZxbT9t3e9ysZ1NpFTSWJR3wed5AnKLeiWVg1kE5NuAdR9Tz5uIMouWZH/+thIU0+b72RYpfbosUft8ScftsNH7rfHpu5dksM94mHHynP3LZ87cq8dOnq3PXrsbnti9j9soXXMe7bl1/PL7U8Yni1vZeOn+FOlxPKEYlYqz5IVQ/KcOt+VZElU0RImFIUInyseYpKCfQvbsF93UWzJsrm7WauewiDg6SJMeORS8MqxNKqhk9LnZNngnRDse8YSiNIli8T/2D4NWf4UWlv/BslndhIIH5zVZtiYlFKEL+2KvK0kNWxWt8vnCXljdkmKHlkKr7Od6R7PmI3M+X5an7JM59Ji0Q1IYXHUS9w8GcBjynAYgsd73LBOo9ia8bi14lHLkmJJ0lXSETNTNViE+4WpCF0ed7rbVCRJIxFXefjz5/DPEQjju88IfGgge0LQJKl50m5mIXjl7sF6GUOqdWWZvOsKVlwRxnGwbICI6bIxuGJDpJ2Or9sdcWskaVlcU8XpeH1RN8uW8Zbvq3XUZAVJXFfFcKyKgoiBmCcRXc/Bh2X4lZhxov40CrT5YpctJOfYTHKWTccHNOE40+WYnRGkOMOmizNtLt9l8/mEZNIWCs142WYStkg6ZqnGqam8RxgadbOFGdhoC5W0Jcig3vN069/ty5YD7XiWoGtzNmEsj6dWPTH+U734hX1FUfuG90pIjRyo26WRoW/03xa6brA+KbtsbzTomlRhCV/DoQXhcskbStldhf0s1cA+wxvV/MN7H6zz0q0bSOmdNPDSQ2GJ9Es0vo1lWOw4r7HloSN1e/DxvXb/YxfZ3T8+aLc9eLbd+r0zJGfat/5jv/2/e3bb17+702757qjdeuew3XLHkN18e8Nuuq1mN3+nZjch2r/jvqa1ZIcwNtU2pQtDb9lS+m+tmjaHe0nsWSZY7rp52StPBHvDoTDTS0WeeenNHYB5efanIdGCdVL1pikf6FEez6qLrddzH1IqJWc0pyAVxmSMwH75WlRJvn5CXMXJReKcr/S4RvtLwvmTScQS6BkmT6gbMT7sMCZjjDhhc+09dnT+XHt87jI71v4pW4xfZJ36y6yVvFhd+4vUtb9Y+y+yBbtOHvIam82ebzPtq22mdbXiX2XHmlfa0cUr7cjcXsuYgMieWLWc3LBdGk9u0YM8k4DAPBNn4YOF9uN26Mm77dDUnXZo+o4TlsPH7rKpmUNWr8vrKu3lpWK8BYTdLWDt7FutB4PFIhU1BtvTaMZuuvOTdnj6O+LbgmL14XIvfEDbLQRpkKKyaTSGrd1u20suf4ddsP/FPlOMNN5iyZJuZAmKaKt/z+7sm7zbykZencd8nq3Gk43Yvj/dtv/9iRtturZHnRpefxlLObqr0aWMt+kHM40reTQjPdHVPZfC99qT9r/e9xYbVk5D2EDXRYXiiYgZr58pjUSVtxANP63Zd6ySpiI/P7s3qtn3eY2m/f7bX6Y5P6Zj9h3Gzm5EgZyjqGmd4oj94OHv2h333GzFTm63Y98ePTdAiLmMJBu2s8evtuuveaXKMaoIw+p9uvZzryy9fYy5MX/6nCWr1dmBbjHLxLuC4ZDesIBuOpB8qcWUaZfHJxfeWMp9d5e+ozB59GTMhy5RY8HF6qowSdRQ1yQpauryEh2PiBCjoozqoDauAcrOxOoTkp2xRNvxIWspadFBQ5iO5W1+9kR5qCGSt/9fFuJZRNCVjJaFhuMNKVHDbbTUSI5KjrikW5Ay7rJMqWksiuh03/qnBuiqlT2BbzYmJOgTo4fJVJJLuYSIXLL+aJel0IKR3rCcsaOqAZ8L/XiLRb1jN4yZKEOCkw0UoxyRyietVDFFjUkOGspDSedWa0FEarjw8iySa7xZSEyTl0geuOiIbinDlIY0H5LgHSRiaZyMWFLfof1QH8PywjELT4mQqWwRayjj9zUpzrMMtCqdB/lxG6zd5ub7hOWagGZ1hefcyzxxIdVWNqeOh7vc4kAk+zohcVRqFj4U3Bx9SLmJiTi9mZQ7dHF+DJZ2BgjdMrHplRVYfXKllH/LYSBsGZZw33AjbHz2ZKDU40Sk6wxLhKAerAnoiz6krPBMgK6LT3yXHxBU2CoqUj5LgIylVDg+VKR8lsAkwh/9dW9uVNTcOipSVhg4VKSsMHDoQ0p1N+FfdyYV/l9CeWIjWXnQxcr95aPV8UDV2W1nrCAltzrjovwcM9xszXhpNe5YlrasSLknxx2ucDfSn0zwou4qyYumpKUxVWpZwcsZCva0Otp2rOC+oHIIi3rqGu5jKZ7fl/enKxSrIuZ2RR9PqSCeYQMnU1uUESHrHf/4iDev01Rkk+RZ5o/SNKrvkdwSsYsXtcpt5PFSK3zb8Xi9T1MCyiPIWBFyO2MVKSEKhBQpxBE+FcCT8dfm+axcXicetag2KZnQ1TtdilWSZeOW5WPajom4Y0poXB54h0URb19LeCHWsy6ll4QrqVph+2EVKUEgSEmTJIZAk+p0D9hicZ7NZufZVHqu5DybKQ72lYXogiVZtAtsXtfM5+doe44tSjoFL+n3ErK7Zdczroi5nbGClPhFumfevvY3cXx8NyoSTdqhx/bYAw/tt/sPHbA7H9ll33loh938vYbdeF/NvnFPZF/7bmE33J7aV25L7Yu3duyLt7Tti99s2Re+uWBfktxwS9Pl/367bY8f9c5dGZakBOVW6NmtsP2wgpQgV1fNlIQ9d1hs8sTmW2fZdOtim8kvt5n4MltoXGXp2DWW77zOsvFrLdtxreUSvkdujrzAFoZ/yhaGrrL5+pU2V79C2ytsLn6ezSeXaiiwSwnDvFjDy34MJOPKW25X9CFleIulPIIyvOHTVje+GI/bgk2oC56wZj5prWK3uvU9mpDvs7y236xxwKKhs6w2cb7Vdh60ZMd5VttxrtW1TcbPsmTsgBVDihfzu4ukX3rKkpgVGSusIiUz4vCWOSJy8Mqaf3ejzrw2b+3GrE63rB6HmTWrfVnRDt80M9PWlu9cIs4riVojsfpQYo2h2IbYNiIbGebTii4JnX8lIUtUpNzuWEHKJZ/Fi6588M79RI0vPSxeVFjLVwbL86bitJyU/AJYHLM4Z1uR2ppZtyyBqDpXS3Kr1yKr1c3qIuSwk5Pvv5W+Eu3erdS/QMSwDF4IrbB9sYaUdSiBZ/TfLuRbZr70U3hWtyjjds6oRdywjBUzCi/zppoQhW5f7lHhNblWXmDlJ5EzG9ZEaVjbUcvptiOFkb7ShJjchCLfcNcykDKXd/bACtsSK0hZocIgoCJlhYFDRcoKA4eKlBUGDhUpKwwcKlJWGDgMMCnDLSJQfsu+HNYVf1VuHdF5/+veD+37NHNbIRigaxXfJyx8HvzMIKQa/veUu9mE/CTdzWYYSFL663LRrOVRyxVLJPyCVq1oSltWzOWD+pXLHwRhxZ4g3AnN47akI0l1DSvvBpvwLGq7kdQX8JLS/j4s9pAhhqxhUcpSEqxOjK1ltyxdkiLtrJDw0vb6kiKJ7CxD1/MGizV7fpkvj5Nj+C1hQEnJKmXccEdYeNRfFZaC3GKvyaAjCm/4Df6VUlsS4kX+i1wsfMoKDiyuReqBvOFm/RatdLpAKi95LRqoNnEiYkqyQs3ae5iA5b1lRDkvbK8V1k9y0fXUQz0e9rQLX2HOr1yx2QwD2n2LhMWoqDMWSBaLkDzlEVjJjXXJWcgpj2TIdYQ06iJkTZJkLB3NZxyE4icxFkvRbDNSOiuwQqh2lpNJ5Sk7+ZgO9sjOO60T73BJJe1ofIUU0U6L4ok1EkdBLJ60hcW6LbTkebPcakM4AvI8PpoNKCmD6fCXvqA9vztoTUnLj1mljF+aCWErJSrFn82H+P4Tcepawu/lIErcB5tbbLqnBVAaUOWs/6RBkmwS1RoaKk3aTLrXZqMLbS56rs3ac307H1+0QmYLXtg+3+bWkcX0bIvq+2xoaJfIKtvmOAD+lhvCVjCQpKR7rYtQjWLB6hFL4eHR8G7aoiitUMyiU4/9WN2xhGUCQ8etcI1l2tGcKMlinqwollmBx1U3VbAYUxHWztw28PYXlgOMvNpFUnGFV2em5hL7waN1u/vQHrvzR5N22w/H7Zbvjdg37k7s69+N7Gu3F/bV7+T25W+37cu3Ii2XL93S9Je4P9+VL918zO67/4g11Sv5GFL2Dp4yuBhVEIXYFANaK7SwRYkG5ep62+lOa+X7rVnst060V93LpHWK7u8Q8j6npGO7rc07ntmEyyJLPtu4WvyYLWgo0LRRaxWMQ3nJpPSSXlPbBIEQThLt+phaDdXXdy92ygMesKnsOTZVXGKz8aU2X7/c8h28xH2tFZPXmu261uJd11kxcY2l4y+w5vBVLu3Rn7KWtotDV1izfol/peAv6qhH0uCgmyc0U75yFFsZMg0kKTV81sC7IWPttqnWATvSutiebF1hjy5eZj+eO2gPzZxpj8yca4dmzrND0+fbozPn2+GZg5IL7NHpCxR20MMPz1xkh7V/ePpMe2J63OY7O0R3VtWVgfy1vG6G2wLLZKBD5ZjfAcIWHdM4stgrrzkpku6yPNlrhbrhDsfxLsuSPepY9mm6fobZyBkWSeKxAxaPnqnj/VYM77e8sU+y12qNM9ylBNuqJmkAypom4d5zCxhIUjJibMajNp1O2I+O7rP7Dx+w+x+/QHLQ7nniLLv7yX12+8MTdvsP1NU8uNNufWDcvnX/qN1835DddG/DbrqnbjffNWLfun3cbr1tyG69PZVM20J7XG2XX2voWsqHBNsJ0hvVYUiXNG4Fn1SOKihQNNzLCT+G7yshe3h4bzap5dYYimx0JLHR0ZqNDLNNbHysZmNjo1Yf2i2ykz55LZOQLEPGm2MgSRnsVWgcGNuCuuvF+rk2nZ1hc8UBayfnW6fxHLOdl5lNXG6FtsUO7btc7lKMs73UotHLLBu73NIxxRm70Nq+sCdOEmNhoK0Z6XTB8ogFwuDFgs8MDVT+rRARJZa3XWqxxu4SlnhFuDdshcbmIir3LNnya2iJxo61WmKNemJxPcwANNPpkrDHxuV6AptgIElJyxxRa5WO1opSeU21YSnNeo+xxoR8O55Go5YmI1Y0xi0emVBXMmnJ2KTVxndZfcduq+2YtGgnv2O42zrqarLRPeqWakpbLZ0BuP9IwNZWlj0dwD1e92CCc1Nc4VfXwhSEOxzzIg10YCIkibgtp27YmUy4akX2YgrqqzHz20CqC6RgfXZE9i00eneKswSi/oWfrQkpcK847G2MzWOcIiiX3mM9yCRJrF6v29DQkA2PDNvIyIi6GHVPOoeJve32NOAKg4XThpQQrlw5t9wuiY6TmNYPJbvgkUOFgcRpQ0pQkg6P6V5T+/yIFD/XESfcoytREXKQcVp5ytWy9CxXbPTftdFu5mGMlSpiDipOK09Z4fRARcoKA4dtQEpGkqWA5ZFlhcHE6U3K8plr3+Fj1UkMKrZJzUDMylueKqjcRYWBQ0XKCgOHipQVBg4VKSsMHCpSVhg4VKSsMHCoSFlh4FCRssLAoSJlhYFDRcoKA4eKlBUGDhUpKwwcKlJWGDhUpKwwcFhLysL8m+Dy5S4+vwqf7kcK52N0vnVhJZr1xZftkIDyVcYyDf8eWOB/Yq1BN4hP4B3Kj+WSCAn/hyhBVubbT0B5BJb/D9/sgFJX9sLnZugarulN60QklLIXZZlAKEOwl44UWJaKbdhbtudGUqbhV6oC+cYbWwUQYznPMhf/FrwbxtXhzMp0j0dAqKveHMPZELY1rCFl1slYtFA7YXGijgreUWqJYu6q55akTSld20D45bFE5eHjLTII1cyCR6nVLE1GrZDFanxtmGeWKOFU28LJGlYEY1W06bzmhq1nbRvOm7qSj9pl7CS1otZSfIyo/Hqlpxw523pd5c5tqGhbg2XvlGeLdqV0o1q5PqVIzzmRsJ3FttDmZGxJu2VDrALRk+aS9ORJeaXpun/+e5U0ZOl3dLppOSvnyhYJq0zoHPZtK51WVthwUsjsTV0TlkrBgKwS4rqs0m+l1K2TJJbHmYre1nWpzXZaSlfa0bjyRc+TciSsgqEzrCPUjuvWVJxWa8bqUQujhPR69NtUesqBvgvHHrOOTNsWB5op61Rm4hTLM4pLLG6g7WZQPbEE6zJyGSdWCh0phW9K60M2W8T28S99077/2JQ1RZhUBVgPvvJCTxt1yBh8WVirqfDavvNll9j1B/f6Pt9o8zks2xIUqKU8Z7LIPvzpG+zwfG7zMmAK2X1dG9IvV1voryaetqP8WJZ6JFu00XTB3va6l9vzztpjw4WIIrIbP+fnjSaQs638WsmQHZ5p2oc/9VWbka6LNX6Efx24rsueoB8m4hl7/9tfYyMi+rBsOyKisXZj8GZBEumKXR+enrcPfeZGm+WnA1lxwlPgfwi6fh4g+DmVR5u6dN7biOy9b3+17RH5650Zy+tyBiIRawKxGhpap7Vhr9sb73rAvnbr3TYXs2Laaj8FnVajf1kaecsuGc/tnW95rWycW13OhIbQGBpWuqysUdprY/Ql5dTUMfuff/I/DA4U9WFrqWIen2vbjLxIlikzT359rK0kjlkkQGdUyLNGY9szFJTnU9jVn7tif9HJPcihqQWb6kAwfguSs4GUKAuh1gPLHC+qQSUiYF0er5G37czJcdtRl/HUC+A1c74H97TwTKrWpGbzHfUM8uaPHJ11kvKLvBshGHj9OI2kYwf2jtloXLPO7LyNyAZ15eMrnsmLo1PSkkdOhq2ZjNuPnpq3Zl73FYzRkUWn+DVhfrh1Bch4KVtsqQARjF6KNTuHpNNzD+y2EXnBWjpvLZE8Uz3yQ64Qk56riQ1HJ+2JmUU7orKZ4qyPFRn2Bf3csHrZc/ZPSk81fJFybKRh/+m3/7NN7NknnVkm5gRImaa5HTt6xP7Le94jz6aAWGpI0aIxaovqT+tiTA0vswH61SPkW4K6axZ9Z3mVkpC9xITUeJSWurpCLXxOZbKavJoqktV9fXWwnvj9wHipo+4bgpMeZSo6bRttDFm7qe5Eakc1Ol9IyYrB8h0iaVuNsqNWHdVHrK1+aGgTUm5y2jI17HbeUddct2FsIF0KujQVzIcgEhpNJtu2o4bVRyas1aZMahDSkeWwISRd/UZw/YhNLyZy8seQJW4v2s7Rurpz6UWoN8CwMFVH5E2GRmxe+UWNhkXr1msvjTZQuEhsx8ikNednpeeC1VRfOyfG7AN/9mc2smNC+clrso5TN/p6WENKxjFpO7XWglrs4qyTpVxHHO9D6/XxzjrwDGWU1RlzXGbk/m3DkjHm4hcL2MOriFZUqIzJ0tKEQqdNV/HyigwZFSqTqm5JSDukAwEkXQ+MdoR6N+Z6rO+NPYmursjq6uJYztZ/MSHOw2JS3kgknPMisR9rnE6eHgNPIO2ws8qFvpwrJ4j9QBlLe7EAVRjrQUDOBv1EfQlhNMDgFCg09ep5d+27HjjryW0AXzBMUnLEhwqaM+zYtVvkb6hx5tZQPutrErCGlErPJyh+IQRQQiVQmuxWXNCbg5/oErInUojC/92Rj08wNgLeAUPqip70Q86ijDYY3n8sfwkrMyQOg/oyANpRdiYxIWYoD2Xxuwqk6+HL6VCxgShdLJ0qCxUMTF5lestXB/hPpcTyTGS11DAApIds8lgJ67OD8L/HUpHInZLTP6zQtcweeIbSLILYQcdAsrBfgkYRqwIDt4M1vLLZAp1Iw0kOutteENaNu4SeY51GP8odrg47hXofktU0VQch/3B+fawhJWYOATKwCs1xbyKQJFsqfH94BXT318eKbNcgkJH8e9G9Ridp2SWN+sGrpA/3g0fowtmkSEtF4ZxXqR8RV4MM318Pm+tK5cgruUJISRTtk402dOVgmUIrCx5KtHx2NcJZGsSSIo5e+4Ry6s/L0S30yuga44a8ThSoEfqZ0oKaMGu4wrg8li1jDQVDQ9gYa0mpiygYoQhjj7BOdihumDX2Gq28vFSGImHA9ZVbLvIG6MmiW2fLUHnyGuUsI61NjzUWWVtxuVSgNx5kCXuh0sM2oKRAbx799NmCruomI5Ey5Ey8ZQ9Wrj/u8G33gGBFIWdCuMonPCtQngEhTbTAVqU2pRE95pIRyZv45bU65xGIvTqP5ThrUaa3jNAsuol184GMicR5pbG0JhJE3RDBOj1gVoaH5A5NTde3Wpr5KTwTQzuatTZbmuYrE+4/kXWn3bGpY1MqkWJJ0k6qsLa2GjQrrU6brqmwhfk5y9KOLWqs6vl0hwWZ0in3l6CkMrUw8uG+aUcTjrbyidQlpShGqZVXSxOWQtdSDuhBmZDm4mLoMnSu1b021b6bi7Iz0epeVRqeY/LxxbH0R/4LC4uuHzEyzSrZtpstz8PLlgYboBc6llt0RzjuaOujA4ggpoVFSAFbidIpMkVw+8ku2i802WrL7j7ZIY7CF+YX/Ar0DRJotTA/72Vh4pYziVJSqcrqgyjyw1wlw91wgbIgpC49lDf1gD3RjbTJA52xJeljB7YIcSgv+nPcbrVcOi0WXyXnYGMvjIBOXsfc7N4C1k50VoHCNlXYb3zjG3bnnXeKpC274oor7Bd+4Rfse9/7nn3+85+3eRnm6quvtp/92Z/1Sv3+979v//Zv/2bPfe5z7Y1vfKP98Ic/9HiHDh2y8847z37u537Ozj77bBF/uZArZucC+ZIu13E9xy9/+cvt+uuvtxtvvNG+9rWv+ez9Va96lb3oRS/y8w888IB96lOfsre//e124YUX2le+8hW77bbbRMq25/dLv/RL1tAsk8VUV+dXYmFhweVf/uVf7Ec/+pFsX9g73/lOO/fccz3PW2+91fP6xV/8Rbv00ks9Lra55ZZb7H3ve59NTk76NYCyHDlyxN7xjnfYjh07PE+Iz/3aXlBhlPHJJ5+0v//7v/f9nTt32pve9CY766yz7JOf/KT94Ac/8Osoy969e/26f/qnf7InnnjC3vWud9nw8LB97nOfs3vvvdftMjExYe9973u9LOSJ3quBHsjDDz/sZaWe9+3bZ29729s8r3/8x3+0Rx55xPP7zd/8TU9jenra7frUU0/Z7/7u79rc3JyHcT3lx+6//uu/7g2DNHrreKvY9AoMxkq4FB7SvfrVr/aKobA33HCDZwoJvv71r3vY/fffbx//+Me9sBiX6zDSJZdcYu95z3vs0UcfdaJwHQUnzkagMqmcF77whW4MygNhXvGKV9jrX/96+8xnPmMzMzN2880326c//WmbnZ21o0ePejwaAI3iN37jN+zBBx+0u+66yyuPMvUD4WNjY34tpKAiSIPKX5TH+Pd//3d75Stfaddee60TgLJjg29961t27Ngxvx6daLjY6Nvf/rZfNz4+3s0h2HM1IA42phFC9He/+92uA/ndfffdds8999hb3vIWJwwEJY0///M/dzLRYAHXE+8FL3iB24V6gozELR9a9IJw6oUtBHvZy15mv/qrv+qO44477nCdDh8+7GGU5ctf/rLr9bd/+7duR9JG0PdDH/qQ2+n3fu/33D40vjLtE8GmpGSZZgz7hje8wQ2G8oSRKQR7yUteYgcOHLD9+/e759y9e7f9yq/8ilcExoCcnP+Zn/kZ91a0xrKSytbbz2uhEMTAuBdffLHnCWGIy7lrrrnGnvOc53gajz32mKf9y7/8y244yAHpabWkgQfdtWuXx8eIlL0fuA5DowOeEBLgVUmLiqNiL7vsMi8PxzQA0nz/+9/velE2dKaR0IB++qd/2m0HSBf081iki8d93vOe53bGy5EnS2JjY44PHjxoV155pZOG8tMwfv7nf973iQtoJMSHTDRmyoJOpL+aIKUdKdd1111nL33pS90rkyfX4YHPPPNMu+iii9yh0MgoO/WBgyBd4mF70iE/HAT1xHFJzBPBpqREUQqK0eiK6JZf/OIXeyGoYAoKWWhNVHxZ+VxHRREPo1DIz372s3bGGWcsKVWGk85qYGiuR8n77rvPKxlPzTXkyfVsIQ1GoKVCfs6XeXIOQ+FF6VYxIlISdzU4x3UYk8rCS9100032O7/zO964KFMpnGcLSckfG3CM3nhyGiHhlJ+8SJO0kdUodSE+3pKehPivec1r3DZlJePlEexCT8E56qZMg8aC7rfffrt94AMfsKmpKU+H6ylbLygH1xCfc9QvQweOGSKhL3HQs9SDLQ2HspI319MAifvQQw952J/+6Z/6NZzrp+tWsCVPiUHwDH/xF3/hrep1r3udVyDKQFQyL1sF4cRHSnCOsSHdAhVMBVJoCg9x+hUe4lABEJLuEy+IpyjPYUQqB6OU5CRP8uJ8SbDf+q3f8rEPjYaxH+eIX5a3F2U5SIdxK2VmXEZaeI2yoVHZxCE+NkAXwgkjDt3ov/7rv3r3zZDmE5/4hMej0jjfD6SFfOELX7AvfvGL9gd/8AeuP16bMgNsTR6Qg7jozHgOkPav/dqv2Zvf/GZ761vfutSrUDbAfi9KXUv83d/9nTcIhlicw7mQL3nhDcv6pqckDCFPyoAnZ8iB5+aYsWXZGE8Em5ISYPCPfOQjblC6D/Z//OMf+4SHisPotBa60JIUKIAAvNw///M/2wUXXGAf/ehH3ZNQaIS02a4GyjNe+uAHP+gGZgD/13/91542HoE8P/zhDztZ6HYIx0ikRTkxyF/91V/ZV7/6VR/3UW4G7JzH6P0MRtk5j6fCq1MxjJXJC49Ed07ZGevRG+zZs8fz5Rxpkj/l/uM//mP7wz/8Qx+nYRNIQv5ULJW2GpAP0GiwJ93lX/7lX3q+l19+uQ8T/uEf/sHLwuSRNNARopEfYJiA00Bfegf0gyzkiUCiXqArccq6LYcF2JTe4aqrrnLvR8/4+OOPu+enMRMfh0DdUg4mgNiAuqEhYmPsspr0x4Pkj/7oj/57d78vSuXxapAKA6Is3SHjSY4xGoNrKqosDNfQnSJ4C86hCEpgyPPPP9/jgX5eiwouKxxSYgC6aCoFg+H5CKOLgywl2agcKhXDsE/ZKMtrX/tae/7zn+/plg2nX2NAX4QKYDxKeYlHQzjnnHP8HGRlAoXupEU+5EEjpQzlmJm4DFewFx6PvEHZWEtgW/JgPIid0JmGRprlmA7vw1CBbhu9yy4UwlE2ykKvgefkGuqjJA7pU07SK1Fei+CB0YkGTllJm7zQnXyxG3c+0I34pIM+2IOyMnbHzpzHztQHWJ3nVrHpLSEyopVheMhEJgiVSksjrOyGqQTilt0jxyhBGoBfqcJQZElQkoSBOL9WRZrLBaF7oLLaSndYLXPelV9UKx0d5kUJkaaucaUikU7BfUddj6HJizKRLm8lcY+yxhtG+uMmrulfc7FlkfIeGlpJylCuMH6jnIuLTePXtNANvdCZyi9Ji8egHKQdxxqrthdtSOGZyjc8Mup581hTJXR9koQbyapUgnrqirIGO9TcE5VE4rgkcr1e2pEhCsQIdVPaOE3bCmeoFQjfVlnQm/R4ksJP1FGOXszPL8hWw1528kFndES33joNdRZm8YB96pct57AXYJ/rAHHZ79fwN8OmpDwRhIcHItmS4bnRS/dBl8kWA/OiE5YNpiJuHlO9oRL82fYGIEWSR/wVr25eTlKF+itShQbpxnuYHIsUuQxWaADefTezvB70GqEsN3qQzrrQKfTiRZWOrqFZqYOTUaVDrvL7L3LFnp4/5iOpbnKEeT7d6zaCvzyB7UirkO3CRd1z3et5tY08yxMxDQJ9pXkR3hsNL6iUhehmXoriebrAN8ShrkDZigh79vETIGWZvAi39PKDCMVTBpTtMiBUEHF52wVyegCn+iI8wy1jhNjdbAW1XjyehNfQeFMn0cm6k7LjpMwU7qZ277MMjrpJe1K8YbMZIF7q1/D6Bk9iVPkF3lkzVoWLSl5ez6vMTg3F31SSrhA72Gwd+GNd9Qo0rZI8/OMaP9e9OO8ZBnESYkJKwrvlC/ALw+7StoTOLQWRdvC8PzmY/X+pyXqf/LTp4AAAAABJRU5ErkJggg==;" vertex="1" parent="1">
          <mxGeometry x="950" y="560" width="165" height="133" as="geometry" />
        </mxCell>
        <mxCell id="GRdJn9pDozvjfMk0XIZr-10" value="Success Extraction Rate" style="strokeColor=none;fillColor=none;fontColor=#777777;whiteSpace=wrap;align=left;verticalAlign=middle;fontStyle=0;fontSize=14;" vertex="1" parent="1">
          <mxGeometry x="140" y="430" width="160" height="40" as="geometry" />
        </mxCell>
        <mxCell id="GRdJn9pDozvjfMk0XIZr-11" value="OCR Accuracy" style="strokeColor=none;fillColor=none;fontColor=#777777;whiteSpace=wrap;align=left;verticalAlign=middle;fontStyle=0;fontSize=14;" vertex="1" parent="1">
          <mxGeometry x="430" y="430" width="130" height="40" as="geometry" />
        </mxCell>
        <mxCell id="GRdJn9pDozvjfMk0XIZr-12" value="Processing Speed" style="strokeColor=none;fillColor=none;fontColor=#777777;whiteSpace=wrap;align=left;verticalAlign=middle;fontStyle=0;fontSize=14;" vertex="1" parent="1">
          <mxGeometry x="720" y="430" width="80" height="40" as="geometry" />
        </mxCell>
        <mxCell id="GRdJn9pDozvjfMk0XIZr-13" value="OCR Error Rate" style="strokeColor=none;fillColor=none;fontColor=#777777;whiteSpace=wrap;align=left;verticalAlign=middle;fontStyle=0;fontSize=14;" vertex="1" parent="1">
          <mxGeometry x="990" y="430" width="80" height="40" as="geometry" />
        </mxCell>
        <mxCell id="GRdJn9pDozvjfMk0XIZr-14" value="OCR Coverage" style="strokeColor=none;fillColor=none;fontColor=#777777;whiteSpace=wrap;align=left;verticalAlign=middle;fontStyle=0;fontSize=14;" vertex="1" parent="1">
          <mxGeometry x="182.5" y="730" width="80" height="40" as="geometry" />
        </mxCell>
        <mxCell id="GRdJn9pDozvjfMk0XIZr-15" value="Processing Rate by Document Type" style="strokeColor=none;fillColor=none;fontColor=#777777;whiteSpace=wrap;align=left;verticalAlign=middle;fontStyle=0;fontSize=14;" vertex="1" parent="1">
          <mxGeometry x="440" y="730" width="140" height="40" as="geometry" />
        </mxCell>
        <mxCell id="GRdJn9pDozvjfMk0XIZr-16" value="System Response Time" style="strokeColor=none;fillColor=none;fontColor=#777777;whiteSpace=wrap;align=left;verticalAlign=middle;fontStyle=0;fontSize=14;" vertex="1" parent="1">
          <mxGeometry x="710" y="720" width="140" height="40" as="geometry" />
        </mxCell>
        <mxCell id="GRdJn9pDozvjfMk0XIZr-17" value="User Satisfaction" style="strokeColor=none;fillColor=none;fontColor=#777777;whiteSpace=wrap;align=left;verticalAlign=middle;fontStyle=0;fontSize=14;" vertex="1" parent="1">
          <mxGeometry x="990" y="730" width="80" height="40" as="geometry" />
        </mxCell>
      </root>
    </mxGraphModel>
  </diagram>
</mxfile>
